<?xml version="1.0" standalone="no"?>
<!DOCTYPE svg PUBLIC "-//W3C//DTD SVG 1.1//EN" "http://www.w3.org/Graphics/SVG/1.1/DTD/svg11.dtd" >
<svg xmlns="http://www.w3.org/2000/svg" xmlns:xlink="http://www.w3.org/1999/xlink" version="1.1">
<metadata></metadata>
<defs>
<font id="carolineregular" horiz-adv-x="1097" >
<font-face units-per-em="2048" ascent="1638" descent="-410" />
<missing-glyph horiz-adv-x="448" />
<glyph horiz-adv-x="0" />
<glyph horiz-adv-x="682" />
<glyph unicode=" "  horiz-adv-x="448" />
<glyph unicode="&#x09;" horiz-adv-x="448" />
<glyph unicode="&#xa0;" horiz-adv-x="448" />
<glyph unicode="!" horiz-adv-x="356" d="M264.5 -18q9.5 32 40.5 32q22 0 36.5 -15.5t14.5 -37.5q0 -35 -23 -45.5t-52 12.5q-26 22 -16.5 54zM316.5 102.5q0.5 19.5 15.5 83.5q19 87 41 217q21 122 63 316q10 45 30.5 139t25.5 119q49 233 71 268q13 19 35 19q18 0 31.5 -11.5t13.5 -29.5q0 -34 -76.5 -350 t-130.5 -502q-43 -154 -55 -209q-13 -59 -22 -73t-29 -9q-14 3 -13.5 22.5z" />
<glyph unicode="&#x22;" horiz-adv-x="407" d="M350 434q-2 5 17 53q13 29 18 55.5t8 88.5q4 99 10 102q9 11 32.5 -3.5t33.5 -37.5q12 -29 8 -79t-22 -89q-13 -29 -36 -56t-41.5 -35.5t-27.5 1.5zM496 434q-6 6 16 53q14 30 19 57t8 87q4 99 10 102q9 11 31.5 -3.5t31.5 -37.5q12 -29 8.5 -78.5t-20.5 -89.5 q-13 -29 -36 -56t-41 -35.5t-27 1.5z" />
<glyph unicode="#" horiz-adv-x="1105" d="M328 10q0 6 3.5 9t17 6.5t39 6.5t71.5 7q114 10 119 22q5 15 30 131.5t25 122.5q-1 1 -31 0t-74 -4q-45 -4 -69.5 -5.5t-39.5 -0.5t-19.5 4.5t-4.5 9.5q0 9 25.5 12.5t154.5 14.5q65 5 68 19q7 13 43 188q48 208 64.5 255.5t42.5 47.5t38 -14t7 -39q-4 -26 -37 -180.5 t-45 -206.5q-5 -21 -7 -36t-1 -15q3 -3 121.5 7t121.5 13q1 1 6 18.5t13 49t14 63.5q67 288 82 315q7 15 35.5 16t40.5 -11q16 -21 -58 -322q-6 -26 -13 -57.5t-11 -47.5t-4 -18q0 -6 75 -2q119 6 119 -14q0 -8 -100 -8q-103 0 -103 -7q0 -13 -34 -139q-33 -135 -31 -137 q3 -3 96 4q93 9 99 0q12 -8 4 -12q-4 -8 -105 -15q-97 -7 -104 -14q-8 -8 -60 -225q-52 -216 -61 -230q-6 -9 -20 -10t-29 8q-16 9 61 357q18 91 15 94q-5 5 -126.5 -8t-125.5 -19q-8 -8 -33 -125q-59 -247 -78 -284q-8 -14 -32.5 -14.5t-30.5 12.5q-9 22 51 303 q22 101 22 102q-27 1 -34.5 0.5t-84.5 -2.5q-118 -6 -118 4zM674 61q0 -10 37 -4q84 9 127 11l90 6l8 30q13 59 31.5 154t15.5 96q0 2 -2 2q-23 0 -133 -11.5t-111 -14.5q-3 -3 -33 -132.5t-30 -136.5z" />
<glyph unicode="$" horiz-adv-x="763" d="M339 -71q8 8 34 -27l2 -2q26 -37 40.5 -45.5t49.5 -8.5h33l28 125l45 191l15 65l-25 19q-80 56 -117 125q-17 28 -21.5 50t-6.5 71q-3 69 9.5 125t47.5 131q49 103 120.5 191t145.5 138q25 15 37 29.5t19 38.5q13 39 28 39q10 0 13.5 -6.5t3.5 -26.5q0 -22 3.5 -26.5 t20.5 -4.5q43 0 78 -28t43 -68q7 -41 -29.5 -154.5t-81.5 -189.5q-33 -55 -73 -94t-62 -39h-22l35 37q122 135 178 346q15 57 12.5 87t-24.5 52q-13 12 -23 14.5t-29 -0.5q-28 -6 -37 -26t-35 -135q-1 -4 -1.5 -7t-1.5 -6l-95 -395q-63 -261 -63 -268q15 -11 33 -21 q91 -57 112 -112.5t-22 -126.5q-73 -120 -189 -162q-19 -6 -27 -14.5t-14 -28.5q-8 -32 -26 -36q-10 -2 -15 11q-7 14 0 35q3 13 -1 17.5t-25 7.5q-42 8 -61.5 19t-37.5 40q-29 45 -21 54zM549 -123q0 -10 16 0q8 4 27 17q29 19 64.5 63t48.5 78q14 28 14 61q0 19 -7.5 31.5 t-31.5 36.5q-43 37 -49 35q-5 -2 -43.5 -151.5t-38.5 -170.5zM555 311q40 -43 45 -30q0 3 75 342.5t81 365.5q2 4 0 6q-8 0 -47.5 -46.5t-71.5 -96.5q-54 -78 -80 -145q-116 -264 -2 -396z" />
<glyph unicode="%" horiz-adv-x="1075" d="M215.5 -23q3.5 11 34.5 56q46 68 445 602t450 598q17 22 37 22q4 0 6 -2q10 0 18.5 -5t10.5 -11q3 -19 -283 -399q-45 -61 -190 -255.5t-181 -242.5q-235 -317 -275 -360q-32 -34 -49 -29q-3 1 -12 6q-15 9 -11.5 20zM460 1051.5q12 67.5 66 117.5q58 52 123 52 q51 0 90 -31q17 -15 32 -49.5t15 -59.5q0 -34 -17.5 -78t-43.5 -73q-35 -41 -70 -55.5t-80 -6.5q-64 11 -95.5 63.5t-19.5 120zM549 1048.5q-28 -92.5 16 -139.5q12 -14 19 -15.5t32 7.5q46 19 82.5 76.5t36.5 112.5q1 43 -14 68.5t-41 27.5h-6q-22 -6 -27 -8 q-70 -37 -98 -129.5zM668 178q13 64 51 99.5t94 37.5h31q29 -5 45 -11.5t35 -24.5q58 -53 48 -146.5t-79 -140.5q-26 -19 -72 -19t-78 17q-47 25 -67.5 76.5t-7.5 111.5zM754 84q10 -58 40 -73t68 18q60 51 60 135q0 40 -13 73t-35 46q-16 8 -20 8q-5 0 -25 -10 q-41 -22 -62.5 -79.5t-12.5 -117.5z" />
<glyph unicode="&#x26;" horiz-adv-x="845" d="M328 53q0 66 155 285l84 117l-12 69q-13 88 -10 217q0 99 3.5 139t18.5 101q35 142 91.5 218.5t125.5 78.5q19 0 29 -2q104 -17 107 -178q0 -92 -52 -211t-168 -297q-32 -49 -38 -65t-3 -44q6 -42 31.5 -127.5t51.5 -153.5t34 -65q7 4 51 58q60 75 95 170.5t28 162.5 q-3 31 6 37t29 -14q26 -26 22.5 -100.5t-34.5 -143.5q-37 -87 -123 -176l-49 -51l26 -41q18 -32 76 -90q34 -34 39.5 -42.5t-4.5 -15.5q-17 -7 -55 15q-72 50 -123 114l-17 23l-57 -29q-61 -30 -106 -43q-42 -12 -101 -12.5t-86 10.5q-29 12 -47 36t-18 50zM365.5 73.5 q-15.5 -65.5 46.5 -91.5q44 -16 118 4q35 11 92 38t78 44q10 6 5.5 22.5t-31.5 73.5q-42 82 -68 166l-28 84l-15 -21q-27 -33 -80 -108q-102 -146 -117.5 -211.5zM636 680q3 -100 13 -100q2 0 45 61q100 164 150 295q17 41 21.5 69.5t4.5 77.5q2 50 -1.5 70.5t-16.5 46.5 q-23 45 -43 45q-18 0 -45 -24q-46 -40 -79.5 -137t-45.5 -228q-6 -76 -3 -176z" />
<glyph unicode="'" horiz-adv-x="290" d="M362 459q-3 7 19 53q14 30 19 56.5t6 86.5q4 97 10 103q11 11 33.5 -3.5t31.5 -37.5q12 -29 8.5 -78.5t-20.5 -89.5q-13 -30 -36 -56t-42 -35t-29 1z" />
<glyph unicode="(" horiz-adv-x="555" d="M402 166q16 227 90 448q73 221 177.5 355t221.5 157q60 12 58 0q-3 -10 -38 -28q-75 -34 -146.5 -130.5t-124.5 -228.5t-91.5 -290t-46.5 -315.5t10 -305.5q15 -108 50 -191.5t77 -111.5q7 -4 12.5 -11t3.5 -10q-7 -11 -34.5 -5t-51.5 24q-95 69 -139 242.5t-28 400.5z " />
<glyph unicode=")" horiz-adv-x="462" d="M-242 -528q4 9 37 26q75 35 147 132t125.5 228.5t92 289.5t47 315t-9.5 305q-17 111 -51.5 193t-75.5 110q-21 14 -17 21q8 12 33.5 6t52.5 -25q93 -68 137.5 -241.5t29.5 -401t-89 -446.5q-74 -222 -178 -356.5t-221 -157.5q-65 -13 -60 2z" />
<glyph unicode="*" horiz-adv-x="548" d="M230.5 543.5q-5.5 10.5 74.5 60.5q40 25 55 38.5t15 23.5q0 16 -45 79q-13 16 -23.5 31.5t-15.5 25t-4 11.5q7 12 26 3.5t41 -34.5q11 -16 22.5 -27.5t14.5 -11.5q1 0 4 5t6 15t5 21q7 28 22 72q9 21 16 26t27 5q32 0 36 -17.5t-11 -78.5q-19 -68 -17 -70q3 -3 72 45 q70 45 82 45q33 0 -17 -38q-21 -16 -59 -42q-98 -65 -98 -69q0 -8 55 -74t55 -74q0 -21 -39 10q-17 14 -36 35l-48 51l-32 -92q-14 -37 -22.5 -58t-15.5 -34t-12.5 -13.5t-11.5 1.5q-13 5 10 159l7 37l-50 -30q-83 -47 -88.5 -36.5z" />
<glyph unicode="+" horiz-adv-x="741" d="M455 238q-14 13 8 17q19 4 84 7l92 4l6 101q4 85 14 107t37 13q24 -7 31 -35.5t2 -101.5l-6 -78l102 2q105 0 113 -8q10 -10 6 -14q-3 -3 -110 -10l-107 -6l-4 -25q-6 -41 -12 -107l-6 -79l-25 -5q-28 0 -33 5q-6 12 -6 106v100l-88 -2q-86 -3 -98 9z" />
<glyph unicode="," horiz-adv-x="251" d="M236 -109q-7 10 16 37q40 49 6 64q-15 6 -20.5 20t2.5 27q6 13 32 13.5t39 -11.5q20 -22 9.5 -70t-41.5 -73q-19 -15 -28 -17t-15 10z" />
<glyph unicode="-" horiz-adv-x="649" d="M442 196.5q-5 13.5 7 22.5q0 2 58 1.5t124 -3.5q107 -3 142.5 -7t47.5 -13q20 -16 13 -23q-8 -8 -172 -8q-165 -2 -195 8q-20 9 -25 22.5z" />
<glyph unicode="." horiz-adv-x="264" d="M287 25q-31 45 6 71q20 17 45 4q23 -9 30.5 -28.5t-3.5 -42.5q-7 -22 -36 -23t-42 19z" />
<glyph unicode="/" horiz-adv-x="1243" d="M96 -100q-4 9 4 22q15 27 252 346q738 990 834 1096q26 26 52 37t38 0q9 -9 -0.5 -32.5t-70.5 -111t-156.5 -215t-292.5 -387.5q-388 -508 -430 -565q-116 -152 -140 -177.5t-53 -25.5q-33 0 -37 13z" />
<glyph unicode="0" horiz-adv-x="813" d="M68 324q-9 168 35.5 345t126 308.5t176.5 173.5q57 23 131 23q43 0 69 -13q93 -34 145 -167t44 -320q-9 -215 -75.5 -400.5t-172.5 -291.5q-64 -64 -139.5 -82t-145.5 14q-86 40 -136 146.5t-58 263.5zM188 340q0 -120 12 -187t44 -130q37 -71 81 -85.5t113 21.5 q82 45 158 171.5t117 289.5q41 173 39.5 324.5t-46.5 262.5t-122 138q-24 6 -39 6q-19 0 -38.5 -12t-51.5 -43q-138 -129 -213 -373q-34 -109 -44.5 -185t-9.5 -198z" />
<glyph unicode="1" horiz-adv-x="458" d="M82 -84l41 168q71 301 199 694l90 277q3 11 -62 -43q-93 -81 -110 -64q0 6 94 86t119 117q14 22 22 27t29 4q20 -1 26.5 -6t8.5 -19q3 -53 -154 -551q-72 -231 -147 -506q-40 -141 -57.5 -178t-45.5 -37q-14 0 -35 17z" />
<glyph unicode="2" horiz-adv-x="944" d="M78 -94q1 0 8.5 4.5t22.5 13t28 15.5q138 77 279 218.5t217 282.5q88 161 161 383.5t60 286.5q-6 34 -47.5 33.5t-95.5 -35.5q-46 -29 -109.5 -98.5t-97.5 -126.5q-57 -97 -85 -193t-9 -133q8 -15 8 -20.5t-8 -8.5q-15 -6 -35.5 6t-28.5 31q-19 51 25.5 164t124.5 217 q39 51 103 110.5t108 84.5q32 18 50 23t52 5q71 -2 99 -38t28 -125q0 -183 -135 -459q-56 -113 -117.5 -198.5t-155.5 -182.5q-142 -148 -266 -213l-59 -31l63 -10q113 -13 133 -14q94 -6 171.5 19t103.5 71q12 20 26.5 23t26.5 -11q15 -20 -21 -55t-96 -58 q-39 -15 -119 -21t-139 3q-44 6 -153 14q-130 8 -121 23z" />
<glyph unicode="3" horiz-adv-x="942" d="M76.5 35q2.5 45 19.5 69q18 29 29 33q9 2 13 -5t2.5 -18t-9.5 -20q-16 -16 -16 -69q0 -33 4 -47.5t16 -28.5q46 -49 121.5 -54t161 35.5t160.5 118.5q88 92 133 221q17 44 21.5 73t4.5 81t-3 73t-15 44q-20 37 -53.5 54t-73.5 11q-87 -14 -92 2q0 2 12.5 18t36.5 43.5 t49 53.5q223 233 268 321q29 63 -2 86t-116 -2q-164 -51 -275 -221q-29 -44 -52.5 -96t-23.5 -72q0 -12 -13.5 -16.5t-25.5 4.5q-32 28 14 125.5t128 175.5q55 54 148.5 95.5t156.5 41.5q32 0 68 -15.5t49 -35.5q44 -61 -41 -202.5t-226 -241.5l-39 -29l50 -18 q51 -18 80.5 -43t50.5 -64q68 -141 7 -305.5t-216 -261.5q-79 -48 -131 -65.5t-127 -20.5q-89 0 -109 4q-100 32 -133 96q-14 27 -11.5 72z" />
<glyph unicode="4" horiz-adv-x="819" d="M73 521q1 13 27 30q29 17 81 72t79 96q44 70 100.5 192.5t79.5 198.5q4 19 12 35t13 18q27 10 65 -16q10 -7 10.5 -17t-8.5 -47q-31 -122 -135.5 -279.5t-210.5 -240.5l-16 -12l16 4q45 9 88 20q176 43 246 43h29l29 111q66 272 112 375q20 51 38.5 64t47.5 -1 q20 -9 20 -27t-20 -87q-5 -23 -29 -111t-34 -129l-47 -178q-2 -5 0 -8t9.5 -5.5t21.5 -4t36 -3.5q75 -6 75.5 -13t-73.5 -7q-82 0 -82 -4q0 -8 -41 -193q-42 -185 -71 -346q-19 -105 -33.5 -152.5t-28.5 -45.5q-4 0 -24 8q-28 10 -29.5 49.5t18.5 165.5q31 204 82 436l17 74 l-56 -4q-33 -4 -129 -23q-213 -51 -262 -51q-25 0 -23 13z" />
<glyph unicode="5" horiz-adv-x="743" d="M77 5.5q0 14.5 7 14.5q11 0 22 -28q26 -73 94 -96t146 14q127 62 197 266q23 63 27.5 91.5t4.5 99.5q-2 90 -15.5 133.5t-47.5 60.5q-44 23 -121 3t-133 -70q-39 -36 -59 -33q-13 1 -16 10.5t-3 50.5q3 119 94 412l54 180q8 27 18 27q262 5 424 12q60 6 76 -8 q15 -11 12 -17q-5 -3 -219 -10l-215 -6l-2 -27q-3 -24 -61 -214t-85 -261q-25 -70 -22 -73q1 -1 61 24q41 19 63 24t75 5q76 0 109.5 -16t60.5 -62q20 -35 34.5 -93.5t14.5 -103.5q0 -93 -51 -215q-26 -63 -80 -120q-45 -49 -88.5 -75t-100.5 -40q-45 -10 -65.5 -11t-61.5 7 q-33 6 -72.5 29.5t-54.5 46.5q-10 14 -15.5 34t-5.5 34.5z" />
<glyph unicode="6" horiz-adv-x="657" d="M78 143.5q-3 116.5 4 184.5q23 174 82 344t139 293q41 62 104.5 122t100.5 74q44 13 63 13t56 -15q27 -12 61.5 -44.5t40.5 -51.5q7 -26 -7 -20q-10 5 -30 28q-28 36 -59 53l-29 19l-39 -19q-34 -19 -84 -85t-94 -150q-32 -65 -72.5 -177t-62.5 -198l-23 -86 q-3 -12 39 33q112 121 213 80q31 -13 66.5 -46.5t52.5 -64.5q40 -78 -9.5 -226t-146.5 -239q-65 -62 -116.5 -83.5t-108.5 -10.5q-34 8 -74.5 45.5t-52.5 75.5q-11 35 -14 151.5zM195 154q-3 -108 4 -159.5t28 -74.5q13 -15 29.5 -13.5t62.5 23.5q35 15 93 70q96 91 140 231 t-1 215q-19 31 -53.5 55.5t-61.5 24.5q-51 0 -109 -51t-96 -129q-23 -45 -27 -69t-9 -123z" />
<glyph unicode="7" horiz-adv-x="688" d="M84 1133q0 24 21 23q24 0 35 -26l3 -8q4 -22 47.5 -35.5t106.5 -13.5q78 0 232.5 38.5t209.5 72.5q18 11 26.5 12.5t22.5 -4.5q23 -10 17 -23q-6 -19 -100 -178q-61 -106 -147.5 -270t-86.5 -174q0 -2 57 -6q55 -3 54 -11q-3 -9 -66 -12l-65 -4l-89 -178 q-92 -181 -139 -295q-47 -121 -71 -137q-19 -14 -38 -18t-24 5q-23 37 -2 101q19 51 73 175.5t97 213.5q53 115 53 119q0 6 -67 2q-90 -5 -90 8q0 3 14 8q36 6 90 6l70 2l80 158q126 246 241 395q43 54 35 54t-45 -15q-75 -27 -176.5 -48t-155.5 -21q-94 0 -158.5 24.5 t-64.5 59.5z" />
<glyph unicode="8" horiz-adv-x="745" d="M68 240q22 101 81.5 214.5t124.5 176.5q47 43 58 47q12 3 -8 49q-22 54 -20.5 126t24.5 122q35 76 96.5 131t138.5 78q40 12 74 12h10q102 -3 138.5 -100.5t-13.5 -249.5q-22 -65 -71.5 -153.5t-98.5 -147.5l-37 -49l21 -50q23 -55 26 -137t-16 -149 q-43 -156 -143.5 -226.5t-229.5 -35.5q-104 28 -144 116t-11 226zM176 156q-5 -81 2.5 -119.5t34.5 -67.5q36 -41 80 -45t102 27q92 49 129.5 158t3.5 225q-13 42 -78.5 163t-74.5 121q-6 0 -43 -57q-67 -99 -108.5 -207t-47.5 -198zM403 999q-20 -71 1 -156.5t90 -209.5 l53 -101l28 33q20 23 74 125q78 157 86 291q8 121 -41 170q-20 23 -45 23q-11 0 -26 -3q-75 -8 -137.5 -56.5t-82.5 -115.5z" />
<glyph unicode="9" horiz-adv-x="782" d="M82 -32q2 1 8 1q13 0 37 -24q43 -46 106 -38t121 68q38 38 89 136.5t77 185.5q54 167 86 336q12 63 41 245t27 185q-2 2 -14 -17q-16 -26 -100 -170q-27 -45 -42 -71q-147 -258 -192 -285q-25 -17 -58.5 -13.5t-50.5 23.5q-46 52 -32.5 183t79.5 264q49 99 110 152 t126 53q51 0 84.5 -32t33.5 -79q0 -12 3 -13t15 15l3 4q17 17 35 58q9 20 16.5 25t26.5 5q43 0 54 -52.5t-1 -192.5q-42 -476 -190 -764q-61 -119 -118 -181t-130 -90q-33 -13 -79.5 -15t-70.5 7q-76 32 -90 60q-16 29 -10 31zM279 567l4 -26l34 32q30 30 78 101 q57 84 121 200l78 136l-8 41q-9 37 -27 63.5t-35 26.5q-23 0 -68.5 -53.5t-76.5 -116.5q-44 -90 -77.5 -225t-22.5 -179z" />
<glyph unicode=":" horiz-adv-x="366" d="M242 -106q-30 44 4 71q22 17 47 4q23 -9 30 -28.5t-4 -42.5q-9 -22 -36.5 -23t-40.5 19zM377 451q-31 42 6 69q17 17 45 6q23 -10 30.5 -30t-3.5 -43q-8 -22 -36 -23t-42 21z" />
<glyph unicode=";" horiz-adv-x="372" d="M252 -197q-4 13 16 37q20 23 21.5 40.5t-15.5 23.5q-32 13 -18 49q8 12 34 12.5t38 -12.5q20 -22 9 -69.5t-42 -73.5q-19 -15 -28 -17t-15 10zM393 438q-29 43 6 70q12 10 21 11t26 -5q22 -10 29 -30.5t-2 -43.5q-9 -22 -37 -23t-43 21z" />
<glyph unicode="&#x3c;" horiz-adv-x="745" d="M428 188q5 11 166.5 105t249.5 135q64 30 92 25q29 -6 38 -18t-3 -25q-41 -37 -291 -166l-129 -68l129 -70q192 -102 192 -114q0 -7 -8 -9t-24.5 1t-40.5 12q-56 22 -192 87t-158 81q-9 6 -15.5 13.5t-5.5 10.5z" />
<glyph unicode="=" horiz-adv-x="974" d="M377 31q0 13 57 17t285 7q233 3 276 1t60 -15q23 -20 21.5 -30.5t-29.5 -14.5q-36 -6 -319.5 -9.5t-297.5 1.5q-17 6 -35 20.5t-18 22.5zM420 287q0 6 10.5 10t49 6.5t102.5 4t180 3.5q233 3 275 1t61 -15q45 -39 -11 -45q-36 -6 -317 -10t-297 2q-17 4 -35 19.5 t-18 23.5z" />
<glyph unicode="&#x3e;" horiz-adv-x="737" d="M285 -23q-10 12 4 25q35 35 289 168l129 68l-129 69q-120 65 -156.5 86t-36.5 27q0 23 74 -4q48 -18 186.5 -84t163.5 -82q24 -14 20 -27q-3 -11 -163 -103t-250 -134q-39 -19 -57 -24t-35 -1q-29 4 -39 16z" />
<glyph unicode="?" horiz-adv-x="741" d="M186 725q-16 86 49.5 207.5t175 218.5t210.5 119q32 4 49 4q55 -2 101 -27t67 -67q18 -35 18 -107q1 -110 -54 -209.5t-239 -318.5q-55 -64 -105.5 -143.5t-70.5 -135.5q-28 -80 -14 -139q3 -10 -12 -13q-28 -6 -47 9q-2 2 -3 4q-15 16 -14 65t16 99q38 111 201 323 q143 181 201 299.5t53 219.5q-3 40 -8 54t-23 32t-29 22t-40 4q-100 -3 -226.5 -122.5t-187.5 -270.5q-21 -50 -21 -115q0 -69 -4 -69q-12 0 -25.5 17t-17.5 40zM256 -24.5q1 29.5 33 40.5q4 2 24 7q6 0 21 -5q26 -9 30 -36.5t-18 -42.5q-18 -11 -26.5 -11.5t-32.5 6.5 q-32 12 -31 41.5z" />
<glyph unicode="@" horiz-adv-x="1212" d="M360 -6q-26 249 83 487t307 369q112 74 221 74q98 0 213 -56q126 -60 178 -170l33 -63v-123q0 -87 -5 -120.5t-28 -108.5q-89 -305 -250 -392q-59 -32 -121.5 -21.5t-91.5 56.5q-26 38 -34 73.5t-5 94.5l2 70q-4 0 -45 -70q-38 -65 -60.5 -85t-47.5 -13q-47 11 -47 119 q0 109 55 213q28 51 57.5 72.5t69.5 21.5t53 -16t10 -62q-4 -45 0 -45q13 22 29 51q26 51 41 64t37 4q9 -3 15.5 -9.5t6.5 -11.5q0 -15 -32 -116q-37 -118 -43 -168q-14 -85 2 -147t53 -62q42 0 106.5 55t102.5 123q42 74 80 192.5t47 202.5q9 75 -17.5 163t-72.5 134 q-47 47 -127.5 82t-143.5 35q-88 0 -187.5 -68.5t-182.5 -185.5q-38 -54 -81.5 -144t-60.5 -151q-43 -161 -30.5 -337.5t75.5 -283.5q24 -37 73.5 -81.5t88.5 -63.5q35 -15 51 -16.5t58 4.5q111 18 233 117q68 53 76 53q20 0 -3 -32q-9 -13 -24 -28q-47 -46 -108 -82 t-117 -51q-54 -15 -88 -16t-76 10q-67 19 -136.5 70.5t-107.5 111.5q-68 110 -84 277zM734 40q6 1 88 126v1l1 1q21 32 38 60.5t25.5 45t6.5 17.5q-8 8 -14 47q-7 41 -19 45h-2q-22 -3 -63 -100.5t-50 -171.5q-9 -56 -10 -60q-3 -12 -1 -11z" />
<glyph unicode="A" d="M82 -166q0 9 37 2q23 -3 36 0t35 17q44 28 131.5 138.5t159.5 229.5q41 71 83 152q40 76 40 83q0 2 -10 2q-19 0 -72 -5q-117 -10 -213.5 -43.5t-130.5 -73.5q-20 -25 -39 -25q-8 -1 -8 6q0 12 31 43t59 46q52 28 160 50.5t188 22.5h52l102 209q277 563 377 787 q37 78 47 91.5t33 14.5q6 2 16 2q9 0 11.5 -5.5t2.5 -23.5q0 -19 -20 -133q-20 -95 -43 -233q-7 -42 -30.5 -170t-29.5 -160q-39 -215 -45 -272q-12 -89 -14 -97q-3 -15 2.5 -17t42.5 3q35 2 96 17q53 14 49 3q-2 -4 -8 -8q-42 -22 -129 -28q-41 -4 -49 -8.5t-12 -24.5 q-6 -41 -13.5 -153.5t-7.5 -184.5q0 -99 9 -159.5t32 -110.5l27 -58q0 -6 -14.5 -7.5t-24.5 3.5q-41 15 -73 85t-42 171q-4 44 -4 131q1 36 1 80q2 149 10 201l6 31h-105q-111 0 -135 6l-31 4l-34 -70q-77 -153 -171.5 -296.5t-162.5 -213.5q-47 -45 -77 -62.5t-65 -17.5 q-63 0 -63 29zM672 487q0 -12 188 -12h68l18 131q13 95 53 303q42 217 50 275q18 99 22 131v2q-3 1 -20.5 -29.5t-45.5 -86.5t-57 -120q-6 -14 -34 -73t-42 -90q-12 -24 -58 -122.5t-69 -146.5q-73 -153 -73 -162z" />
<glyph unicode="B" horiz-adv-x="1280" d="M38 -162q-3 11 -3 22q0 57 78 138q35 37 105 90t130 88q36 22 45 32t15 36q69 364 180 690q132 398 213 467q22 19 29.5 21t19.5 -7q11 -5 4 -30.5t-45 -116.5q-25 -60 -100.5 -280t-75.5 -232q0 -1 1 -1q14 0 208 146q79 58 189 161t153 159q96 126 100 212v8 q0 79 -84 101q-23 6 -56 6q-40 0 -93 -9q-98 -17 -203 -58q-136 -54 -301 -184t-258 -257q-40 -54 -79 -128.5t-58 -131.5q-18 -54 -28 -55q-6 2 -11 10q-7 10 -7 28q0 37 28 103q42 98 118 199t219 216t274 181q94 49 200.5 77t191.5 28q68 0 106 -17q73 -32 99 -92 q13 -30 14 -65q0 -34 -13 -74q-32 -104 -143 -210.5t-315 -229.5q-128 -77 -128 -83l1 -1q156 37 248 37q23 0 42 -2q95 -12 166 -89q40 -41 53.5 -76t18.5 -106q1 -16 1 -33q0 -146 -88 -287q-98 -157 -281.5 -276t-415.5 -174q-51 -11 -149 -27q-87 -14 -108 -14h-5 q-4 0 -54 8q-129 20 -148 82zM59 -147q0 -23 31.5 -45t77.5 -29q14 -3 38.5 -3t60.5 3q72 6 130 18q251 57 437 184t286 310q64 118 74 245q2 20 1 39q0 99 -42 158q-28 38 -62 55.5t-85 18.5q-36 0 -82 -6q-62 -7 -173.5 -37.5t-123.5 -42.5q-6 -6 -53 -182.5t-64 -257.5 q-4 -20 -2 -24t16 -1q97 23 135 23q39 0 39 -7q0 -8 -94 -26q-93 -18 -100 -25q-8 -11 -20 -95q-11 -78 -11 -129v-9q0 -82 -4 -86q-9 -13 -37 -10t-39 18q-11 16 -13 86q0 10 -1 19q0 59 8 108q7 42 4 45q-1 1 -2 1q-11 1 -59 -31q-56 -36 -119 -86t-86 -77 q-28 -31 -47 -66t-19 -56z" />
<glyph unicode="C" horiz-adv-x="993" d="M74 127q-2 27 -2 56q0 260 157 618q105 235 225 401.5t242 245.5q69 45 118 61.5t112 18.5q65 0 98 -17q64 -37 66 -145q0 -4 -1 -10q0 -106 -55 -250q-52 -129 -124 -232q-67 -95 -99 -95q-3 0 -6 1q-29 6 -7 33q8 10 23 25q73 73 150 227q70 142 82 250q2 21 2 40 q0 78 -39 122q-12 13 -23.5 17.5t-36.5 4.5q-74 0 -149 -49q-272 -177 -498 -743q-66 -163 -97.5 -286.5t-37.5 -244.5q-1 -29 -1 -56q0 -154 43 -250q51 -112 155 -128q10 -1 22 -2q36 0 92 14q74 18 138 51q197 102 456 424q85 103 95 113q22 12 9 -14l-22 -35 q-86 -119 -214 -255.5t-204 -191.5q-119 -86 -237 -116q-59 -15 -109 -16q-52 0 -96 16q-107 37 -161 131t-66 266z" />
<glyph unicode="D" horiz-adv-x="1388" d="M119 -25q52 80 148 164t212 148l62 32l24 111q57 233 154 501t180 419q35 66 59 91t52 25q24 0 32 -7.5t4 -26t-22 -56.5q-53 -107 -126 -299.5t-132 -380.5q-87 -280 -87 -310q0 -3 1 -3q5 0 74 25q73 30 86 30q36 0 -27 -28q-17 -7 -41 -17q-76 -27 -94 -39 q-15 -9 -46.5 -164t-31.5 -225q0 -30 -3 -42t-13 -19q-12 -8 -25 -8l-43 24q-13 15 -15 33q-1 5 -1 15q0 25 4 81q3 96 16 170q9 50 9 62q0 3 -1 4q-1 2 -25.5 -12.5t-63 -39t-77.5 -51.5q-124 -86 -204 -192q-69 -93 -70 -154q0 -9 2 -18q10 -57 64 -83t157 -26 q62 2 91 6.5t81 22.5q225 76 411.5 242t346.5 432q125 208 187 383t71 346q1 25 1 48q0 117 -34 188q-40 85 -141 132q-36 19 -57.5 23t-77.5 4q-166 -2 -353 -92.5t-352 -251.5q-75 -70 -144 -175.5t-69 -148.5q0 -11 -4 -14t-14 -2q-21 3 -21 29q0 23 16 63q23 54 68 121 q79 119 241 243t321 187q171 67 305 67q167 0 278 -104q61 -58 88 -133.5t27 -189.5q0 -205 -85.5 -436.5t-240.5 -446.5q-84 -120 -173 -206.5t-206 -164.5q-158 -106 -317 -156q-124 -39 -233 -39q-31 0 -60 3q-57 6 -89 18t-62 37q-45 41 -45 93q0 55 53 138z" />
<glyph unicode="E" horiz-adv-x="1089" d="M84 100q1 139 63 272t172 236q43 38 108.5 80.5t92.5 48.5q20 5 19 15q-2 5 -13 6q-18 0 -59 25t-55 44q-21 28 -21 80q-1 16 1 34q8 77 52 171q52 109 165.5 235t232.5 203q62 38 120 58q45 15 78 15q10 0 19 -1q43 -8 74 -39q27 -20 30 -45t-2 -57 q-6 -124 -87.5 -267.5t-182.5 -209.5q-35 -22 -43.5 -24.5t-20.5 5.5q-9 6 -6.5 11.5t19.5 15.5q73 54 141.5 146.5t108.5 191.5q26 72 26 135q0 50 -2.5 62t-19.5 26q-21 18 -41 16t-70 -26q-74 -34 -185.5 -136.5t-181.5 -201.5q-92 -129 -130 -246q-20 -61 -19 -102 q0 -38 16 -58q12 -15 50.5 -30t64.5 -15q40 2 62 3t34.5 0t15.5 -3t3 -6q0 -5 -17 -14.5t-39 -16.5q-105 -35 -198 -108q-130 -101 -202.5 -247.5t-74.5 -309.5q0 -79 13 -129.5t45 -100.5q50 -76 156 -76q40 0 89 11q121 26 305 151.5t359 300.5q125 125 137 125q10 0 7 -8 q-2 -4 -11 -16q-24 -32 -155 -158t-191 -174q-196 -155 -325 -214q-109 -50 -211 -50q-19 0 -38 2q-132 12 -206 109q-72 94 -72 247v8z" />
<glyph unicode="F" horiz-adv-x="864" d="M82 1438q0 23 43 -11q29 -25 69 -32q24 -4 62 -4q27 0 61 2q125 8 267.5 32.5t410.5 85.5q422 97 631 96q96 0 146 -20q27 -10 53 -36t20 -35q-5 -9 -28 -9q-25 0 -45 29q-19 28 -66 39q-31 7 -81 7q-152 0 -478 -66q-138 -28 -156 -35q-33 -12 -51 -44q-1 -2 -37 -77 q-63 -129 -143 -315.5t-131 -324.5q-41 -112 -41 -133q0 -5 2 -5q11 0 81.5 22.5t112.5 40.5q52 23 72 43q26 22 43 19q16 -3 17 -10q0 -10 -21 -62q-20 -47 -20 -85q0 -21 6 -40q6 -14 4 -17.5t-11 -3.5q-15 0 -36 21q-12 14 -16.5 28t-4.5 44v49q0 -1 -34.5 -14t-77 -28 t-60.5 -20t-41.5 -12.5t-25.5 -7.5q-17 -9 -76 -210t-92 -359q-17 -77 -17 -140q0 -60 -19 -82.5t-50 0.5q-31 24 -31 114q0 56 12 138q11 76 47 226.5t62 224.5l20 61h-55q-50 0 -93.5 9.5t-54.5 21.5q-9 11 -3 11q4 1 18 -3q22 -6 108 -10l86 -6l45 131q63 182 161 396 t161 308l39 64h-1q-10 0 -100 -17q-209 -43 -377 -55q-56 -4 -99 -4q-87 0 -124 16q-30 12 -46.5 26.5t-16.5 27.5z" />
<glyph unicode="G" horiz-adv-x="1208" d="M161 583q25 113 72 238q63 168 137.5 284.5t192.5 229.5q83 81 149 128.5t148 86.5q55 27 77 33t64 6t61.5 -3.5t41.5 -16.5q34 -19 55 -55t21 -74q0 -112 -119 -353q-140 -276 -227 -276q-43 0 -10 22q5 3 12 7q41 22 100.5 110.5t124.5 223.5q76 158 76 260v14 q-6 104 -97 104q-88 0 -258 -139.5t-293 -312.5q-65 -91 -134 -239t-101 -265q-38 -136 -41 -256v-18q0 -104 31 -144q9 -11 18.5 -12.5t32.5 2.5q58 9 160 96.5t323 317.5q74 77 92 77q66 0 66 -118q0 -66 -30.5 -194.5t-67.5 -219.5l-19 -53q2 -2 33 7.5t76.5 26 t83.5 33.5q146 66 260 138q68 43 98 59t33 10q1 -1 1 -2q0 -14 -76 -62q-83 -53 -198 -112.5t-194 -87.5q-11 -4 -30 -11q-85 -31 -102 -45q-15 -13 -38 -58q-6 -13 -10 -21q-43 -88 -80 -141.5t-94 -108.5q-128 -125 -231 -125h-5q-56 4 -65 6q-19 3 -40 24.5t-26 41.5 q-2 7 -2 15q0 59 107 149q123 103 303 180l61 26l25 56q35 81 76.5 213t64.5 233q16 66 16 89q0 11 -4 11q-20 0 -151 -149q-104 -122 -205.5 -210t-157.5 -109q-38 -14 -70 -14q-74 0 -112 76q-32 63 -32 161q0 90 27 210zM256 -301q-12 -23 -12 -41q0 -25 22 -41 q19 -17 45 -17q28 0 64 19q44 22 93 66t87 96q31 43 71 116.5t36 79.5h-3q-11 0 -100 -45t-133 -75q-53 -36 -104 -83.5t-66 -74.5z" />
<glyph unicode="H" horiz-adv-x="1101" d="M82 899q-4 9 -4 25t5 40q10 46 32 83q56 97 167.5 219.5t217.5 201.5q184 140 281 140q65 0 91 -62q9 -21 9 -55q0 -60 -28 -161q-44 -158 -200 -580q-83 -223 -86 -242q-4 -18 0 -21t27 0q29 5 198 38.5t185 37.5q5 2 15.5 24t19.5 50q45 124 57 158q5 14 36 100t48 131 q78 216 144.5 376t88.5 187q19 21 55 11q26 -8 22 -24q-1 -2 -3 -5q-11 -19 -189 -499q-175 -473 -175 -484q0 -1 57 6q34 5 70 5q15 0 31 -1q54 -3 75 -14q24 -12 10 -17q-13 -3 -41 2q-13 2 -36 2q-32 0 -83 -4q-87 -7 -94 -16q-6 -4 -47.5 -145t-68.5 -244 q-33 -128 -43 -196q-7 -51 -7 -109q0 -18 1 -37l6 -94h-21q-22 0 -35 20q-36 52 -36 149q0 64 16 148q29 175 102 406q21 75 21 82q0 2 -4 2q-15 0 -86 -15q-143 -29 -205 -41q-116 -18 -125 -22q-18 -4 -107 -326q-56 -201 -62 -295q-3 -45 -13.5 -59.5t-32.5 -5.5 q-18 6 -30.5 36t-12.5 66q0 103 104 471q29 100 29 104q0 1 -59 5q-83 0 -153.5 21.5t-92.5 53.5q-14 19 -13.5 26t15.5 7t27 -20q11 -22 36 -33q29 -13 91 -23q52 -8 92 -8h16l53 4l56 168q4 10 66 187t97 272q92 254 117 332q23 73 23 107v5q-3 23 -7 27t-26 4 q-73 -1 -220.5 -115.5t-258.5 -253.5q-81 -102 -117.5 -168.5t-48.5 -132.5q-5 -28 -16.5 -31.5t-22.5 19.5z" />
<glyph unicode="I" horiz-adv-x="489" d="M84 907q-3 7 -3 18q0 20 9 56q40 152 252 367q158 154 306 216q68 28 115 29q55 0 79 -39q14 -20 14 -66q0 -34 -8 -82q-19 -112 -76 -263q-23 -72 -166 -428q-168 -421 -221.5 -591t-56.5 -286q-1 -62 -4.5 -73t-18.5 -13q-24 -3 -45 21q-23 23 -27 58q-1 9 -1 21 q0 33 8 87q44 284 413 1194q130 324 133 395l2 37h-38q-57 -3 -150 -55.5t-176 -129.5q-116 -108 -201 -237t-98 -219q-6 -31 -17.5 -36t-23.5 19z" />
<glyph unicode="J" horiz-adv-x="987" d="M0 -178q0 200 113 438q49 104 114.5 186t122.5 111q35 17 71 17q12 0 24 -2q49 -7 87 -42q20 -18 23 -47.5t-12 -42.5q-9 -7 -17 -7q-18 0 -26 42q-7 49 -56 63q-15 4 -29 4q-34 0 -67 -24q-148 -109 -252 -393q-60 -166 -60 -298q0 -38 5 -73q19 -111 69 -136 q16 -8 39 -8q46 0 117 34q215 104 393 405q44 72 123.5 232t116.5 251q114 282 179 590q42 202 42 312q0 59 -12 92q-6 25 -33 47q-15 10 -25.5 11t-41.5 -5q-39 -9 -93.5 -34t-87.5 -48q-98 -72 -195.5 -191t-144.5 -225q-23 -48 -36.5 -95.5t-8.5 -59.5q4 -13 -11 -13 q-17 1 -28 13q-7 9 -7 26q0 35 28 102q43 102 115 199q50 66 128.5 146t125.5 112q104 71 197 89q29 6 54 6q55 0 91 -27q43 -31 62 -105q13 -53 13 -121q0 -29 -2 -61q-28 -443 -299 -977q-143 -280 -273.5 -439t-283.5 -238q-104 -55 -183 -55q-35 0 -65 11 q-104 36 -104 228z" />
<glyph unicode="K" horiz-adv-x="878" d="M52 895q30 101 132 244q47 67 170 193.5t185 172.5q50 37 102.5 63.5t77.5 26.5q92 0 92 -125v-8q-3 -78 -51 -234.5t-166 -469.5q-105 -280 -105 -287q0 -8 27 -20q21 -7 35.5 -1t73.5 46q137 94 294 259t287 353q48 66 119.5 190t108.5 201q19 40 29 55t18 13 q15 -3 15 -25q0 -24 -17 -70q-32 -89 -110.5 -223t-174.5 -260q-138 -183 -288.5 -328t-276.5 -217q-40 -19 -47 -26q14 -20 34 -43q33 -36 49 -73t48 -152q39 -136 97 -231t112 -105q55 -12 55 -23q-1 -7 -24.5 -6.5t-55.5 8.5q-59 17 -114.5 75.5t-96.5 147.5 q-21 44 -34 83t-42 143q-15 55 -36.5 102t-32.5 47q-4 0 -54 -20q-31 -15 -41 -28q-14 -20 -57 -147q-11 -32 -18 -51q-45 -133 -60 -199q-11 -50 -12 -87q0 -12 2 -23q2 -13 2 -24q1 -30 -13 -40q-18 -12 -50 21q-16 18 -21 32.5t-6 51.5q-1 13 -1 25q0 47 9 94 q11 60 45 168q4 13 11 35q31 96 31 113q0 10 -21 15q-5 0 -8 1q-32 4 -54 21t-22 36q0 26 34.5 48.5t110.5 45.5q17 6 29 29.5t49 122.5q86 232 111 295q137 345 179 487q25 84 25 123q0 26 -12 31q-14 5 -55 -12.5t-86 -47.5q-55 -34 -180 -159q-75 -77 -115.5 -124 t-75.5 -102q-131 -195 -131 -275v-7q3 -37 -10 -37q-33 0 -33 39q0 21 9 53zM295 348q23 0 28.5 6t16.5 39q14 44 14 51q0 5 -12 5q-23 0 -49 -13q-58 -29 -58 -58q0 -30 60 -30zM463 412q0 -23 29 0q9 8 9 10t-9 6q-2 0 -6 1t-5 1q-7 0 -12.5 -5t-5.5 -13z" />
<glyph unicode="L" horiz-adv-x="1286" d="M78 -102q9 100 120 134q47 14 104 14q77 0 173 -26l57 -16l21 29q26 31 70.5 112t70.5 140q31 71 99 257q65 178 65 188q0 4 -78 -34q-106 -50 -202 -72q-58 -13 -103 -14q-30 0 -55 6q-22 5 -41 14.5t-28 19.5t-3 16q4 4 35 -7q23 -10 57 -14q9 -1 20 -2q51 0 139 25 q106 29 183 71q77 43 96 65.5t50 108.5q97 279 189.5 439.5t193.5 224.5q41 24 78 27q31 0 49 -15q24 -15 26 -52v-10q0 -34 -14 -78q-16 -51 -49 -114t-77.5 -130t-103 -138t-122.5 -135l-78 -78l-55 -154q-117 -324 -195 -483q-30 -59 -73.5 -127t-67.5 -94 q-17 -21 -13 -21q7 -7 116.5 -38.5t164.5 -42.5q72 -15 129 -15q144 0 191 98q17 37 33 37q11 0 22 -20q9 -16 7.5 -23.5t-15.5 -31.5q-30 -38 -68 -58q-34 -19 -56 -22q-16 -2 -71 -2h-41q-86 0 -120.5 4t-100.5 22q-57 15 -156 47l-57 21l-37 -35q-96 -94 -199 -136 q-68 -28 -124 -28q-29 0 -56 8q-101 28 -101 122q0 8 1 16zM115 -115q1 -69 49 -91q20 -9 44 -10q35 0 81 19q46 20 102.5 61t89.5 79l35 39l-37 10q-95 31 -162 31h-12q-27 0 -45 -5q-70 -10 -107.5 -45t-37.5 -88zM1044 932q0 -1 1 -1q9 0 94 96q9 9 18 20 q141 163 217 325q22 45 28.5 69.5t8.5 63.5q0 59 -10 62h-2q-5 0 -22.5 -12.5t-35.5 -30.5q-92 -89 -184 -299q-31 -71 -72 -177t-41 -116z" />
<glyph unicode="M" horiz-adv-x="1394" d="M112 820q24 82 83 186q107 186 276 358q193 191 293 191q19 0 35 -7q17 -7 27 -18.5t13.5 -35t0 -54.5t-16.5 -82t-32.5 -111.5t-52 -150.5t-71 -191.5t-92.5 -240.5q-50 -128 -108 -291q-37 -101 -84 -251q-43 -139 -43 -153q0 -13 59 115q56 120 148 328 q286 645 391 815q35 61 110.5 162t102.5 127q71 66 120 66q32 0 56 -28q16 -20 19 -30.5t0 -38.5q-14 -109 -201 -535q-2 -4 -54 -124t-75 -175q-18 -40 -38.5 -86t-34.5 -77t-17 -37q-21 -37 -13 -37q3 0 45 72q42 75 99 182q64 120 191 316.5t196 281.5q78 96 146 134 q38 21 68 22q23 0 42 -13q14 -11 18 -29q1 -4 1 -10q0 -18 -9 -56q-12 -48 -37.5 -119t-75.5 -202q-322 -837 -322 -1093q0 -43 9 -70q3 -8 6.5 -19t5 -17t2.5 -7q0 -15 -28 -1q-11 6 -21 15q-56 47 -56 180q0 158 79 439q121 429 301 813q65 138 65 152q0 3 -6 3 q-16 0 -70 -48q-64 -58 -121.5 -130.5t-170.5 -246.5t-156 -254q-15 -27 -52.5 -95.5t-51.5 -95.5q-71 -130 -110 -180q-33 -43 -55 -42q-4 0 -7 1q-12 4 -9.5 29.5t25.5 124.5q42 165 116 361.5t234 561.5q63 148 63 173q0 4 -1 5q-2 2 -6 2q-15 0 -55 -32 q-50 -41 -99 -101q-109 -138 -209 -333.5t-317 -692.5q-233 -531 -263 -555q-14 -12 -35.5 -5t-29.5 26q-8 24 -8 61q0 90 47 262q33 122 105.5 318t248.5 635q72 182 96.5 255.5t24.5 110.5v29l-31 -12q-98 -41 -219.5 -161.5t-222.5 -277.5q-52 -80 -101 -189t-49 -144 q0 -31 -28 -19q-14 5 -14 29q0 23 11 62z" />
<glyph unicode="N" horiz-adv-x="1153" d="M69 804q0 51 40 132q33 67 72 123t104 127q153 166 329 268q121 70 183 70q29 0 45 -15q18 -14 18 -52.5t-18 -100.5q-17 -60 -43 -125.5t-94 -216.5q-259 -581 -318 -754q-25 -70 -25 -76l87 168v1l1 1v1l1 1v1h1v1l1 1v1l1 1v1l1 1v1l1 1v1l1 1v1l1 1v1l1 1v1l1 1v1 l1 1v1l1 1v1l1 1v1l1 1v1l1 1v1l1 1v1l1 1v1l1 1v1l1 1v1l1 1v1l1 1v1l1 1v1l1 1v1l1 1v1l1 1q139 275 249 454t261 374q59 76 173.5 188.5t154.5 136.5q45 25 91 28q5 0 10 1q38 0 59 -20q34 -31 33 -105q0 -50 -14 -119q-38 -172 -187 -546q-142 -353 -193 -503.5 t-68 -266.5q-7 -50 -8 -95q0 -59 13 -110q5 -15 1.5 -19t-20.5 -4q-23 0 -53 15q-34 17 -42 42q-6 18 -6 62q0 17 1 37q6 167 110 461q19 55 28 82t23 65.5t18 49l20 52.5t22 56.5t32 80.5t42 105q129 330 171 483q22 81 22 123q0 37 -17 43q-2 1 -5 1q-18 0 -68 -32 q-58 -37 -111 -87q-140 -131 -304 -362t-301 -492q-94 -181 -198 -414q-23 -50 -58.5 -126t-40.5 -87q-19 -38 -36 -49.5t-43 -3.5q-14 5 -16 16q-1 4 -1 16q0 17 2 48q12 176 125 464q34 89 127.5 303t153.5 341q155 323 155 389q0 16 -10 16q-13 0 -78 -33 q-137 -69 -283.5 -210t-222.5 -277q-27 -43 -45 -99q-16 -50 -16 -79v-6q2 -19 -1 -25.5t-15 -7.5q-5 -1 -9 -1q-33 1 -33 47z" />
<glyph unicode="O" horiz-adv-x="1007" d="M123 268q2 120 12.5 191t40.5 159q12 34 12.5 47.5t-8.5 41.5q-14 45 -14 112q0 42 6 93q14 131 55 233q47 118 125.5 214.5t169.5 149.5q68 40 126.5 55t146.5 15q72 0 94.5 -4t62.5 -25q51 -25 107 -82t84 -114q47 -97 48 -248q0 -111 -26 -250q-31 -166 -69 -284 t-105 -253q-78 -163 -189.5 -296t-211.5 -183q-46 -23 -107 -27q-12 -1 -23 -1q-48 0 -91 14q-126 44 -193 162q-35 60 -44 108t-9 172zM223 303q-2 -34 -2 -65q-1 -122 33 -214q42 -116 129 -159q35 -18 71 -19q5 0 10 1q41 3 97 32q85 41 188 156.5t175 249.5 q139 257 198 557q32 165 32 282q0 63 -10 112q-26 140 -145 249q-30 28 -51 41t-53 22q-56 17 -78 17q-25 0 -88 -13q-76 -17 -134 -48.5t-114 -86.5q-55 -53 -84.5 -95t-66.5 -114q-43 -88 -68 -188q-24 -96 -24 -176v-6v-58l30 60q37 70 64 107t71 81q105 105 202 105h5 q44 -2 74.5 -14t30.5 -29q0 -12 -19 -7q-43 12 -62.5 10t-53.5 -22q-78 -44 -150.5 -147.5t-126.5 -247.5q-17 -45 -18 -59t8 -33q15 -30 67 -82q31 -31 47 -42t31 -12q25 0 25 -8q0 -6 -15 -7.5t-36 1.5t-37 10q-13 5 -72 52q-41 40 -45 36q-6 -6 -18 -87t-17 -142z" />
<glyph unicode="P" horiz-adv-x="673" d="M-246 772q10 95 112 232t256.5 267t307.5 206q212 108 414 108q52 0 106 -14q105 -31 162 -123q50 -80 50 -187q0 -15 -1 -30q-21 -263 -239 -490q-135 -141 -281 -211q-70 -36 -125 -50t-135 -19l-82 -6l-10 -35q-58 -217 -64 -363q-2 -42 -2 -69q-1 -22 1 -33 q2 -25 20 -64q17 -44 17 -58q0 -3 -1 -5q-4 -8 -35 -8q-33 0 -57 28q-57 60 -57 202q0 135 51 343l24 99l-32 6q-31 3 -31 16q0 4 1 6t5.5 2.5t10.5 0t18 -2.5l37 -4l38 131q34 112 141 408t138 366q8 16 14 30.5t9 23t2 8.5q-7 0 -76 -37t-107 -62q-206 -132 -371.5 -326 t-177.5 -317q-5 -39 -13 -45.5t-28 13.5q-11 13 -11 42q0 9 1 21zM318 503q3 -3 28 -3q26 0 96 16q95 25 185.5 83t191.5 161q129 130 189.5 254t68.5 272q1 16 1 31q0 53 -8 87q-10 44 -42 81q-31 37 -72 53q-39 15 -100 14h-8q-72 0 -138.5 -14t-66.5 -29q0 -8 -94 -288 q-220 -652 -230 -695q-4 -20 -1 -23z" />
<glyph unicode="Q" horiz-adv-x="1009" d="M160 256.5q0 117.5 12 185.5q8 49 35 146q15 58 16 76t-8 61q-12 55 -12 103t12 122q22 145 90 273q36 71 76.5 122.5t101.5 104.5q76 64 167 98.5t181 34.5q95 0 175 -41q60 -31 120.5 -109.5t85.5 -156.5q18 -59 18 -151q0 -86 -16 -201q-32 -237 -110 -437 q-69 -179 -144.5 -303.5t-175.5 -226.5l-53 -53l25 -13q33 -17 72 -19h7q34 0 60 13q30 16 49 16q14 0 21 -10q7 -7 7 -15q0 -18 -42 -36q-24 -9 -52 -9q-51 0 -118 30l-49 24l-49 -30q-38 -23 -84 -38q-43 -14 -70 -14h-4q-4 0 -14.5 2t-25 4.5t-24.5 4.5q-208 53 -268 278 q-12 47 -12 164.5zM262 287q-1 -23 -1 -44q0 -159 40 -243q51 -107 128 -140q32 -14 67 -14q49 0 104 27q52 28 56 39t-31 33q-36 25 -97 41q-58 15 -58 22q0 4 17 4q21 0 73 -19t85 -38l39 -25l37 33q83 72 156 178q139 194 231 487q83 268 83 473q0 20 -1 40 q-3 96 -19 145q-20 68 -84.5 146.5t-119.5 103.5l-113 20q-112 0 -219 -55q-47 -25 -109.5 -82.5t-97.5 -107.5q-68 -100 -110 -229.5t-42 -241.5l3 -60l30 60q102 193 234 262q45 25 94 28h13q41 0 71 -16q32 -16 33 -27q0 -15 -40 -5l-16 5q-18 6 -29 4t-36 -14 q-82 -40 -161 -151.5t-132 -259.5l-23 -64l33 -49q29 -44 66 -74t63 -30q25 0 24 -9q0 -7 -16 -12q-6 -2 -14 -2q-21 0 -53 14q-44 20 -78 52q-42 42 -45 38q-7 -7 -19.5 -92.5t-15.5 -150.5z" />
<glyph unicode="R" horiz-adv-x="980" d="M-219 794q17 70 74 156q79 123 233 265t297 225q118 67 241.5 104t227.5 37q87 0 143 -22q103 -39 153 -137q36 -70 35 -158q0 -34 -5 -70q-22 -167 -124 -320t-270 -274q-114 -81 -225 -117q-43 -13 -121 -23q-52 -7 -80 -7q-13 0 -20 2q-18 5 -15 -5q5 -15 62 -69 q72 -72 145 -158q110 -130 188 -195.5t152 -90.5q26 -9 34.5 -16t8.5 -19q0 -14 -10.5 -19t-32 0.5t-51.5 20.5q-102 54 -284 268q-69 83 -128.5 143.5t-86.5 75.5q-3 1 -5.5 1.5t-5 -3t-5 -8t-5.5 -15t-6 -24t-8 -33.5q-26 -105 -32.5 -152t-8.5 -124q-1 -24 -1 -42 q0 -27 2 -42q3 -24 15 -55q19 -43 19 -64q-3 -11 -18 -15t-32 3q-18 6 -37.5 26.5t-31.5 46.5q-12 20 -16 45.5t-7 92.5q-1 22 -1 43q0 58 6 108q8 66 36 185q20 85 20 103q0 4 -1 5q-6 0 -33 19q-36 22 -17 29q15 6 56 -5q11 -3 20 25q41 143 156 466t156 412l28 64 l-30 -15q-144 -58 -355 -237q-147 -124 -249.5 -271t-104.5 -235q0 -29 -7 -34.5t-26 9.5q-18 14 -18 48q0 20 6 46zM338 496q4 -4 44.5 1.5t86.5 16.5q123 31 261.5 138t232.5 245q85 123 121 265q20 79 21 145q0 52 -13 94q-13 47 -51.5 88t-79.5 53q-27 6 -89 6 q-121 -4 -170 -20q-28 -7 -35.5 -14t-7.5 -21q-4 -40 -229 -694q-93 -270 -93 -300q0 -2 1 -3z" />
<glyph unicode="S" horiz-adv-x="1110" d="M64 -207q-6 15 -6 29q0 31 26 61q72 81 399 160q90 23 103.5 34.5t1.5 55.5q-21 79 -219 207q-96 63 -165 126t-91 107q-14 33 -18 81q-1 15 -1 28q0 32 6 63q25 114 119.5 266.5t222.5 284.5q115 119 231 186.5t206 67.5h5q76 0 125 -31q51 -32 66 -94q7 -31 7 -74 q0 -21 -2 -45q-6 -74 -25 -128q-49 -144 -133 -258.5t-138 -114.5q-27 0 -27 6q-1 6 27 26q1 0 2 1q46 31 112 129.5t101 189.5q38 101 38 182q0 60 -21 109q-15 36 -40 50q-22 13 -60 13h-11q-103 -2 -249 -127.5t-287 -334.5q-109 -165 -148 -291q-21 -67 -20 -118 q0 -46 16 -81q20 -43 77 -94t165 -123t154.5 -118.5t58.5 -96.5q11 -37 14 -37q19 0 151 37.5t171 54.5q60 24 143.5 78t110.5 84q19 24 24 17q1 -1 2 -5q2 -4 2 -8q0 -26 -53 -70q-62 -52 -166 -102q-81 -38 -235 -78l-150 -37l-10 -47q-22 -106 -102 -188.5t-195 -116.5 q-48 -14 -111 -14q-6 1 -12 1q-70 2 -109 19q-65 31 -83 78zM98 -206q16 -38 70 -60q25 -11 59 -12q41 0 95 18q134 45 202 147q22 34 39.5 69t23 57t-2.5 26h-2q-16 1 -122 -27q-112 -30 -167 -49q-60 -20 -114.5 -48.5t-67.5 -47.5q-18 -23 -18 -46q-1 -14 5 -27z" />
<glyph unicode="T" horiz-adv-x="512" d="M-92 1308q-2 9 -2 17q0 31 20 59q19 28 71.5 56t117.5 45q67 17 193 25q78 5 153 5q47 0 94 -2l131 -6l19 35q11 22 18.5 28.5t24.5 6.5q31 0 40.5 -9.5t6.5 -37.5l-2 -33l125 -6q53 -2 100 -3q226 0 328 52q20 10 55 41q31 29 52 30q16 0 26 -18q13 -20 -15.5 -47 t-85.5 -50.5t-121 -33.5q-63 -11 -210 -11q-34 0 -72 1l-203 4l-27 -76q-71 -203 -170 -462q-142 -377 -219 -656q-61 -212 -62 -343q0 -12 1 -23q1 -18 1 -31q0 -35 -9 -39q-12 -4 -15 -4q-8 4 -18 8q-20 8 -38.5 32t-22.5 50q-3 15 -3 42q0 28 4 72q6 84 19 150 q13 64 51 196t72 234q38 115 158 426t155 387l21 47l-29 7q-26 3 -83.5 3t-145.5 -3q-194 -2 -262 -21q-92 -25 -146.5 -63t-54.5 -78q0 -21 -15 -25q-21 -8 -26 22z" />
<glyph unicode="U" horiz-adv-x="1028" d="M55 864q-13 9 -13 30q0 41 50 128q75 130 203 258q94 92 195 155.5t184 82.5q32 6 46 5t36 -12q37 -17 48 -39t11 -77q0 -61 -21.5 -132t-82.5 -204q-218 -483 -312.5 -719.5t-111.5 -343.5q-7 -40 -7 -65q0 -28 8 -37q5 -6 15 -6q19 0 55 24q72 50 160 184.5t240 427.5 q277 529 401 725q61 95 123 203q58 97 68 102q9 3 28 -12l21 -16l-19 -64q-22 -72 -129 -346q-223 -577 -292.5 -795.5t-71.5 -340.5q0 -87 4 -103q3 -9 -9 -10q-22 -1 -44 16q-26 25 -34 55q-7 27 -7 84v15q0 109 32 239t127 400q41 121 105.5 288t83.5 201q7 14 4 14 q-2 -1 -4 -3q-30 -30 -248 -455q-243 -471 -304 -580.5t-126 -187.5q-87 -105 -155 -105q-20 0 -38 9q-52 22 -71 75q-9 23 -9 96t9 117q22 111 133 379.5t274 599.5q71 148 100 223.5t29 114.5q0 20 -3.5 24.5t-22.5 4.5q-32 -2 -102.5 -33t-127.5 -69q-87 -60 -181 -163.5 t-150 -201.5q-27 -47 -46.5 -92.5t-19.5 -63.5q0 -26 -31 -4z" />
<glyph unicode="V" horiz-adv-x="704" d="M-59 905q-11 10 -11 34q0 43 38 133q58 140 149 253q63 78 145.5 135.5t140.5 63.5q8 1 16 1q30 0 59 -14q37 -18 52 -49q15 -34 16 -96q0 -43 -8 -100q-18 -139 -87 -424q-51 -201 -76 -331t-47 -302q-16 -129 -20 -231q-1 -27 -1 -47q0 -56 8 -60q20 0 99 159t264 572 q184 413 345.5 658t281.5 296q22 9 53.5 11.5t32.5 -6.5q0 -9 -58 -35q-221 -109 -526 -760q-42 -91 -115 -252q-177 -409 -242 -539t-102 -149q-22 -10 -30 -10t-33 10q-27 10 -45 39q-31 51 -36 179q-1 24 -1 49q0 110 18 245q24 170 45.5 270.5t85.5 329.5 q110 394 110 499q0 7 -1 13q-4 43 -31 43q-22 0 -66.5 -23t-87.5 -57q-93 -68 -191 -222.5t-112 -250.5q-4 -31 -11.5 -38.5t-20.5 3.5z" />
<glyph unicode="W" horiz-adv-x="1486" d="M164 842q0 71 72 193t180.5 239t204.5 174q128 75 204 75l1 -1q76 0 83 -76q1 -6 1 -12q0 -46 -32 -134q-36 -100 -161 -382q-161 -371 -180 -420q-37 -94 -76 -216.5t-49 -181.5q-9 -58 -11 -104.5t7 -48.5q9 0 43.5 27.5t54.5 50.5q48 54 124.5 186.5t231.5 425.5 q92 173 120 222.5t87 137.5q78 116 104.5 145t43.5 23q36 -12 36 -70q0 -13 -2 -27q-9 -82 -77 -292q-181 -552 -203 -743q-6 -41 -6 -86q0 -17 1 -34q3 -63 15 -89q8 -20 28 -19q47 0 159 110q13 12 26 26q100 105 217.5 299t212.5 413q189 437 201 697q2 40 2 65 q1 21 -1 31q-2 24 -18 61q-18 48 -13 52q2 2 7 2q25 0 56 -60q16 -32 18 -114v-28q0 -67 -10 -132q-38 -226 -153.5 -509t-265.5 -526t-284 -358q-65 -56 -114 -68q-15 -4 -30 -4q-34 0 -69 19q-88 50 -88 256q0 133 68 389.5t168 505.5q47 117 47 131q0 2 -1 2h-1 q-57 -48 -295 -516q-149 -292 -212 -401.5t-114 -165.5q-47 -48 -74.5 -62.5t-60.5 -5.5q-31 9 -48 30t-24 62q-8 36 -8 81q0 133 70 339q93 276 350 801q109 231 109 246q0 12 -4.5 16t-18.5 4q-25 0 -81.5 -26t-104.5 -58q-115 -78 -238.5 -244t-163.5 -297 q-22 -73 -28 -73q-9 0 -21 17t-12 30z" />
<glyph unicode="X" horiz-adv-x="1157" d="M78 -76q4 8 45 4q27 -4 40.5 -0.5t43.5 17.5q113 57 241.5 194t286.5 369q60 86 75.5 114.5t12.5 45.5q-11 70 -53 583q-24 266 -88 318q-8 7 -21 7q-25 0 -69 -26q-67 -38 -127 -106q-96 -107 -166.5 -250t-81.5 -252q-3 -34 -6 -43.5t-12 -9.5q-15 0 -25 29 q-4 13 -4 31q0 54 38 156q52 136 130 243q66 93 144.5 161.5t140.5 85.5q22 6 42 6q49 -1 86 -37q52 -52 91 -188t76 -389q7 -52 11.5 -79.5t8.5 -47t6.5 -24.5t5.5 -2q6 4 148 241q114 195 178 293q66 95 151 165.5t134 70.5q36 0 6 -23q-17 -12 -47 -27 q-47 -25 -102.5 -76.5t-98.5 -111.5q-49 -72 -135 -217q-41 -68 -168 -283l-72 -118l23 -179q41 -342 81 -486.5t109 -201.5q41 -36 41 -47q0 -9 -12.5 -10.5t-34 5t-45.5 19.5q-46 24 -74 52q-57 56 -105 203.5t-79 363.5q-4 26 -8.5 50t-8 36.5t-4.5 11.5q-6 -3 -59 -82 q-64 -95 -147.5 -203t-139.5 -167q-97 -106 -193 -167q-87 -56 -142 -56q-5 0 -11 1q-19 3 -33.5 8.5t-21 12t-2.5 12.5z" />
<glyph unicode="Y" horiz-adv-x="1120" d="M-86 836q-1 7 -1 16q0 86 87 266q42 84 67.5 125t75.5 105q112 145 242 211q67 34 106 37q5 1 9 1q33 0 55 -22q13 -13 16.5 -27t3.5 -51q0 -69 -26 -162t-137 -420q-76 -226 -99 -331q-13 -60 -13 -102q0 -32 7 -54q8 -27 20 -35.5t32 -2t55 29.5q121 80 270 319 q127 204 195 359q66 147 139.5 294.5t93.5 170.5q17 20 27.5 26t27.5 6q26 0 44.5 -16t19.5 -41q1 -6 2 -22t2 -21v-9q0 -34 -11 -144q-13 -126 -24 -187q-15 -93 -57.5 -278.5t-67.5 -268.5q-78 -266 -153 -448q-63 -155 -155.5 -282t-186.5 -189q-84 -54 -178 -73 q-42 -8 -78 -8q-46 0 -84 13q-42 15 -66 32.5t-41 47.5q-25 46 -25 97v16q5 59 44 141q33 68 103 139q39 38 53 38q6 0 7 -7q0 -4 -8 -12q-13 -7 -61.5 -76t-67.5 -107q-28 -55 -31 -116v-14q0 -51 19 -85q34 -63 104 -73q12 -2 26 -2q60 0 134 36q82 40 154 124t147 227 q62 121 150 366q61 168 99 304.5t85 361.5q20 87 51 275q28 161 28 187q0 4 -1 5q-4 4 -29.5 -35.5t-50.5 -87.5q-44 -91 -98 -213q-114 -256 -205 -410q-178 -307 -311 -393q-33 -23 -50.5 -29t-50.5 -6q-49 0 -76 19q-55 36 -62 125v25q0 85 35 223q41 161 138 438 q117 323 117 368q0 11 -13 11q-16 0 -52 -17q-19 -9 -42 -22q-51 -28 -121 -97t-114 -135q-45 -64 -95 -169.5t-71 -178.5q-21 -69 -21 -120v-13q3 -34 1 -43.5t-11 -9.5q-19 0 -31.5 21.5t-15.5 58.5z" />
<glyph unicode="Z" horiz-adv-x="1505" d="M82 -119q0 20 26.5 44.5t67.5 43.5q49 23 126 29q23 2 46 2q52 0 101 -10l59 -13l33 25q89 67 272 251t332 355q158 184 357 442t265 363q29 46 33 80l4 35h-45q-53 0 -135 -25t-272 -98q-196 -74 -262.5 -96t-171.5 -49q-104 -26 -182 -26q-122 0 -175 64q-24 26 -30 49 q-4 15 -4 42q0 13 1 30q2 42 27 84q21 30 36 38.5t34 2.5l18 -8l-22 -47q-22 -48 -25 -100q-1 -8 -1 -16q0 -59 34 -83q30 -22 94 -22q16 0 35 2q56 4 170 33.5t207 62.5q146 52 278 102q259 93 348 93q63 0 92 -33q21 -23 21 -59q0 -15 -4 -31q-23 -102 -217.5 -376.5 t-435.5 -545.5q-104 -118 -266.5 -277t-241.5 -223l-35 -28t-27 -22.5t-18.5 -16t-5.5 -6.5q6 -6 130 -46t167 -49q75 -17 157 -17q26 0 53 2q111 7 173 38q98 52 137 106q27 39 49 39q32 0 28 -33q-4 -30 -36 -65q-30 -35 -96.5 -71t-124.5 -50q-63 -15 -145 -15t-157 15 q-91 19 -258 80q-115 39 -118 39q-9 0 -62 -29q-137 -79 -250 -88q-17 -1 -32 -1q-45 0 -72 7q-31 9 -57.5 32.5t-26.5 43.5zM123 -125q-1 -33 41 -41q12 -3 28 -2q35 0 82 14q38 12 111.5 53t73.5 50q0 18 -97 18q-94 0 -141 -18q-40 -15 -69 -37t-29 -37z" />
<glyph unicode="[" horiz-adv-x="430" d="M131 -424q11 165 197 735q41 121 133 414q58 177 87.5 249.5t47.5 82.5q10 6 85.5 13.5t92.5 4.5q23 -5 25 -16q1 -4 -2 -6q-3 -6 -70 -21l-65 -14l-25 -84q-20 -74 -174 -561q-236 -734 -236 -799q0 -10 58 -10q60 3 69 -6q10 -10 6 -15q-7 -7 -159 -26q-28 -3 -51 8 q-14 6 -17 15t-2 36z" />
<glyph unicode="\" horiz-adv-x="598" d="M131 1167q9 9 33.5 2.5t30.5 -18.5q28 -53 236 -777t212 -784q2 -19 -1 -24.5t-13 -5.5q-12 -3 -35 6q-19 9 -53.5 114.5t-143.5 483.5q-281 988 -266 1003z" />
<glyph unicode="]" horiz-adv-x="421" d="M-170 -453q22 11 72 19l65 14l23 84q49 167 176 561q235 734 235 799q0 13 -59 10t-70 8q-10 10 -6 13q6 6 160 26q31 4 51 -6q14 -8 17 -17t2 -36q-4 -87 -48 -249.5t-147 -483.5q-101 -308 -135 -416q-56 -176 -85.5 -248.5t-47.5 -81.5q-12 -6 -87.5 -14.5t-92.5 -5.5 q-12 3 -19.5 10.5t-3.5 13.5z" />
<glyph unicode="^" horiz-adv-x="432" d="M201 473q-11 11 26 80q28 52 64 111q9 13 33.5 51.5t33.5 52.5q14 23 30.5 41t21.5 18q32 0 54.5 -27t41.5 -89q9 -31 26 -127.5t17 -118.5q0 -47 -55 -25q-16 8 -27 19q-22 25 -45 207q-11 77 -16 77q-6 0 -50.5 -64.5t-85.5 -133.5q-16 -28 -26.5 -44.5t-18.5 -24.5 t-13.5 -8t-10.5 5z" />
<glyph unicode="_" horiz-adv-x="782" d="M90 41q0 13 59 17.5t283 7.5q234 3 276 1t60 -16q48 -36 -8 -45q-36 -6 -318.5 -9.5t-298.5 1.5q-17 6 -35 20.5t-18 22.5z" />
<glyph unicode="`" horiz-adv-x="294" d="M279 586q0 9 4.5 12.5t19.5 3.5q22 0 38.5 -20t45.5 -82q34 -72 20 -78q-7 -3 -26 4q-23 9 -62.5 70.5t-39.5 89.5z" />
<glyph unicode="a" horiz-adv-x="694" d="M68 86q-5 21 -5 46q0 32 8 68q15 65 52 124q23 40 59 62t76 22q31 0 47 -8.5t29 -34.5l12 -25l14 25q17 25 31.5 34t34.5 9q28 2 28 -22q0 -21 -20 -73q-58 -149 -65 -279q-1 -16 -1 -30q0 -100 44 -106h3q23 0 77 36q58 38 108 89q111 111 244 272q23 29 31.5 26 t-13.5 -32q-27 -36 -113.5 -139.5t-125.5 -143.5q-37 -40 -90.5 -81t-86.5 -54q-20 -8 -41 -8q-30 0 -63 16q-19 9 -31 21t-22 34q-12 26 -15 48q-2 11 -2 32.5t2 51.5q8 97 11 114q2 5 0 5q-8 -1 -25 -33q-60 -96 -86 -120q-16 -14 -36 -15q-12 0 -25 6q-33 14 -45 63z M154 59l20 25q20 24 82 119q41 66 48 83.5t1 39.5q-12 47 -31 47q-39 -3 -86 -168q-23 -75 -28 -113z" />
<glyph unicode="b" horiz-adv-x="913" d="M86 86q0 213 166 600q58 134 90.5 201t87.5 162q111 193 193 286q38 42 79.5 66t75.5 26q31 0 49 -18q18 -20 18 -61q0 -52 -28 -136q-51 -152 -166 -339.5t-245 -323.5q-67 -73 -113 -109q-24 -17 -33.5 -36.5t-36.5 -106.5q-37 -122 -37 -133q0 -3 9 7t24.5 31t32.5 46 q125 180 180 207q24 14 64 14q25 0 36 -4t23 -19q22 -25 23 -79q0 -65 -33 -170q-3 -11 2 -11l28 9q37 14 169 52q132 37 249 69q110 30 118 30h1q2 -4 0.5 -7.5t-17 -10t-38 -14t-62.5 -19.5q-362 -108 -446 -137q-21 -7 -68 -97q-59 -111 -148.5 -192.5t-160.5 -87.5 q-38 -4 -57 4q-18 7 -29 33q-4 12 -4 25q0 18 8 38q43 114 248 217q42 21 58.5 33.5t25.5 32.5q32 60 52 161q11 55 11 82q0 22 -8 25q-5 0 -25.5 -15t-41.5 -36q-46 -43 -111.5 -137t-112.5 -185q-36 -71 -57 -77q-25 -6 -34 15.5t-9 88.5zM119 -154q0 -18 8.5 -31.5 t19.5 -13.5q7 0 37 19q32 21 78 74t74 104q41 72 41 81q0 3 -4 3t-49 -25q-91 -47 -148 -106t-57 -105zM279 459q8 0 90 86q59 61 140.5 169t139.5 201q63 103 108 215t50 177q1 16 1 30q0 25 -4 41q-7 26 -22 25q-19 0 -64.5 -54.5t-88.5 -127.5q-61 -101 -133.5 -244 t-112.5 -242q-37 -89 -62.5 -153t-35 -93.5t-6.5 -29.5z" />
<glyph unicode="c" horiz-adv-x="673" d="M84 35q-2 21 -2 40.5t2 37.5q22 215 170 305q24 16 67 16h3q41 0 61 -14q26 -20 38 -66q5 -21 5 -37q0 -21 -8 -34q-16 -24 -26 21l-3 15q-4 29 -20.5 54.5t-30.5 25.5q-11 0 -45.5 -37t-46.5 -61q-66 -129 -66 -250q0 -45 19 -67q12 -17 21.5 -19.5t43.5 0.5 q67 6 147.5 53t282.5 199q97 73 131.5 95t46.5 18q2 0 -11 -12t-38.5 -33t-54.5 -43q-125 -93 -180 -142q-129 -106 -238 -151q-40 -17 -100 -19q-9 0 -18 -1q-47 0 -74 12q-26 11 -49 38.5t-27 55.5z" />
<glyph unicode="d" horiz-adv-x="817" d="M82 145q2 52 7 74.5t26 65.5q38 78 77.5 113.5t88.5 35.5q33 0 58.5 -18.5t25.5 -42.5q0 -37 23 23q10 24 24 67q57 167 159 385t172 323q71 105 118.5 148t94.5 43q58 0 64 -59q1 -7 1 -15q0 -60 -40 -178q-50 -145 -125 -266q-100 -151 -240 -297l-96 -101l-33 -108 q-79 -271 -79 -389q0 -75 21 -85q4 -2 10 -2q24 0 77 34q62 40 119.5 90.5t193.5 185.5q164 160 177 160q1 0 1 -1q-1 -10 -93 -106q-100 -104 -217.5 -216t-151.5 -134q-67 -43 -123 -43q-21 0 -41 6q-17 6 -27 16.5t-22 34.5q-21 40 -21 107q0 13 1 28q5 87 40 246 q3 18 2 19q-1 0 -8 -10q-29 -49 -81.5 -126.5t-65.5 -91.5q-22 -23 -52 -24.5t-49 18.5q-16 19 -16 90zM188 109q0 -10 35 35q16 20 45 59q49 64 61.5 86t10.5 43q-1 20 -11.5 37.5t-19.5 17.5h-4q-10 -6 -37.5 -64t-50.5 -124q-29 -85 -29 -90zM555 535q-3 -11 13 1 q44 34 133 147l32 42q91 122 142 218.5t83 209.5q17 63 19.5 112t-10.5 60q0 2 -4 2h-1q-22 -1 -76 -81q-55 -82 -122 -218q-38 -78 -119 -268.5t-90 -224.5z" />
<glyph unicode="e" horiz-adv-x="595" d="M70 78q-8 29 -7 62q0 52 19 114q46 144 135 184q33 11 49 11q34 2 55 -17.5t21 -54.5q0 -37 -17.5 -79.5t-43.5 -68.5q-18 -19 -30 -24.5t-34 -5.5q-35 0 -39 -11q-6 -6 -6 -73v-8q0 -103 52 -121q12 -4 27 -4q55 0 159 51q87 44 131 77t129 119q101 101 108 101 q1 0 1 -3q-1 -18 -91 -114q-100 -106 -160 -147q-116 -75 -200 -103q-47 -16 -87 -16q-48 0 -87 22q-64 33 -84 109zM193 227q5 -13 14 -12t29 18q32 25 48 79q10 34 11 60q0 16 -4 29q-2 8 -5 11t-8.5 0t-10 -7.5t-13.5 -15.5q-23 -24 -45 -84q-17 -47 -17 -68q0 -6 1 -10z " />
<glyph unicode="f" horiz-adv-x="571" d="M68 -246q-4 44 -4 91q0 100 20 214q16 98 16 130v8q0 28 11 39q9 6 20 55q17 68 64 205.5t86 236.5q102 244 200 391q120 176 185 176q25 0 41 -16q11 -12 13 -23t-1 -42q-17 -141 -116 -320.5t-228 -302.5q-35 -32 -46 -53t-36 -103q-32 -110 -47 -170l-15 -57l29 -25 q27 -21 70 -24q107 0 299 98q115 60 127 60q2 0 2 -1t-1 -2q-4 -6 -38 -28q-177 -117 -352 -144l-58 -10l17 -33q39 -78 39 -180q0 -25 -2 -52q-12 -134 -80 -237q-40 -60 -81 -79q-16 -8 -30 -8q-22 0 -39 18q-51 51 -65 188zM162 -256q-1 -20 -1 -37q0 -104 13 -119 q7 -10 14 -7.5t25 22.5q29 26 49 61q61 103 68 236v29q0 114 -47 192q-16 26 -41 26q-20 0 -28.5 -23.5t-31.5 -148.5q-18 -92 -20 -231zM342 598l27 25q7 7 69 79q104 128 172.5 272.5t69.5 242.5q4 41 -4 49h-2q-11 3 -39.5 -33.5t-63.5 -97.5q-106 -191 -202 -461z" />
<glyph unicode="g" horiz-adv-x="800" d="M-264 -774q-5 -33 14 -57q19 -23 46 -23q23 0 52 16q151 76 246 371q19 59 39.5 139t20.5 95q0 6 -4 6h-1q-17 0 -122 -117q-125 -137 -203 -252t-88 -178zM-254 -653q47 85 143 198q89 105 181 191l100 100l14 94q9 73 19 230q7 113 7 147q0 14 -1 15t-10.5 -11.5 t-25 -35.5t-32.5 -50q-84 -127 -147 -196q-25 -28 -60 -33h-13q-27 0 -48 16q-29 25 -29 84v11q3 68 39 147q34 72 86 113t109 41q32 0 58 -22t26 -50l2 -25l16 21q16 20 29 49q13 28 32 28q10 0 21 -7q36 -23 48 -92q0 -5 1 -9q6 -47 6 -150t-6 -157l-6 -57l57 38 q109 77 207 162t142 142q51 60 68 60q3 0 5 -1q4 -4 -7.5 -22t-37.5 -47.5t-61 -63.5q-132 -129 -283 -234l-94 -69l-20 -90q-20 -93 -61.5 -217t-74.5 -189q-105 -209 -245 -274q-36 -15 -58 -18h-10q-20 0 -53 7q-80 18 -80 88q0 54 47 138zM-66 39q0 -19 38 16 q16 14 34 35q46 50 78 103q41 59 43 100v13q0 36 -14 52q-14 17 -19 17h-2l-18 -8q-26 -14 -58.5 -78t-54.5 -146q-27 -98 -27 -104z" />
<glyph unicode="h" horiz-adv-x="755" d="M82 113q3 192 82 446q78 247 212.5 483.5t231.5 298.5q32 20 70 23q38 0 47 -18q11 -19 7 -46t-23 -90q-45 -141 -154 -326t-246 -358l-53 -63l-31 -129q-17 -68 -30 -132.5t-19 -101.5t-4 -39q1 -1 14 16.5t35 49t47 68.5q81 123 142 188q33 35 47.5 44t34.5 9 q30 0 49 -22q12 -15 14.5 -28.5t-0.5 -45.5q-8 -62 -35 -156q-40 -144 -50 -230q-3 -24 -4 -42q0 -47 19 -53q4 -2 9 -2q32 0 104 69q35 32 126.5 140.5t160.5 197.5q21 28 33 43.5t20.5 24.5t12 9.5t7.5 -1.5q1 -1 1 -2q0 -20 -164 -225q-152 -189 -224 -247 q-50 -40 -92 -40q-19 0 -37 8q-46 20 -64 69q-13 36 -13 95q0 20 2 43q3 50 12.5 90.5t38.5 122.5q41 124 41 137q0 11 -26 -19q-22 -26 -63.5 -83.5t-97.5 -141.5q-79 -118 -100.5 -144t-40.5 -28q-32 -3 -40.5 21.5t-8.5 116.5zM287 549q5 4 71 88q54 72 124.5 184.5 t107.5 184.5q37 74 64 151.5t32.5 121.5t-10.5 50q-17 0 -83 -103t-128 -225q-35 -70 -82 -182t-77 -194q-22 -61 -22 -73q0 -3 2 -3h1z" />
<glyph unicode="i" horiz-adv-x="460" d="M76 72q-1 10 -1 23q0 55 24 149q30 116 59 147q21 21 51 21q23 0 29 -13v-5q0 -24 -25 -128q-32 -128 -32 -197q0 -52 18 -71q10 -10 18 -11t33 7q101 37 274 213q112 114 131 116h1q2 0 2 -2q0 -10 -60 -75q-193 -213 -313 -273q-34 -17 -79 -17t-73 17q-49 30 -57 99z M223.5 625q8.5 29 30.5 55q21 27 53 27q15 0 25 -13q9 -10 1.5 -43.5t-24.5 -54.5q-13 -19 -42.5 -23t-41.5 11q-10 12 -1.5 41z" />
<glyph unicode="j" horiz-adv-x="501" d="M-874 -770q-2 9 -2 19q0 47 28 104q40 81 145 200t224 218l55 47l49 243q38 203 59 278.5t40 78.5q2 0 5 1t5 1q18 0 33.5 -7.5t21.5 -19.5q3 -6 3 -25q0 -64 -38 -276q-26 -141 -22 -141q3 0 88 65q85 66 184.5 146t136.5 112q59 49 73 49q5 0 5 -4q0 -9 -73 -76 t-142 -122q-272 -217 -289 -234l-37 -141q-72 -297 -180 -452q-107 -154 -241 -154h-2q-52 0 -80 14q-43 22 -49 76zM-834 -782q15 -41 38 -49q7 -2 15 -2q21 0 52 14q40 18 80 61q53 54 106.5 174.5t87.5 259.5q15 74 13 76q-12 -3 -103.5 -88.5t-130.5 -130.5 q-89 -103 -132 -189q-31 -61 -31 -99q0 -15 5 -27zM-276.5 594q0.5 10 8.5 39q12 38 23 50.5t34 12.5h14l31 -4v-43q0 -45 -14.5 -65.5t-46.5 -20.5q-34 0 -43 12q-7 9 -6.5 19z" />
<glyph unicode="k" horiz-adv-x="782" d="M76 71v22q0 76 12 147q66 380 262 759q124 242 221 320q43 35 68 47t59 14q68 0 72 -68q0 -4 1 -7q0 -68 -60 -209q-153 -357 -383 -596q-54 -55 -66 -74.5t-24 -69.5q-24 -87 -35 -163l-23 -119q-4 -12 34 42l38 54q191 293 270 311q23 6 47.5 -2.5t38.5 -27.5 q12 -15 13 -25t-7 -33q-13 -49 -72.5 -98.5t-127.5 -69.5q-29 -9 -33 -16t10 -29q14 -18 33 -110q11 -50 19.5 -82t17.5 -57.5t16.5 -38t18.5 -19t22 -6t27 5.5q78 25 172.5 121t189.5 248q52 80 66 84q9 2 5 -10q-8 -24 -108 -177q-124 -182 -241 -262q-32 -23 -50 -29 t-57 -8q-10 -1 -20 -1q-41 0 -62 11q-50 22 -87.5 98.5t-47.5 180.5l-6 59l-51 -82q-11 -19 -39 -63t-35 -57q-23 -38 -46 -38q-16 0 -32 17q-18 18 -20 106zM268 473l23 23q25 21 84 94q92 111 176.5 254.5t142.5 290.5q20 51 30 102q8 40 9 68q0 8 -1 16q-3 33 -19 33 q-12 0 -49.5 -38.5t-71.5 -84.5q-33 -44 -86 -148.5t-98 -208.5q-31 -75 -78 -205.5t-56 -168.5zM334 233q3 0 41 23q51 28 113 104q51 62 52 83q0 5 -3 8h-5q-10 3 -44 -24t-60 -60q-22 -26 -45.5 -57.5t-38 -54t-10.5 -22.5z" />
<glyph unicode="l" horiz-adv-x="559" d="M53 8q-1 17 -1 34q0 169 63 398q78 287 189 514t226 334q71 68 123 68q33 -3 56 -29q17 -16 17 -57q0 -40 -16 -104q-32 -129 -110.5 -288t-165.5 -270q-35 -44 -91.5 -101.5t-94.5 -88.5q-13 -10 -22 -43t-31 -152q-23 -129 -24 -227q0 -42 5 -78q15 -115 49 -127 q3 -2 8 -2q19 0 60 26q51 32 100 81q51 51 131 152t142 192q48 69 57 69q11 0 7 -10q-5 -14 -46 -78q-110 -171 -217 -297.5t-164 -152.5q-40 -17 -86 -17t-74 19q-83 55 -90 235zM254 461q7 0 68 65q137 142 243 355q71 143 104 271q18 69 18 110q0 34 -13 47q-12 8 -15 8 q-21 0 -75 -74q-67 -91 -145.5 -257t-135.5 -339q-16 -50 -28.5 -93t-18 -68t-2.5 -25z" />
<glyph unicode="m" horiz-adv-x="1028" d="M76 117q-2 20 -2 41q0 58 16 122q22 88 57 123q19 19 42 23.5t42 -6.5q3 -2 3 -11q0 -44 -66 -259l-25 -89q-3 -19 -1 -20q2 0 8 8q11 8 94 156q86 151 147 221t105 70q23 0 39 -19t16 -45t-20.5 -89.5t-49.5 -129.5q-25 -54 -23 -55q2 -2 18 17q9 12 40 50q33 43 86 94 t92 78q22 15 49 15q33 0 49 -10q14 -10 16 -41q0 -3 1 -7q0 -29 -11 -74q-12 -50 -40 -139q-60 -199 -60 -266q0 -17 4 -25q8 -19 22 -19.5t48 17.5q53 26 132.5 114t248.5 308q53 67 67 67q5 0 5 -9q0 -11 -66 -95q-149 -199 -231.5 -293t-132.5 -120q-39 -19 -81 -21h-9 q-36 0 -58 13q-29 18 -39 52q-9 30 -8 98v15q0 60 5 91.5t22 85.5q30 87 57 147q25 63 25 66q0 2 -4 1q-15 0 -69 -53q-63 -62 -124 -141q-60 -78 -81.5 -93t-41.5 7q-14 11 -14 82q0 90 63 236q12 27 9 28q-1 0 -13 -8q-55 -40 -174 -248q-67 -120 -88 -147t-43 -21 q-23 4 -35 29.5t-18 77.5z" />
<glyph unicode="n" horiz-adv-x="743" d="M76 70q-2 9 -2 21q0 37 16 109q20 96 45 142q21 40 59 56q16 6 30 6q20 0 36 -13q11 -7 10 -15t-14 -42q-14 -35 -29.5 -80.5t-25 -77t-8.5 -33.5q1 -1 3.5 2t6 9t6.5 14q11 29 72.5 118t97.5 132q59 66 107 66q6 0 12 -1q53 -9 53 -67q0 -55 -45 -199q-58 -195 -72 -271 q-6 -32 -5 -55q0 -33 11 -51q5 -7 15 -7q21 0 65 32q64 48 148 142t153 196q96 140 113 141q6 1 6 -12q0 -26 -132 -197t-210 -246q-53 -50 -85.5 -67t-72.5 -17q-36 0 -59 23q-37 40 -45 100q-2 15 -2 35q0 55 16 139q24 125 84 275q16 51 15 53q-2 6 -27.5 -19.5 t-58 -65.5t-54.5 -73q-35 -51 -92 -166q-43 -88 -62.5 -108.5t-45.5 -3.5q-8 5 -16 16t-9 21z" />
<glyph unicode="o" horiz-adv-x="641" d="M76 221q7 61 28 100.5t48 45.5q29 6 36 10t7 14q0 18 20 49t39 43q26 13 49 13q27 0 49.5 -17t32.5 -47q11 -29 11 -96q0 -15 -1 -33q0 -5 -1 -15v-23q0 -43 6 -51q8 -10 50 -11h8h13q79 0 162 27.5t153 78.5q41 29 45 25t-11.5 -18.5t-42.5 -33t-54 -32.5 q-70 -36 -130 -51t-134 -15q-60 0 -73.5 -3t-18.5 -15q-9 -31 -40.5 -75.5t-56.5 -61.5q-28 -19 -60.5 -24.5t-57.5 3.5q-81 35 -81 152q0 28 5 61zM174 153.5q0 -93.5 10 -106.5q11 -12 16 -12.5t27 10.5q29 15 62 57.5t45 79.5q3 12 -2.5 18.5t-28.5 16.5q-42 17 -72 55 l-36 37l-11 -30q-10 -32 -10 -125.5zM244 364q0 -39 18 -65q17 -26 48.5 -48t39.5 -13q8 8 8 94q0 57 -3 76t-13 34q-17 25 -39 25q-20 0 -39 -29q-20 -30 -20 -74z" />
<glyph unicode="p" horiz-adv-x="747" d="M-164 -787q-1 5 -1 14q0 23 3 71q10 171 53 387q76 393 160 618q31 83 52 107.5t53 15.5q15 -5 15 -33.5t-17 -97.5q-18 -85 -18 -97q0 -5 6 4l26 50q67 137 135 184q23 17 37 17q8 0 25 -7q28 -7 42.5 -28t22.5 -62q1 -7 1 -19q0 -25 -5 -69q-6 -65 -14 -88 q-4 -9 -2 -10t16 2q77 31 287 129q89 41 108 41q4 0 5 -1q2 -2 -11 -11q-8 -5 -22 -13q-29 -18 -146 -72t-188 -83q-40 -17 -50.5 -28t-33.5 -62q-43 -91 -105.5 -160t-109.5 -78q-24 -3 -51 7.5t-33 27.5q-6 24 -6 37v22l-9 -20q-20 -49 -61 -255.5t-59 -342.5 q-15 -107 -33 -125q-16 -19 -32 -19q-14 0 -28 17q-11 11 -12 30zM70 -57q0 -1 3.5 2t10 11t12.5 17q25 32 78 74q63 43 72 47q20 11 43 90q50 165 50 215q0 21 -9 21q-17 0 -61 -53.5t-70 -106.5q-25 -52 -77 -179.5t-52 -137.5zM104 -127q9 -17 18.5 -15t29.5 27 q19 24 57 95.5t35 76.5h-2q-10 0 -46 -28t-59 -54q-38 -46 -38 -79q0 -12 5 -23z" />
<glyph unicode="q" horiz-adv-x="677" d="M46 153q22 123 87 216q59 84 143 84q31 0 46.5 -9.5t25.5 -35.5l10 -23l15 18q19 39 48.5 45.5t47.5 -16.5t8 -59t-48.5 -137.5t-41.5 -112.5l-20 -57l26 -25q12 -10 34 -10q25 0 62 12q109 30 254 203q92 109 100 109v-1t-1 -4q-4 -10 -23 -39q-56 -83 -146.5 -169 t-148.5 -113q-60 -28 -83 -28q-4 0 -7 1q8 -11 19 -45q19 -41 19 -124v-21q-3 -98 -19 -202t-48 -204t-69 -149q-44 -61 -87 -80q-17 -8 -31 -8q-22 0 -38 18q-45 50 -49 189v30q0 126 29 275q25 131 70.5 300.5t72.5 241.5l27 72q-19 -23 -57.5 -90t-39.5 -68 q-69 -98 -97 -121q-18 -15 -37 -15q-12 0 -25 5q-34 17 -34 81q0 28 6 66zM119 43l24 27q16 16 90 118q46 64 67 112q18 39 18 61q0 6 -1 10q-9 45 -28 45q-18 0 -55 -70t-68 -156q-36 -103 -39 -114zM222 -636q-5 -60 -5 -98q0 -42 6 -57q8 -10 13.5 -8t27.5 21 q37 33 55 63q69 103 103 351q14 107 14 183q0 104 -26 154q-14 27 -37 27q-19 0 -27 -16q-8 -15 -39.5 -142t-54.5 -248q-19 -104 -30 -230z" />
<glyph unicode="r" horiz-adv-x="567" d="M122 482q20 72 62 106q23 20 49 20q2 -2 9 -2q17 -2 23 -3.5t13.5 -7t9.5 -16.5t3 -32q0 -10 -1 -20.5t-2 -17.5t-4 -17t-4.5 -14.5t-6.5 -15.5t-6.5 -14t-8.5 -16.5t-8 -15.5q-23 -54 -19 -58q4 -2 22.5 -2t51.5 2q70 0 78 -8q4 -4 4 -15q0 -26 -20 -91 q-53 -190 -65 -270q-5 -32 -4 -55q0 -36 11 -54q9 -10 15 -9t38 15q62 33 155.5 139.5t184.5 251.5q58 95 73 95q6 0 -1 -19q-14 -44 -119 -195.5t-166 -214.5q-65 -66 -105 -88q-30 -16 -61 -16q-12 0 -24 2q-63 9 -88 61q-14 30 -14 81q0 38 8 90q19 120 71 241 q6 11 -12 15q-8 1 -22 3q-38 6 -70.5 23t-46.5 37q-12 18 -12 46q-1 25 9 59zM197 436q0 -34 6 -33q7 2 26 62q20 63 20 88q0 12 -5 15l-2 1q-4 0 -6 -2q-14 -12 -26.5 -54t-12.5 -77z" />
<glyph unicode="s" horiz-adv-x="626" d="M-205 -176q0 39 17 63q15 25 62.5 59.5t98.5 57.5q41 20 49 30q8 11 8 41q0 19 -3 44q-2 13 -11 82q-9 87 -9 136q0 13 1 23q4 64 38.5 120t80.5 75q30 10 35 10q7 0 24 -10q21 -14 21 -33q0 -24 -19.5 -61.5t-48.5 -67.5l-37 -39l21 -135q4 -33 9 -68t8 -52.5t3 -18.5 q41 15 86 35q174 75 349 186q91 55 105 55q3 0 3 -2t-2 -6q-6 -10 -83.5 -61t-149.5 -92q-62 -36 -148.5 -78t-130.5 -56q-21 -8 -26.5 -16t-8.5 -35q-28 -192 -149 -254q-30 -14 -67 -18.5t-62 2.5q-64 21 -64 84zM-162 -201q16 -33 42 -33q19 0 44 17q24 15 49 52.5 t37 76.5q9 35 11 58t-5 24q-7 0 -56.5 -29.5t-74.5 -48.5q-30 -23 -44.5 -59t-2.5 -58zM115 420q0 -22 18 8q21 31 29 53q9 23 11 35.5t-5 13.5q-2 -2 -4 -2q-9 -6 -29 -49.5t-20 -58.5z" />
<glyph unicode="t" horiz-adv-x="608" d="M-164 815q0 46 95 81.5t247 45.5l86 6l55 123q46 101 105.5 205.5t85.5 128.5q13 13 22.5 16t28.5 0q29 -4 37 -12q1 -1 1 -3q0 -20 -77 -177q-129 -255 -129 -281q8 -5 57.5 -3.5t118 9.5t93.5 17q50 15 80 32t30 31q0 10 15.5 11t21.5 -7q8 -12 -8.5 -31t-48.5 -32 q-103 -45 -265 -53l-112 -7l-33 -88q-140 -380 -202 -679q-33 -158 -33 -243q0 -75 26 -91q6 -3 13 -3q39 0 129 83q108 100 274 305q129 158 148 164q8 2 8 -11q0 -15 -146 -193t-217 -251q-74 -74 -116 -99.5t-89 -25.5q-26 0 -38 5t-29 24q-25 22 -39 59q-15 54 -15 130 q0 95 24 225q42 232 155 538q55 145 55 154q-4 2 -30.5 0t-69.5 -8t-76 -13q-75 -15 -116 -32.5t-64 -45.5q-34 -40 -51 -26q-7 6 -7 22z" />
<glyph unicode="u" horiz-adv-x="710" d="M62 226q16 86 65 157q25 37 45 47.5t51 1.5q13 -3 23 -9t10 -9q0 -6 -37 -86q-27 -56 -53.5 -136.5t-26.5 -107.5q0 -23 9 -32t24 -1q25 13 103 117.5t155 226.5q22 40 49 43q26 4 43 -10q13 -6 10.5 -21t-26.5 -81q-80 -229 -80 -317q0 -31 10 -44q9 -11 24 -12 q73 0 299 279q17 20 34 42q80 99 88 99q6 0 6 -6q0 -13 -27 -53l-29 -40q-87 -117 -177 -213.5t-130 -117.5q-32 -18 -70 -18q-4 1 -6 1q-40 2 -65 23q-30 26 -39 47q-12 25 -12 84t12 100q5 19 7 30t1 11q-19 -24 -37 -53q-71 -105 -107 -137q-29 -26 -59 -26q-7 0 -14 1 q-49 10 -69 72q-11 34 -11 74q-1 35 7 74z" />
<glyph unicode="v" horiz-adv-x="698" d="M174 295q11 85 21 111q6 20 12 25.5t26 6.5q34 3 47.5 -12.5t8.5 -52.5q-9 -59 -15 -180q-3 -60 -3 -91.5t3 -33.5q2 -2 4 -2q21 0 101 155q40 75 49 100.5t10 69.5q0 54 23 121q29 89 55 89q10 0 21 -13q6 -8 3.5 -27t-16.5 -74q-19 -71 -19 -110q0 -8 1 -15 q6 -40 26 -72.5t48 -47.5q22 -10 34.5 -11t49.5 7q104 21 215 90q46 29 59 29q4 0 4 -3q1 -9 -43 -43q-53 -40 -137 -73t-133 -33q-34 0 -73 16t-62 39q-35 31 -37 29q0 -1 -51 -101q-91 -170 -134 -170q-17 0 -36 15q-38 27 -56 99q-11 45 -10 96q0 32 4 67z" />
<glyph unicode="w" horiz-adv-x="886" d="M76 188q8 62 36 136.5t56 105.5q14 14 35.5 17t36.5 -7q9 -4 8.5 -15t-10.5 -46q-64 -229 -64 -287v-43l21 21q25 24 73.5 96.5t57.5 101.5q30 92 53 99q12 4 32.5 -3t26.5 -16q1 -1 1 -6q0 -23 -21 -123q-25 -116 -25 -171q0 -44 16 -48h5q31 6 72.5 65t82.5 156 q21 52 25 69.5t-2 37.5q-4 15 -4 32q0 46 28 107q13 33 35 33q15 0 17.5 -7t-0.5 -42l-13 -89q-1 -11 -1 -21q0 -88 96 -99q9 -1 20 -2q72 0 203 65q87 44 106 44q3 0 4 -1q2 -3 -12 -14q-36 -27 -107 -61t-116 -44q-44 -11 -63.5 -12.5t-51.5 4.5q-40 6 -78 25 q-28 18 -34 12q-7 -7 -33 -72q-28 -62 -68 -120.5t-67 -77.5q-24 -17 -43.5 -18.5t-42.5 10.5q-21 11 -40 40.5t-20 53.5q0 13 -6 49q-4 16 -7 16q-4 0 -34 -47q-31 -47 -51 -64.5t-45 -17.5q-41 0 -68 54q-21 43 -21 96q0 14 1 28z" />
<glyph unicode="x" horiz-adv-x="737" d="M75 2q2 6 23 10q22 7 78 56l53 49l-14 63q-17 67 -25 146q-5 45 -5 73q0 21 3 33q6 18 12.5 23.5t22.5 7.5q25 4 37 -8q13 -25 29 -119q18 -107 22 -107q2 0 86 103q64 83 94.5 108t67.5 25q30 0 28 -8q-4 -7 -32 -17q-59 -20 -180 -184l-58 -78l15 -53q15 -54 40 -101.5 t46 -62.5q24 -19 53 -14q66 14 178 110t201 217q69 90 80 91q4 0 4 -7q0 -5 -31 -57q-71 -117 -175.5 -222t-190.5 -145q-32 -14 -79 -15h-7q-42 0 -68 11q-23 9 -63.5 51t-55.5 72t-19 31.5t-18 -16.5q-22 -26 -62 -50t-63 -24q-29 0 -27 8z" />
<glyph unicode="y" horiz-adv-x="768" d="M-250 -768q-2 8 -2 20q0 25 8 64q12 60 29 94q34 66 121.5 159t202.5 185q67 53 74 61q26 27 47 98q2 4 51 183q66 250 66 279q0 3 -1 4q0 5 -43 -68l-96 -159q-60 -103 -100 -132q-21 -16 -44 -16q-19 0 -40 12q-31 19 -43.5 49.5t-12.5 92.5q0 129 68 241 q19 32 27.5 39t31.5 8q42 3 46 -13q1 -3 1 -6q0 -20 -20 -73q-26 -63 -47 -137q-13 -50 -16 -111q-1 -16 -1 -29q0 -32 6 -36q6 -3 34.5 25.5t52.5 62.5q12 16 77 127q62 107 98 154t56 47q34 0 45 -36q8 -24 8 -68q0 -23 -2 -52q-10 -120 -55 -289q-7 -27 -10 -44t-2 -17 q14 0 155 112q68 53 135 122.5t105 127.5q28 42 41.5 53t23.5 1q1 -1 1 -4q0 -19 -83 -123q-122 -145 -294 -269q-63 -43 -85.5 -63.5t-25.5 -36.5q-9 -42 -59 -184.5t-82 -214.5q-60 -143 -118 -212t-147 -104q-45 -19 -71.5 -20.5t-55.5 12.5q-43 21 -55 84zM-209 -727v-8 q0 -56 27 -84q11 -13 25 -11t51 23q60 35 100.5 96.5t93.5 194.5q30 76 65.5 182t32.5 109q-8 -2 -68 -51.5t-106 -92.5q-48 -43 -107.5 -116.5t-80.5 -114.5q-31 -65 -33 -127z" />
<glyph unicode="z" horiz-adv-x="679" d="M-285 -715q0 70 106.5 227.5t266.5 323.5l84 90l-4 41q-8 75 -72 75q-7 0 -14 -1q-44 -9 -88 -27q-44 -16 -62 -16q-10 0 -13 5l-1 3q0 2 137 139q118 117 156 169t39 102q0 32 -3 38.5t-18 4.5q-23 -3 -67 -36t-76 -71q-29 -37 -51 -44.5t-45 9.5q-10 7 -11 13.5t7 23.5 q11 28 52.5 63.5t88.5 57.5q51 23 84 23q38 0 68 -23q23 -17 23 -53q0 -34 -24 -88q-48 -106 -161 -215l-49 -49h28q29 0 64 -17.5t55 -42.5l23 -26l81 71q35 30 148 125q63 52 137 119t91 67q5 0 5 -6q0 -10 -229 -208q-43 -37 -108 -94.5t-72 -63.5l-45 -41l8 -45 q5 -22 5 -52q0 -27 -4 -62q-8 -73 -30 -148q-40 -140 -126.5 -261t-180.5 -167q-44 -23 -76 -27q-8 -1 -17 -1q-25 0 -52 9q-35 11 -47 28.5t-11 57.5zM-250 -731q0 -44 25 -46h2q25 0 82 38q55 37 115 122t106 191q23 53 52.5 156.5t29.5 128.5h-2q-12 0 -88 -82t-135 -156 q-187 -249 -187 -352z" />
<glyph unicode="{" horiz-adv-x="593" d="M479 315q0 9 53 35q63 29 106.5 81t81.5 144.5t83 255.5q7 26 16.5 58t19 61t11.5 37q54 141 172 111q38 -9 37 -18q-1 -7 -27 -7q-31 0 -48.5 -16.5t-34 -64t-40.5 -154.5q-20 -88 -51 -176t-59 -138q-33 -56 -81.5 -104.5t-90.5 -69.5l-41 -20l24 -11q172 -70 58 -555 q-23 -104 -25.5 -144.5t12.5 -74.5q19 -39 35 -39q31 0 19 -28q-10 -26 -66 0q-34 14 -58.5 45t-31.5 71q-9 31 -3.5 74t42.5 232q17 87 20.5 193t-8.5 149q-15 65 -88 65q-37 0 -37 8z" />
<glyph unicode="|" horiz-adv-x="368" d="M430 -342q0 86 8 238q23 451 25 497q34 654 49 742q4 20 10.5 24t30.5 4q40 0 46.5 -33t-1.5 -196q-5 -129 -16 -289q-15 -201 -47 -670q-24 -392 -39 -417q-14 -27 -52 -7q-9 6 -11.5 25t-2.5 82z" />
<glyph unicode="}" horiz-adv-x="524" d="M-86 -428q4 6 27 6q31 0 48.5 17t33 64t40.5 155q20 86 51.5 174.5t59.5 138.5q34 56 82.5 105t89.5 69l41 21l-25 10q-170 69 -59 555q24 103 26.5 145t-12.5 74q-19 39 -34 39q-14 0 -19.5 8t-1.5 21q5 11 23.5 11.5t44.5 -11.5q34 -15 58.5 -46.5t31.5 -70.5 t2.5 -73.5t-41.5 -231.5q-17 -88 -20.5 -194t8.5 -148q7 -32 30.5 -49t57.5 -17q37 0 37 -8q0 -9 -54 -35q-63 -29 -106 -81t-81 -144.5t-83 -255.5q-7 -26 -16.5 -58t-19 -61t-11.5 -37q-53 -140 -172 -110q-41 9 -37 18z" />
<glyph unicode="~" horiz-adv-x="655" d="M300 142q-16 5 8 54q4 8 9 17q31 53 80 75t95 3q22 -7 49.5 -37t44.5 -64q17 -39 37 -59l16 -20l27 16q24 15 65 82q17 27 30 44t20.5 20t10 -4t-2 -27t-15.5 -49q-19 -51 -33.5 -71t-42.5 -34q-53 -29 -116 -4q-34 15 -59 43t-48 78q-7 16 -14.5 30t-13 21.5t-7.5 7.5 q-14 0 -44 -25.5t-48 -54.5q-32 -48 -48 -42z" />
<glyph unicode="&#xa1;" horiz-adv-x="344" d="M90 -584q0 33 75.5 347t129.5 505q54 196 57 207q14 61 21.5 73.5t29.5 8.5q14 -3 13.5 -21.5t-15.5 -82.5q-35 -173 -43 -217q-21 -122 -63 -316q-44 -201 -53 -258q-48 -224 -74 -266q-13 -19 -35 -19q-16 0 -29.5 11.5t-13.5 27.5zM375 676q0 35 24 45.5t52 -12.5 q26 -20 16.5 -53t-41.5 -33q-20 0 -35.5 16.5t-15.5 36.5z" />
<glyph unicode="&#xa2;" horiz-adv-x="632" d="M461 139q-29 123 18 316t129 288q23 28 56 48t55 20q10 0 15 10.5t11 46.5q12 71 17.5 87.5t17.5 21.5q6 2 17 2q22 -3 6 -96l-12 -80l26 -29q27 -24 39 -63q9 -35 5.5 -103.5t-15.5 -93.5q-23 -49 -27 -7q-2 20 0 66q3 62 0.5 85t-14.5 49q-4 11 -8.5 20t-8 13t-4.5 3 q-5 -5 -72 -370t-67 -385q0 -12 31 16q29 29 88 150q58 116 65 109q4 -4 -16 -60q-36 -102 -84 -176t-76 -74q-12 0 -19 -24.5t-30 -151.5q-9 -59 -15 -74.5t-18 -17.5q-18 -3 -18 8q0 23 20 133q22 122 13 125q-34 11 -73.5 70.5t-51.5 117.5zM559 143q6 -56 25 -98 q10 -27 14 -28q3 1 6 8q5 12 62 362q13 77 28 170.5t22.5 140.5t8.5 50q3 14 -2 14q-11 -2 -44.5 -53.5t-51.5 -98.5q-40 -111 -60.5 -248t-7.5 -219z" />
<glyph unicode="&#xa3;" horiz-adv-x="708" d="M184 -8q0 9 35 28q12 6 27.5 19t21.5 22q47 63 97 250q19 69 42 171t23 116q0 4 -47 4t-47 6t25 12.5t51 6.5q17 0 23.5 17.5t35.5 131.5q53 217 99.5 336.5t101.5 179.5q30 32 42.5 39t45.5 10q41 3 56.5 -9t21.5 -52q8 -53 -5 -73q-4 -6 -8 -3q-9 4 -16 45 q-10 41 -22 52t-27.5 -4.5t-38.5 -61.5q-36 -71 -68 -180t-96 -379l-8 -31l69 -2q69 -3 64 -12q-6 -9 -70 -13l-67 -4l-29 -112q-34 -142 -82.5 -273t-71.5 -145q-17 -11 6 -14q20 -3 93 -4q106 0 178 -19q97 -27 98 -39q0 -3 -2 -6q-11 -7 -117 14q-71 14 -108 18t-92 3 q-69 -3 -86.5 -7t-44.5 -24q-20 -15 -44.5 -23t-41.5 -5.5t-17 14.5z" />
<glyph unicode="&#xa4;" horiz-adv-x="643" d="M393 217q-2 37 2 55t21 50q19 34 21 44t-7 29q-6 11 -8 15.5t-3.5 9.5t1 6t6.5 1.5t12 0.5q19 0 31 -16q9 -12 16 -12.5t33 8.5q47 17 108.5 4t108.5 -50q28 -20 39 -12q5 6 20.5 8t29.5 0.5t14 -6.5q0 -9 -29 -20l-29 -13l19 -36q17 -32 20 -97q3 -40 0 -57t-18 -43 q-19 -36 -20 -46.5t12 -25.5q12 -12 8.5 -26.5t-17.5 -14.5q-7 0 -32 17q-14 11 -21.5 12.5t-25.5 -4.5q-34 -12 -94 -6.5t-91 24.5q-24 13 -32.5 14.5t-20.5 -3.5q-10 -7 -23.5 -9.5t-23.5 -0.5t-10 8q0 12 16 28l16 19l-22 45q-24 47 -27 100zM483 289 q-22 -67 11.5 -148.5t93.5 -109.5q33 -15 54.5 -15t51.5 17q76 38 79.5 137.5t-68.5 171.5q-47 47 -103 47q-39 -2 -70.5 -27.5t-48.5 -72.5z" />
<glyph unicode="&#xa5;" horiz-adv-x="706" d="M407.5 622q-12.5 95 22.5 214q41 147 91 211.5t97 33.5l19 -14l-39 -78q-76 -156 -102 -299q-6 -36 -5.5 -89t9.5 -60q14 -15 80 44t152 162t153 205q69 106 95.5 135.5t49.5 28.5q26 -3 29 -18q4 -11 -72 -148q-140 -245 -250 -491l-47 -111q0 -4 45 0q64 8 84 -6 q5 -4 2 -8q-8 -8 -37 -8q-25 0 -71 -4q-26 -4 -32.5 -10t-14.5 -29q-3 -10 -8.5 -28t-6.5 -19q-5 -10 11 -11q12 -1 55 2q75 6 80 -2q2 -6 2.5 -8.5t-0.5 -3.5q-3 -3 -84 -14l-80 -13l-29 -96q-28 -97 -28 -178q0 -51 2.5 -69.5t11.5 -28.5q15 -19 10 -27q-6 -11 -35.5 -8 t-46.5 16q-34 26 -38.5 101t20.5 182q4 22 9.5 45.5t8 35.5t2.5 13h-51q-61 -2 -57 9q5 10 59 20l64 8l10 35q3 10 8 26.5t6 18.5q3 8 -9 9q-10 1 -40 -3q-56 -3 -61 4q-5 8 13 14q14 4 50 9q44 6 56 13t20 30q7 24 54 128t75 160l22 45l-86 -88q-70 -72 -108.5 -93 t-73.5 -9q-53 19 -65.5 114z" />
<glyph unicode="&#xa7;" horiz-adv-x="555" d="M233.5 38q8.5 46 28.5 46q3 -1 2 -8.5t-4 -20.5q-7 -28 -1 -68.5t20 -54.5q15 -15 43 -10q43 11 93.5 47t84.5 80q27 35 50 100t23 107q0 28 -6 39.5t-32 36.5q-78 67 -109 103t-45 73q-26 69 -16 139t51 111l22 20l-24 47q-23 47 -23 109q0 40 5 62t22 57q25 50 61.5 92 t69.5 59q39 17 80 17q35 -4 51 -13q31 -22 25.5 -86.5t-43.5 -142.5q-24 -47 -42 -68.5t-30 -15.5q-8 5 8 31q17 20 43 86q20 52 24 101t-10 69q-7 10 -13 11t-19 -7q-54 -28 -98 -110.5t-44 -155.5q0 -89 92 -191q52 -58 68 -86t16 -61q0 -38 -13 -64.5t-54 -68.5l-51 -52 l43 -35q43 -37 55.5 -64.5t9.5 -74.5q-8 -89 -63.5 -172.5t-137.5 -126.5q-46 -25 -94 -31t-80 9q-15 8 -22.5 18t-13.5 31q-11 41 -2.5 87zM447 569q9 -69 45 -123l18 -26l22 26q22 25 41 64q30 68 7 115q-7 15 -51 60.5t-50 45.5t-20 -39q-21 -54 -12 -123z" />
<glyph unicode="&#xa8;" horiz-adv-x="415" d="M299 494q0 13 18 27t35 14q15 0 31 -18t12 -30q-9 -26 -32 -32.5t-46 10.5q-18 11 -18 29zM459.5 490.5q0.5 18.5 11.5 27.5q12 9 35.5 6t32.5 -16q11 -17 -1 -37t-34 -20q-25 0 -35 10q-10 11 -9.5 29.5z" />
<glyph unicode="&#xa9;" horiz-adv-x="1220" d="M455 483q0 101 10.5 159.5t44.5 141.5q50 126 144 220t206 129q62 19 137 16q32 0 86 -8q122 -26 220 -129t141 -250q20 -67 23.5 -179t-11.5 -188q-26 -141 -101 -260.5t-179 -185.5q-79 -48 -179.5 -60t-185.5 17q-194 67 -283 250q-43 87 -58 153.5t-15 173.5z M559 481q0 -120 25 -209.5t82 -175.5q86 -135 225 -174q41 -9 58.5 -8.5t66.5 10.5q160 35 266 180q83 112 125 267q14 58 16.5 89.5t-0.5 117.5q-3 104 -15.5 159.5t-49.5 130.5q-55 115 -146 185q-54 40 -91.5 52.5t-102.5 12.5q-8 2 -25 2q-37 -2 -56.5 -7.5t-57.5 -25.5 q-82 -40 -141.5 -104t-106.5 -164q-72 -153 -72 -338zM772 557q19 92 58 168.5t90 122.5q35 30 57.5 39.5t62.5 9.5q28 0 40.5 -5t29.5 -24q57 -54 29 -155q-14 -59 -22 -46q-7 12 -7 76q0 61 -2.5 76.5t-17.5 30.5q-17 20 -31 20q-19 0 -49.5 -35t-55.5 -85 q-74 -151 -77 -338q-1 -83 7.5 -122t33.5 -59q34 -26 82 10.5t85 114.5q30 62 41 58q23 -7 -26 -101q-48 -96 -117 -114q-31 -9 -45.5 -8.5t-46.5 12.5q-74 25 -109 129t-10 225z" />
<glyph unicode="&#xaa;" horiz-adv-x="395" d="M307 532q0 89 32.5 140t88.5 51q39 0 51 -12q9 -9 14 -9t17 9q16 16 37 10q17 -4 19 -10t-1 -31q-6 -29 -14 -111t-8 -104q0 -17 -19.5 -23.5t-38.5 2.5q-18 10 -18 56v43l-25 -51q-29 -59 -56 -70t-56 24q-15 17 -19 32t-4 54zM383 459l45 90q35 67 39.5 83t-4.5 34 q-8 15 -17 20q-4 0 -8 -4q-15 -12 -31.5 -63.5t-19.5 -98.5z" />
<glyph unicode="&#xab;" horiz-adv-x="696" d="M356 190q0 7 81.5 69.5t129.5 92.5q47 29 71.5 35t47.5 -6q17 -8 4 -22q-16 -18 -129 -91q-116 -79 -125 -88q-3 -7 15 -18q44 -27 123.5 -78t89.5 -59q12 -9 11 -11t-20 -2q-23 0 -84 33q-215 117 -215 145zM555 190q0 8 81.5 71t129.5 91q47 29 71.5 35t47.5 -6 q17 -8 4 -22q-18 -18 -129 -91q-123 -84 -125 -88q-4 -7 14 -18q44 -27 123.5 -78t89.5 -59q9 -7 10.5 -9t-2 -3t-16.5 -1q-24 0 -84 33q-98 52 -156.5 91.5t-58.5 53.5z" />
<glyph unicode="&#xad;" horiz-adv-x="649" d="M442 196.5q-5 13.5 7 22.5q0 2 58 1.5t124 -3.5q107 -3 142.5 -7t47.5 -13q20 -16 13 -23q-8 -8 -172 -8q-165 -2 -195 8q-20 9 -25 22.5z" />
<glyph unicode="&#xae;" horiz-adv-x="733" d="M422 236q0 74 37.5 136t103.5 97q62 33 111 33q36 0 59 -4q74 -12 120.5 -44.5t74.5 -91.5q19 -38 16.5 -95t-24.5 -103q-43 -89 -135 -133t-183 -19q-86 23 -133 82.5t-47 141.5zM510 219q3 -136 106 -180q28 -12 51.5 -12.5t63.5 10.5q38 12 83 50.5t65 76.5 q17 32 21 88.5t-7 89.5q-24 81 -94 117q-40 18 -58 20q-13 0 -63 -16q-97 -40 -143 -133q-15 -29 -20 -51t-5 -60zM578 121q-3 10 4 76q11 77 36 129.5t52 52.5q15 0 35 12q12 12 47 12q19 0 29.5 -4.5t23.5 -19.5q22 -26 22 -43q0 -21 -29 -44.5t-69 -35.5t-41 -19 q0 -3 4 -6q117 -87 117 -100q0 -17 -9 -17q-18 2 -93 60l-48 35l-18 -49q-12 -30 -20.5 -40.5t-20.5 -10.5q-18 0 -22 12zM676 276q-3 -7 6 -5l29 12q88 46 53 92q-9 12 -21 12q-29 -4 -47 -59q-4 -10 -9 -23.5t-7.5 -20.5t-3.5 -8z" />
<glyph unicode="&#xaf;" horiz-adv-x="458" d="M20 469q-5 14 7 23q13 4 182 -3q107 -3 142.5 -7t47.5 -13q20 -16 13 -23q-8 -8 -172 -8q-165 -2 -195 8q-20 9 -25 23z" />
<glyph unicode="&#xb0;" horiz-adv-x="440" d="M144 494.5q-22 55.5 6 113.5q19 38 55.5 60t81.5 24q34 0 61 -8q69 -20 103 -73t18.5 -111t-76.5 -90q-32 -15 -80.5 -15t-83.5 15q-63 29 -85 84.5zM227 535q6 -70 66 -101q22 -11 40 -10t42 18q54 34 51 115q-2 45 -27 72q-37 37 -65 37q-8 0 -43 -13q-70 -37 -64 -118 z" />
<glyph unicode="&#xb2;" horiz-adv-x="393" d="M348 436q0 3 49 56q73 75 94 145q16 53 -16 53q-17 0 -42 -22t-34 -45q-10 -25 -23 -25q-10 2 -11 20q0 23 32 56.5t62 42.5q80 22 101.5 -28.5t-28.5 -128.5q-24 -37 -61 -71l-47 -43h70q65 0 61 -8q-8 -6 -91 -11t-102 -1q-14 4 -14 10z" />
<glyph unicode="&#xb3;" horiz-adv-x="423" d="M365 426q-12 12 17 16q12 2 30 2q66 0 91 34q21 27 -8 48q-16 11 -42 15q-29 5 -33.5 15.5t18.5 21.5q45 21 66 56q16 27 -7 26q-4 0 -10 -1q-40 -10 -75 -41q-21 -17 -27 -8q-7 7 0.5 20t25 26t38.5 20q76 26 114 -2q45 -39 -39 -88l-43 -23l27 -6q25 -5 47.5 -23.5 t22.5 -35.5q0 -18 -15 -36t-39 -28q-22 -11 -86 -14t-73 6z" />
<glyph unicode="&#xb4;" horiz-adv-x="337" d="M375 457q-8 8 31 86q28 55 36.5 65t30.5 10q28 0 28 -13q-1 -17 -40 -87q-22 -43 -34.5 -57.5t-23.5 -14.5q-21 0 -28 11z" />
<glyph unicode="&#xb8;" horiz-adv-x="264" d="M215 -118q0 8 23 5q23 -1 41.5 14.5t27.5 43.5q13 43 -4 57t-55 -8q-17 -8 -22.5 -7.5t-8.5 9.5q-10 26 19 92q7 17 15 23t23 6q22 0 23 -8.5t-16 -40.5q-17 -37 -13 -40q3 -3 21 1q18 3 27 -0.5t24 -20.5q22 -22 24.5 -44t-12.5 -54q-14 -28 -49 -41.5t-65 -1.5 q-23 7 -23 15z" />
<glyph unicode="&#xb9;" horiz-adv-x="286" d="M307 614q0 6 29 31q37 42 43 53q18 24 37 19q18 -7 22 -27q4 -15 -7 -130t-17 -126q-8 -8 -37 -8h-29l4 100q1 96 -6 95q-4 -5 -13.5 -8t-17.5 -3t-8 4z" />
<glyph unicode="&#xba;" horiz-adv-x="358" d="M129.5 515.5q-5.5 53.5 26.5 119.5q18 34 44 56t52 22q22 0 54 -19.5t38 -36.5q17 -40 2.5 -103t-47.5 -97q-26 -29 -59 -35.5t-62 12.5q-43 28 -48.5 81.5zM213 539q-4 -36 5 -61.5t24 -22.5q13 0 32 34q47 83 27 148q-12 41 -33 41q-6 0 -8 -2q-9 -6 -26 -54.5 t-21 -82.5z" />
<glyph unicode="&#xbb;" horiz-adv-x="749" d="M371 28q16 18 129 93q112 73 125 86q4 8 -15 20q-161 98 -213 135q-12 9 -11 11t20 2q26 0 83 -31q216 -117 216 -145q0 -7 -80.5 -69.5t-130.5 -94.5q-47 -29 -71.5 -35t-47.5 6q-17 8 -4 22zM569 28q16 18 129 93q112 73 125 86q4 9 -14 20q-161 98 -213 135 q-9 7 -10.5 9t2 3t16.5 1q27 0 84 -31q215 -117 215 -145q0 -7 -80.5 -69.5t-130.5 -94.5q-47 -29 -71.5 -35t-47.5 6q-17 8 -4 22z" />
<glyph unicode="&#xbf;" horiz-adv-x="770" d="M154 -432q-1 76 22.5 140.5t83.5 150t186 235.5q55 65 105 145t70 134q28 80 14 139q-2 9 10 12.5t28 0t25 -12.5q15 -15 14 -65t-18 -99q-42 -121 -200 -323q-142 -181 -200 -300t-52 -217q3 -41 7.5 -54.5t22.5 -31.5t29 -22t39 -4q101 3 227.5 122t188.5 269 q18 52 18 115q0 69 6 69q12 0 24.5 -17t16.5 -40q12 -64 -24.5 -152.5t-100 -168t-147.5 -142t-160 -78.5q-24 -6 -49 -6q-55 2 -101 27t-67 67q-18 35 -18 107zM645.5 657.5q-4.5 27.5 18.5 42.5q15 11 24.5 11.5t34.5 -6.5q31 -12 30 -42t-34 -40q-11 -7 -23 -7 q-5 0 -20 5q-26 9 -30.5 36.5z" />
<glyph unicode="&#xc0;" d="M82 -166q0 9 37 2q23 -3 36 0t35 17q44 28 131.5 138.5t159.5 229.5q41 71 83.5 152t39.5 84q-6 3 -82 -4q-117 -10 -213.5 -43.5t-130.5 -73.5q-20 -25 -39 -25q-8 -1 -8 6q0 12 31 43t59 46q52 28 160 50.5t188 22.5h52l102 209q277 563 377 787q37 78 47 91.5t33 14.5 q6 2 16 2q9 0 11.5 -5.5t2.5 -23.5q0 -19 -20 -133q-20 -95 -43 -233q-7 -42 -30.5 -170t-29.5 -160q-39 -215 -45 -272q-12 -89 -14 -97q-3 -15 2.5 -17t42.5 3q35 2 96 17q53 14 49 3q-2 -4 -8 -8q-42 -22 -129 -28q-41 -4 -49 -8.5t-12 -24.5q-6 -41 -13.5 -153.5 t-7.5 -184.5q0 -99 9 -159.5t32 -110.5l27 -58q0 -6 -14.5 -7.5t-24.5 3.5q-41 15 -73 85t-42 171q-6 62 -3.5 211t10.5 201l6 31h-105q-111 0 -135 6l-31 4l-34 -70q-77 -153 -171.5 -296.5t-162.5 -213.5q-47 -45 -77 -62.5t-65 -17.5q-63 0 -63 29zM672 487 q0 -12 188 -12h68l18 131q13 95 53 303q42 217 50 275q18 99 22 131v2q-3 1 -20.5 -29.5t-45.5 -86.5t-57 -120q-6 -14 -34 -73t-42 -90q-12 -24 -58 -122.5t-69 -146.5q-73 -153 -73 -162zM1118 1831q0 9 5 12.5t20 3.5q22 0 38.5 -20t45.5 -82q34 -72 20 -78q-8 -2 -26 4 q-23 9 -63 70.5t-40 89.5z" />
<glyph unicode="&#xc1;" d="M82 -166q0 9 37 2q23 -3 36 0t35 17q44 28 131.5 138.5t159.5 229.5q41 71 83.5 152t39.5 84q-6 3 -82 -4q-117 -10 -213.5 -43.5t-130.5 -73.5q-20 -25 -39 -25q-8 -1 -8 6q0 12 31 43t59 46q52 28 160 50.5t188 22.5h52l102 209q277 563 377 787q37 78 47 91.5t33 14.5 q6 2 16 2q9 0 11.5 -5.5t2.5 -23.5q0 -19 -20 -133q-20 -95 -43 -233q-7 -42 -30.5 -170t-29.5 -160q-39 -215 -45 -272q-12 -89 -14 -97q-3 -15 2.5 -17t42.5 3q35 2 96 17q53 14 49 3q-2 -4 -8 -8q-42 -22 -129 -28q-41 -4 -49 -8.5t-12 -24.5q-6 -41 -13.5 -153.5 t-7.5 -184.5q0 -99 9 -159.5t32 -110.5l27 -58q0 -6 -14.5 -7.5t-24.5 3.5q-41 15 -73 85t-42 171q-6 62 -3.5 211t10.5 201l6 31h-105q-111 0 -135 6l-31 4l-34 -70q-77 -153 -171.5 -296.5t-162.5 -213.5q-47 -45 -77 -62.5t-65 -17.5q-63 0 -63 29zM672 487 q0 -12 188 -12h68l18 131q13 95 53 303q42 217 50 275q18 99 22 131v2q-3 1 -20.5 -29.5t-45.5 -86.5t-57 -120q-6 -14 -34 -73t-42 -90q-12 -24 -58 -122.5t-69 -146.5q-73 -153 -73 -162zM1145 1702q-8 8 31 86q28 56 36.5 66t30.5 10q16 0 22 -3t5 -14t-10 -29.5 t-29 -54.5q-22 -43 -34 -57t-23 -14q-22 0 -29 10z" />
<glyph unicode="&#xc2;" d="M82 -166q0 9 37 2q23 -3 36 0t35 17q44 28 131.5 138.5t159.5 229.5q41 71 83.5 152t39.5 84q-6 3 -82 -4q-117 -10 -213.5 -43.5t-130.5 -73.5q-20 -25 -39 -25q-8 -1 -8 6q0 12 31 43t59 46q52 28 160 50.5t188 22.5h52l102 209q277 563 377 787q37 78 47 91.5t33 14.5 q6 2 16 2q9 0 11.5 -5.5t2.5 -23.5q0 -19 -20 -133q-20 -95 -43 -233q-7 -42 -30.5 -170t-29.5 -160q-39 -215 -45 -272q-12 -89 -14 -97q-3 -15 2.5 -17t42.5 3q35 2 96 17q53 14 49 3q-2 -4 -8 -8q-42 -22 -129 -28q-41 -4 -49 -8.5t-12 -24.5q-6 -41 -13.5 -153.5 t-7.5 -184.5q0 -99 9 -159.5t32 -110.5l27 -58q0 -6 -14.5 -7.5t-24.5 3.5q-41 15 -73 85t-42 171q-6 62 -3.5 211t10.5 201l6 31h-105q-111 0 -135 6l-31 4l-34 -70q-77 -153 -171.5 -296.5t-162.5 -213.5q-47 -45 -77 -62.5t-65 -17.5q-63 0 -63 29zM672 487 q0 -12 188 -12h68l18 131q13 95 53 303q42 217 50 275q18 99 22 131v2q-3 1 -20.5 -29.5t-45.5 -86.5t-57 -120q-6 -14 -34 -73t-42 -90q-12 -24 -58 -122.5t-69 -146.5q-73 -153 -73 -162zM1090 1677q0 7 29 61.5t44 76.5q57 75 129 -66q36 -70 17 -75q-3 -1 -6 -1 q-38 0 -82 78l-29 51l-23 -41q-8 -11 -22 -35t-17 -28q-13 -22 -32 -26q-8 -2 -8 5z" />
<glyph unicode="&#xc3;" d="M82 -166q0 9 37 2q23 -3 36 0t35 17q44 28 131.5 138.5t159.5 229.5q41 71 83.5 152t39.5 84q-6 3 -82 -4q-117 -10 -213.5 -43.5t-130.5 -73.5q-20 -25 -39 -25q-8 -1 -8 6q0 12 31 43t59 46q52 28 160 50.5t188 22.5h52l102 209q277 563 377 787q37 78 47 91.5t33 14.5 q6 2 16 2q9 0 11.5 -5.5t2.5 -23.5q0 -19 -20 -133q-20 -95 -43 -233q-7 -42 -30.5 -170t-29.5 -160q-39 -215 -45 -272q-12 -89 -14 -97q-3 -15 2.5 -17t42.5 3q35 2 96 17q53 14 49 3q-2 -4 -8 -8q-42 -22 -129 -28q-41 -4 -49 -8.5t-12 -24.5q-6 -41 -13.5 -153.5 t-7.5 -184.5q0 -99 9 -159.5t32 -110.5l27 -58q0 -6 -14.5 -7.5t-24.5 3.5q-41 15 -73 85t-42 171q-6 62 -3.5 211t10.5 201l6 31h-105q-111 0 -135 6l-31 4l-34 -70q-77 -153 -171.5 -296.5t-162.5 -213.5q-47 -45 -77 -62.5t-65 -17.5q-63 0 -63 29zM672 487 q0 -12 188 -12h68l18 131q13 95 53 303q42 217 50 275q18 99 22 131v2q-3 1 -20.5 -29.5t-45.5 -86.5t-57 -120q-6 -14 -34 -73t-42 -90q-12 -24 -58 -122.5t-69 -146.5q-73 -153 -73 -162zM1079 1724q0 25 26 56.5t46 31.5q25 0 38 -10.5t30 -42.5q15 -29 26.5 -36.5 t22.5 3.5t26 43q25 52 35 52q10 -3 10.5 -22.5t-9.5 -48.5t-25 -46q-15 -15 -40.5 -17.5t-45.5 9.5q-21 10 -40.5 29t-25.5 34q-9 29 -28 3l-13 -25q-9 -24 -23 -26q-10 -1 -10 13z" />
<glyph unicode="&#xc4;" d="M82 -166q0 9 37 2q23 -3 36 0t35 17q44 28 131.5 138.5t159.5 229.5q41 71 83.5 152t39.5 84q-6 3 -82 -4q-117 -10 -213.5 -43.5t-130.5 -73.5q-20 -25 -39 -25q-8 -1 -8 6q0 12 31 43t59 46q52 28 160 50.5t188 22.5h52l102 209q277 563 377 787q37 78 47 91.5t33 14.5 q6 2 16 2q9 0 11.5 -5.5t2.5 -23.5q0 -19 -20 -133q-20 -95 -43 -233q-7 -42 -30.5 -170t-29.5 -160q-39 -215 -45 -272q-12 -89 -14 -97q-3 -15 2.5 -17t42.5 3q35 2 96 17q53 14 49 3q-2 -4 -8 -8q-42 -22 -129 -28q-41 -4 -49 -8.5t-12 -24.5q-6 -41 -13.5 -153.5 t-7.5 -184.5q0 -99 9 -159.5t32 -110.5l27 -58q0 -6 -14.5 -7.5t-24.5 3.5q-41 15 -73 85t-42 171q-6 62 -3.5 211t10.5 201l6 31h-105q-111 0 -135 6l-31 4l-34 -70q-77 -153 -171.5 -296.5t-162.5 -213.5q-47 -45 -77 -62.5t-65 -17.5q-63 0 -63 29zM672 487 q0 -12 188 -12h68l18 131q13 95 53 303q42 217 50 275q18 99 22 131v2q-3 1 -20.5 -29.5t-45.5 -86.5t-57 -120q-6 -14 -34 -73t-42 -90q-12 -24 -58 -122.5t-69 -146.5q-73 -153 -73 -162zM1079 1724q0 13 18.5 27t35.5 14q15 0 31 -17.5t12 -29.5q-9 -26 -32 -32.5 t-46 10.5q-19 11 -19 28zM1239.5 1721.5q0.5 18.5 11.5 27.5q12 9 35.5 6t32.5 -16q11 -17 -1 -37.5t-34 -20.5q-24 0 -35 11q-10 11 -9.5 29.5z" />
<glyph unicode="&#xc5;" d="M82 -166q0 9 37 2q23 -3 36 0t35 17q44 28 131.5 138.5t159.5 229.5q41 71 83.5 152t39.5 84q-6 3 -82 -4q-117 -10 -213.5 -43.5t-130.5 -73.5q-20 -25 -39 -25q-8 -1 -8 6q0 12 31 43t59 46q52 28 160 50.5t188 22.5h52l102 209q277 563 377 787q37 78 47 91.5t33 14.5 q6 2 16 2q9 0 11.5 -5.5t2.5 -23.5q0 -19 -20 -133q-20 -95 -43 -233q-7 -42 -30.5 -170t-29.5 -160q-39 -215 -45 -272q-12 -89 -14 -97q-3 -15 2.5 -17t42.5 3q35 2 96 17q53 14 49 3q-2 -4 -8 -8q-42 -22 -129 -28q-41 -4 -49 -8.5t-12 -24.5q-6 -41 -13.5 -153.5 t-7.5 -184.5q0 -99 9 -159.5t32 -110.5l27 -58q0 -6 -14.5 -7.5t-24.5 3.5q-41 15 -73 85t-42 171q-6 62 -3.5 211t10.5 201l6 31h-105q-111 0 -135 6l-31 4l-34 -70q-77 -153 -171.5 -296.5t-162.5 -213.5q-47 -45 -77 -62.5t-65 -17.5q-63 0 -63 29zM672 487 q0 -12 188 -12h68l18 131q13 95 53 303q42 217 50 275q18 99 22 131v2q-3 1 -20.5 -29.5t-45.5 -86.5t-57 -120q-6 -14 -34 -73t-42 -90q-12 -24 -58 -122.5t-69 -146.5q-73 -153 -73 -162zM1098 1792q11 35 37 55.5t63 20.5q34 0 63 -14t39 -37q11 -18 7 -58 q-3 -23 -9.5 -35.5t-25.5 -29.5q-53 -50 -123 -13q-32 15 -46 46.5t-5 64.5zM1167 1766q-4 -31 13 -56q10 -17 21.5 -17.5t31.5 13.5q23 15 33 44t2 56q-13 31 -29 37q-7 7 -14 4q-10 0 -31 -24q-23 -26 -27 -57z" />
<glyph unicode="&#xc6;" horiz-adv-x="1880" d="M70 -160q0 9 36 2q24 -3 37 0t35 17q45 28 133.5 139.5t159.5 230.5q43 71 84 151.5t37 84.5q-3 3 -80 -4q-118 -12 -214 -44.5t-130 -72.5q-19 -26 -38 -26q-9 0 -9 8q0 12 31 42.5t59 45.5q51 28 159.5 50.5t188.5 22.5h51l103 209q261 522 379 787q36 79 45 92t32 14 q8 2 17 2q10 0 12 -4.5t2 -23.5t-20 -133q-19 -91 -43 -234l-60 -330q-45 -271 -45 -274l-8 -60q48 64 98 109q41 38 107 80.5t94 50.5q21 5 19 15q-2 6 -15 6q-17 0 -59.5 25t-55.5 44q-27 37 -17.5 114t52.5 171q49 109 163.5 234.5t234.5 203.5q110 71 196 74q15 0 23 -2 q28 -4 43.5 -11t27.5 -28q32 -49 29 -102q-3 -123 -85.5 -267t-184.5 -211q-34 -23 -43.5 -25.5t-20.5 7.5q-9 6 -7 11.5t19 15.5q74 54 143 147.5t107 191.5q27 74 27 134q1 47 -2.5 60t-20.5 28q-22 17 -40.5 15.5t-69.5 -26.5q-73 -32 -184.5 -134.5t-182.5 -202.5 q-92 -128 -130.5 -245.5t-4.5 -160.5q13 -17 51 -31t64 -14q79 3 98 2t19 -8q0 -5 -17 -14.5t-39 -16.5q-105 -38 -198 -108q-99 -80 -162 -177q34 6 59 13q55 15 51 4q-2 -3 -10 -8q-29 -19 -113 -29q-72 -118 -94 -258q-4 -82 -4 -115q0 -40 4 -102q12 -63 47 -115 q73 -107 248 -67q122 28 306.5 153.5t357.5 298.5q50 52 90.5 88.5t46.5 36.5q9 0 8.5 -3.5t-10.5 -18.5q-24 -33 -156 -159.5t-192 -172.5q-196 -156 -325 -215.5t-249 -48.5q-74 9 -127 38l19 -40q0 -6 -14.5 -8t-24.5 3q-35 12 -64.5 68t-42.5 139q-27 71 -24 164 q0 65 12 127q3 117 10 170l6 31h-104q-87 0 -135 6l-31 4l-37 -70q-76 -153 -170 -296.5t-164 -213.5q-44 -44 -75 -61.5t-66 -17.5q-63 0 -63 28zM659 494q0 -3 26 -6t71 -5t94 -2l68 2l18 131q11 82 53 304q39 206 49 274l23 129v4q-10 3 -123 -235l-76 -164 q-71 -155 -127 -269q-76 -159 -76 -163z" />
<glyph unicode="&#xc7;" horiz-adv-x="993" d="M74 127q-19 277 155 674q105 235 225 401.5t242 245.5q69 45 118 61.5t112 18.5q65 0 98 -17q63 -37 65.5 -145.5t-55.5 -259.5q-51 -129 -123.5 -232t-105.5 -94q-29 6 -7 33q8 10 23 25q73 73 150 227q70 142 82 250t-37 162q-12 13 -23.5 17.5t-36.5 4.5 q-74 0 -149 -49q-272 -177 -498 -743q-66 -163 -97.5 -286.5t-37.5 -244.5q-9 -194 42 -306.5t155 -127.5q40 -6 114 12.5t138 50.5q197 102 456 424l95 113q22 12 9 -14l-22 -35q-86 -119 -214 -255.5t-204 -191.5q-207 -146 -376 -131l-15 -28q-17 -37 -13 -40q3 -3 21 1 q18 3 27.5 -0.5t24.5 -20.5q22 -22 24.5 -44t-12.5 -54q-14 -28 -49 -41.5t-66 -1.5q-23 8 -23 15.5t23 4.5q23 -1 42 14.5t28 43.5q13 43 -4.5 57t-55.5 -8q-17 -8 -22 -7.5t-8 9.5q-10 27 18 92q1 6 8 19q-6 0 -14 4q-107 37 -161 131t-66 266z" />
<glyph unicode="&#xc8;" horiz-adv-x="1089" d="M84 100q1 139 63 272t172 236q43 38 108.5 80.5t92.5 48.5q20 5 19 15q-2 5 -13 6q-18 0 -59 25t-55 44q-28 37 -19.5 114t51.5 171q52 109 165.5 235t232.5 203q61 39 119.5 58.5t97.5 13.5q43 -8 74 -39q27 -20 30 -45t-2 -57q-6 -124 -87.5 -267.5t-182.5 -209.5 q-35 -22 -43.5 -24.5t-20.5 5.5q-9 6 -6.5 11.5t19.5 15.5q73 54 141.5 146.5t108.5 191.5q26 72 26 135q0 50 -2.5 62t-19.5 26q-21 18 -41 16t-70 -26q-74 -34 -185.5 -136.5t-181.5 -201.5q-92 -129 -130 -246t-3 -160q12 -15 50.5 -30t64.5 -15q40 2 62 3t34.5 0 t15.5 -3t3 -6q0 -5 -17 -14.5t-39 -16.5q-105 -35 -198 -108q-130 -101 -202.5 -247.5t-74.5 -309.5q0 -79 13 -129.5t45 -100.5q69 -105 245 -65q121 26 305 151.5t359 300.5q125 125 137 125q10 0 7 -8q-2 -4 -11 -16q-24 -32 -155 -158t-191 -174q-196 -155 -325 -214 t-249 -48q-132 12 -206 109t-72 255zM950 1853q0 17 25 17q22 0 38.5 -20t45.5 -83q34 -71 20 -77q-7 -3 -26 4q-23 9 -63 70t-40 89z" />
<glyph unicode="&#xc9;" horiz-adv-x="1089" d="M84 100q1 139 63 272t172 236q43 38 108.5 80.5t92.5 48.5q20 5 19 15q-2 5 -13 6q-18 0 -59 25t-55 44q-28 37 -19.5 114t51.5 171q52 109 165.5 235t232.5 203q61 39 119.5 58.5t97.5 13.5q43 -8 74 -39q27 -20 30 -45t-2 -57q-6 -124 -87.5 -267.5t-182.5 -209.5 q-35 -22 -43.5 -24.5t-20.5 5.5q-9 6 -6.5 11.5t19.5 15.5q73 54 141.5 146.5t108.5 191.5q26 72 26 135q0 50 -2.5 62t-19.5 26q-21 18 -41 16t-70 -26q-74 -34 -185.5 -136.5t-181.5 -201.5q-92 -129 -130 -246t-3 -160q12 -15 50.5 -30t64.5 -15q40 2 62 3t34.5 0 t15.5 -3t3 -6q0 -5 -17 -14.5t-39 -16.5q-105 -35 -198 -108q-130 -101 -202.5 -247.5t-74.5 -309.5q0 -79 13 -129.5t45 -100.5q69 -105 245 -65q121 26 305 151.5t359 300.5q125 125 137 125q10 0 7 -8q-2 -4 -11 -16q-24 -32 -155 -158t-191 -174q-196 -155 -325 -214 t-249 -48q-132 12 -206 109t-72 255zM977 1724q-8 8 31 86q28 56 36.5 66t30.5 10q28 0 28 -13q0 -16 -40 -87q-23 -43 -34.5 -57.5t-22.5 -14.5q-22 0 -29 10z" />
<glyph unicode="&#xca;" horiz-adv-x="1089" d="M84 100q1 139 63 272t172 236q43 38 108.5 80.5t92.5 48.5q20 5 19 15q-2 5 -13 6q-18 0 -59 25t-55 44q-28 37 -19.5 114t51.5 171q52 109 165.5 235t232.5 203q61 39 119.5 58.5t97.5 13.5q43 -8 74 -39q27 -20 30 -45t-2 -57q-6 -124 -87.5 -267.5t-182.5 -209.5 q-35 -22 -43.5 -24.5t-20.5 5.5q-9 6 -6.5 11.5t19.5 15.5q73 54 141.5 146.5t108.5 191.5q26 72 26 135q0 50 -2.5 62t-19.5 26q-21 18 -41 16t-70 -26q-74 -34 -185.5 -136.5t-181.5 -201.5q-92 -129 -130 -246t-3 -160q12 -15 50.5 -30t64.5 -15q40 2 62 3t34.5 0 t15.5 -3t3 -6q0 -5 -17 -14.5t-39 -16.5q-105 -35 -198 -108q-130 -101 -202.5 -247.5t-74.5 -309.5q0 -79 13 -129.5t45 -100.5q69 -105 245 -65q121 26 305 151.5t359 300.5q125 125 137 125q10 0 7 -8q-2 -4 -11 -16q-24 -32 -155 -158t-191 -174q-196 -155 -325 -214 t-249 -48q-132 12 -206 109t-72 255zM922 1700q0 7 29 61t44 76q57 75 129 -65q36 -70 17 -75q-3 -1 -6 -1q-38 0 -82 78l-29 51l-23 -41q-8 -11 -21.5 -35.5t-16.5 -28.5q-12 -21 -32 -25q-9 -2 -9 5z" />
<glyph unicode="&#xcb;" horiz-adv-x="1089" d="M84 100q-2 -158 72 -255t206 -109q120 -11 249 48t325 214q60 48 191 174t155 158q15 21 10 23q-2 1 -6 1q-12 0 -137 -125q-175 -175 -359 -300.5t-305 -151.5q-176 -40 -245 65q-32 50 -45 100.5t-13 129.5q2 163 74.5 309.5t202.5 247.5q93 73 198 108q22 7 39 16.5 t17 14.5q0 4 -3 6t-15.5 3t-34.5 0t-62 -3q-26 0 -64.5 15t-50.5 30q-35 43 3 160t130 246q70 99 181.5 201.5t185.5 136.5q50 24 70 26t41 -16q17 -14 19.5 -26t2.5 -62q0 -63 -26 -135q-40 -99 -108.5 -191.5t-141.5 -146.5q-17 -10 -19.5 -15.5t6.5 -11.5 q12 -8 20.5 -5.5t43.5 24.5q101 66 182.5 209.5t87.5 267.5q5 32 2 57t-30 45q-31 31 -74 39q-39 6 -97.5 -13.5t-119.5 -58.5q-119 -77 -232.5 -203t-165.5 -235q-43 -94 -51.5 -171t19.5 -114q14 -19 55 -44t59 -25q14 0 13 -8t-19 -13q-27 -6 -92.5 -48.5t-108.5 -80.5 q-110 -103 -172 -236t-63 -272zM911 1747q0 13 18.5 27t35.5 14q15 0 31 -17.5t12 -29.5q-9 -26 -32 -33t-46 10q-19 11 -19 29zM1071.5 1744q0.5 19 11.5 28q12 9 35.5 5.5t32.5 -16.5q11 -17 -1 -37t-34 -20q-25 0 -35 10q-10 11 -9.5 30z" />
<glyph unicode="&#xcc;" horiz-adv-x="489" d="M84 907q-8 18 6 74q40 152 252 367q157 155 305.5 216.5t194.5 -10.5q25 -36 6 -148.5t-76 -262.5q-23 -72 -166 -428q-168 -421 -221.5 -591t-56.5 -286q-1 -62 -4.5 -73t-18.5 -13q-24 -3 -45 21q-23 23 -27 58t7 108q44 284 413 1194q130 324 133 395l2 37h-38 q-57 -3 -150 -55.5t-176 -129.5q-116 -108 -201 -237t-98 -219q-6 -31 -17.5 -36t-23.5 19zM711 1825q0 9 4.5 12.5t19.5 3.5q22 0 38.5 -20t45.5 -82q34 -72 20 -78q-7 -3 -26 4q-23 9 -62.5 70.5t-39.5 89.5z" />
<glyph unicode="&#xcd;" horiz-adv-x="489" d="M84 907q-8 18 6 74q40 152 252 367q157 155 305.5 216.5t194.5 -10.5q25 -36 6 -148.5t-76 -262.5q-23 -72 -166 -428q-168 -421 -221.5 -591t-56.5 -286q-1 -62 -4.5 -73t-18.5 -13q-24 -3 -45 21q-23 23 -27 58t7 108q44 284 413 1194q130 324 133 395l2 37h-38 q-57 -3 -150 -55.5t-176 -129.5q-116 -108 -201 -237t-98 -219q-6 -31 -17.5 -36t-23.5 19zM737 1696q-8 8 31 86q28 55 37 65.5t31 10.5q28 0 27 -14q-1 -18 -40 -87q-22 -43 -34 -57t-23 -14q-22 0 -29 10z" />
<glyph unicode="&#xce;" horiz-adv-x="489" d="M84 907q-8 18 6 74q40 152 252 367q157 155 305.5 216.5t194.5 -10.5q25 -36 6 -148.5t-76 -262.5q-23 -72 -166 -428q-168 -421 -221.5 -591t-56.5 -286q-1 -62 -4.5 -73t-18.5 -13q-24 -3 -45 21q-23 23 -27 58t7 108q44 284 413 1194q130 324 133 395l2 37h-38 q-57 -3 -150 -55.5t-176 -129.5q-116 -108 -201 -237t-98 -219q-6 -31 -17.5 -36t-23.5 19zM682 1671q0 7 29.5 60.5t44.5 76.5q57 75 129 -65q32 -72 10 -76q-38 0 -82 78l-29 51l-22 -41q-8 -11 -22 -35t-17 -28q-12 -21 -32 -26q-9 -2 -9 5z" />
<glyph unicode="&#xcf;" horiz-adv-x="489" d="M84 907q12 -24 23.5 -19t17.5 36q13 90 98 219t201 237q83 77 176 129.5t150 55.5h38l-2 -37q-3 -71 -133 -395q-369 -910 -413 -1194q-11 -73 -7 -108t27 -58q21 -24 45 -21q15 2 18.5 13t4.5 73q3 116 56.5 286t221.5 591q143 356 166 428q57 150 76 262.5t-6 148.5 q-46 72 -194.5 10.5t-305.5 -216.5q-212 -215 -252 -367q-14 -56 -6 -74zM672 1718q0 13 18 27t35 14q15 0 31 -17.5t12 -29.5q-9 -26 -32 -32.5t-46 10.5q-18 11 -18 28zM832.5 1715.5q0.5 18.5 11.5 27.5q12 9 35 6t32 -16q11 -17 -0.5 -37.5t-33.5 -20.5q-24 0 -35 11 q-10 11 -9.5 29.5z" />
<glyph unicode="&#xd0;" horiz-adv-x="1388" d="M66.5 -160q1.5 54 52.5 135q52 80 148 164t212 148l62 32l24 111q27 116 68 242q-67 3 -84 10q-20 9 -25.5 22.5t6.5 22.5q7 3 119 0q127 400 250 623q35 66 59 91t52 25q24 0 32 -7.5t4 -26t-22 -56.5q-51 -104 -120.5 -285.5t-129.5 -367.5q110 -5 129 -18 q19 -16 12 -23q-8 -8 -157 -8q-86 -286 -78 -291q0 -2 74 25q73 30 86 30q36 0 -27 -28q-17 -7 -41 -17q-76 -27 -94 -39q-15 -9 -46.5 -164t-31.5 -225q0 -30 -3 -42t-13 -19q-34 -21 -68 16q-13 15 -15 33t3 96q3 96 16 170q11 63 8 66q-1 2 -25.5 -12.5t-63 -39 t-77.5 -51.5q-125 -85 -204.5 -191.5t-67.5 -172.5q10 -57 64 -83t157 -26q62 2 91 6.5t81 22.5q225 76 411.5 242t346.5 432q125 208 187 383t71 346q8 151 -32.5 236t-141.5 132q-36 19 -57.5 23t-77.5 4q-166 -2 -353 -92.5t-352 -251.5q-75 -70 -144 -175.5t-69 -148.5 q0 -11 -4 -14t-14 -2q-40 6 -5 92q23 54 68 121q79 119 241 243t321 187q383 151 583 -37q61 -58 88 -133.5t27 -189.5q0 -205 -85.5 -436.5t-240.5 -446.5q-84 -120 -173 -206.5t-206 -164.5q-158 -106 -317 -156t-293 -36q-57 6 -89 18t-62 37q-46 42 -44.5 96z" />
<glyph unicode="&#xd1;" horiz-adv-x="1153" d="M69 799q-2 52 40 137q33 67 72 123t104 127q152 166 328.5 268t228.5 55q35 -28 0 -153q-17 -60 -43 -125.5t-94 -216.5q-259 -581 -318 -754q-25 -70 -25 -76l87 168v1l1 1v1l1 1v1h1v1l1 1v1l1 1v1l1 1v1l1 1v1l1 1v1l1 1v1l1 1v1l1 1v1l1 1v1l1 1v1l1 1v1l1 1v1l1 1v1 l1 1v1l1 1v1l1 1v1l1 1v1l1 1v1l1 1v1l1 1v1l1 1v1l1 1v1l1 1q139 275 249 454t261 374q59 76 173.5 188.5t154.5 136.5q45 25 90.5 28t69.5 -19q56 -52 18.5 -224t-186.5 -546q-142 -353 -193 -503.5t-68 -266.5q-17 -114 5 -205q5 -15 1.5 -19t-20.5 -4q-23 0 -53 15 q-34 17 -42 42t-5 99q6 167 110 461q19 55 28 82t23 65.5t18 49l20 52.5t22 56.5t32 80.5t42 105q129 330 171 483t5 166q-15 6 -73 -31t-111 -87q-140 -131 -304 -362t-301 -492q-94 -181 -198 -414q-23 -50 -58.5 -126t-40.5 -87q-19 -38 -36 -49.5t-43 -3.5q-14 5 -16 16 t1 64q12 176 125 464q34 89 127.5 303t153.5 341q155 323 155 389q0 16 -10 16q-13 0 -78 -33q-137 -69 -283.5 -210t-222.5 -277q-27 -44 -45 -99.5t-16 -84.5q2 -19 -1 -25.5t-15 -7.5q-40 -6 -42 41zM991 1681q0 25 26 56.5t46 31.5q24 0 36.5 -10t30.5 -43 q15 -29 26.5 -36.5t23 3.5t26.5 43q25 52 35 52q10 -3 10.5 -22.5t-9.5 -48.5t-25 -46q-15 -15 -41 -17.5t-46 9.5q-21 10 -40 28.5t-25 34.5q-9 29 -28 3l-13 -25q-9 -24 -23 -26q-9 1 -10 13z" />
<glyph unicode="&#xd2;" horiz-adv-x="1007" d="M123 268q2 120 12.5 191t40.5 159q12 34 12.5 47.5t-8.5 41.5q-23 74 -8.5 205t55.5 233q47 118 125.5 214.5t169.5 149.5q68 40 126.5 55t146.5 15q72 0 94.5 -4t62.5 -25q51 -25 107 -82t84 -114q82 -168 22 -498q-31 -166 -69 -284t-105 -253q-78 -163 -189.5 -296 t-211.5 -183q-46 -23 -107 -27t-114 13q-126 44 -193 162q-35 60 -44 108t-9 172zM223 303q-11 -163 31.5 -278.5t128.5 -159.5q40 -21 81 -18t97 32q85 41 188 156.5t175 249.5q139 257 198 557q49 254 22.5 394t-145.5 249q-30 28 -51 41t-53 22q-56 17 -78 17 q-25 0 -88 -13q-76 -17 -134 -48.5t-114 -86.5q-55 -53 -84.5 -95t-66.5 -114q-43 -89 -68 -188.5t-24 -181.5v-58l30 60q37 70 64 107t71 81q108 108 207 105q44 -2 74.5 -14t30.5 -29q0 -12 -19 -7q-43 12 -62.5 10t-53.5 -22q-78 -44 -150.5 -147.5t-126.5 -247.5 q-17 -45 -18 -59t8 -33q15 -30 67 -82q31 -31 47 -42t31 -11q25 0 25 -9q0 -6 -15 -7.5t-36 1.5t-37 10q-13 5 -72 52q-41 40 -45 36q-6 -6 -18 -87t-17 -142zM758 1849q0 9 5 13t19 4q22 0 38.5 -20t45.5 -83q34 -71 20 -77q-7 -3 -26 4q-23 9 -62.5 70t-39.5 89z" />
<glyph unicode="&#xd3;" horiz-adv-x="1007" d="M123 268q2 120 12.5 191t40.5 159q12 34 12.5 47.5t-8.5 41.5q-23 74 -8.5 205t55.5 233q47 118 125.5 214.5t169.5 149.5q68 40 126.5 55t146.5 15q72 0 94.5 -4t62.5 -25q51 -25 107 -82t84 -114q82 -168 22 -498q-31 -166 -69 -284t-105 -253q-78 -163 -189.5 -296 t-211.5 -183q-46 -23 -107 -27t-114 13q-126 44 -193 162q-35 60 -44 108t-9 172zM223 303q-11 -163 31.5 -278.5t128.5 -159.5q40 -21 81 -18t97 32q85 41 188 156.5t175 249.5q139 257 198 557q49 254 22.5 394t-145.5 249q-30 28 -51 41t-53 22q-56 17 -78 17 q-25 0 -88 -13q-76 -17 -134 -48.5t-114 -86.5q-55 -53 -84.5 -95t-66.5 -114q-43 -89 -68 -188.5t-24 -181.5v-58l30 60q37 70 64 107t71 81q108 108 207 105q44 -2 74.5 -14t30.5 -29q0 -12 -19 -7q-43 12 -62.5 10t-53.5 -22q-78 -44 -150.5 -147.5t-126.5 -247.5 q-17 -45 -18 -59t8 -33q15 -30 67 -82q31 -31 47 -42t31 -11q25 0 25 -9q0 -6 -15 -7.5t-36 1.5t-37 10q-13 5 -72 52q-41 40 -45 36q-6 -6 -18 -87t-17 -142zM784 1720q-8 8 31 86q28 55 37 65.5t31 10.5q27 0 27 -13q0 -17 -40 -87q-23 -43 -34.5 -57.5t-22.5 -14.5 q-22 0 -29 10z" />
<glyph unicode="&#xd4;" horiz-adv-x="1007" d="M123 268q2 120 12.5 191t40.5 159q12 34 12.5 47.5t-8.5 41.5q-23 74 -8.5 205t55.5 233q47 118 125.5 214.5t169.5 149.5q68 40 126.5 55t146.5 15q72 0 94.5 -4t62.5 -25q51 -25 107 -82t84 -114q82 -168 22 -498q-31 -166 -69 -284t-105 -253q-78 -163 -189.5 -296 t-211.5 -183q-46 -23 -107 -27t-114 13q-126 44 -193 162q-35 60 -44 108t-9 172zM223 303q-11 -163 31.5 -278.5t128.5 -159.5q40 -21 81 -18t97 32q85 41 188 156.5t175 249.5q139 257 198 557q49 254 22.5 394t-145.5 249q-30 28 -51 41t-53 22q-56 17 -78 17 q-25 0 -88 -13q-76 -17 -134 -48.5t-114 -86.5q-55 -53 -84.5 -95t-66.5 -114q-43 -89 -68 -188.5t-24 -181.5v-58l30 60q37 70 64 107t71 81q108 108 207 105q44 -2 74.5 -14t30.5 -29q0 -12 -19 -7q-43 12 -62.5 10t-53.5 -22q-78 -44 -150.5 -147.5t-126.5 -247.5 q-17 -45 -18 -59t8 -33q15 -30 67 -82q31 -31 47 -42t31 -11q25 0 25 -9q0 -6 -15 -7.5t-36 1.5t-37 10q-13 5 -72 52q-41 40 -45 36q-6 -6 -18 -87t-17 -142zM729 1696q0 7 29.5 60.5t44.5 76.5q57 75 129 -66q35 -69 16 -74q-3 -1 -6 -1q-39 0 -82 77l-29 52l-22 -41 q-8 -11 -22 -35.5t-17 -28.5q-12 -21 -32 -25q-9 -2 -9 5z" />
<glyph unicode="&#xd5;" horiz-adv-x="1007" d="M123 268q2 120 12.5 191t40.5 159q12 34 12.5 47.5t-8.5 41.5q-23 74 -8.5 205t55.5 233q47 118 125.5 214.5t169.5 149.5q68 40 126.5 55t146.5 15q72 0 94.5 -4t62.5 -25q51 -25 107 -82t84 -114q82 -168 22 -498q-31 -166 -69 -284t-105 -253q-78 -163 -189.5 -296 t-211.5 -183q-46 -23 -107 -27t-114 13q-126 44 -193 162q-35 60 -44 108t-9 172zM223 303q-11 -163 31.5 -278.5t128.5 -159.5q40 -21 81 -18t97 32q85 41 188 156.5t175 249.5q139 257 198 557q49 254 22.5 394t-145.5 249q-30 28 -51 41t-53 22q-56 17 -78 17 q-25 0 -88 -13q-76 -17 -134 -48.5t-114 -86.5q-55 -53 -84.5 -95t-66.5 -114q-43 -89 -68 -188.5t-24 -181.5v-58l30 60q37 70 64 107t71 81q108 108 207 105q44 -2 74.5 -14t30.5 -29q0 -12 -19 -7q-43 12 -62.5 10t-53.5 -22q-78 -44 -150.5 -147.5t-126.5 -247.5 q-17 -45 -18 -59t8 -33q15 -30 67 -82q31 -31 47 -42t31 -11q25 0 25 -9q0 -6 -15 -7.5t-36 1.5t-37 10q-13 5 -72 52q-41 40 -45 36q-6 -6 -18 -87t-17 -142zM719 1743q0 25 26 56.5t46 31.5q24 0 36.5 -10t30.5 -43q15 -29 26.5 -36.5t23 3.5t26.5 43q25 51 35 51 q10 -3 10.5 -22.5t-10 -48.5t-25.5 -46q-15 -15 -40.5 -17.5t-45.5 9.5q-21 10 -40 29t-25 35q-9 29 -28 2l-13 -25q-9 -24 -23 -25q-9 1 -10 13z" />
<glyph unicode="&#xd6;" horiz-adv-x="1007" d="M123 268q2 120 12.5 191t40.5 159q12 34 12.5 47.5t-8.5 41.5q-23 74 -8.5 205t55.5 233q47 118 125.5 214.5t169.5 149.5q68 40 126.5 55t146.5 15q72 0 94.5 -4t62.5 -25q51 -25 107 -82t84 -114q82 -168 22 -498q-31 -166 -69 -284t-105 -253q-78 -163 -189.5 -296 t-211.5 -183q-46 -23 -107 -27t-114 13q-126 44 -193 162q-35 60 -44 108t-9 172zM223 303q-11 -163 31.5 -278.5t128.5 -159.5q40 -21 81 -18t97 32q85 41 188 156.5t175 249.5q139 257 198 557q49 254 22.5 394t-145.5 249q-30 28 -51 41t-53 22q-56 17 -78 17 q-25 0 -88 -13q-76 -17 -134 -48.5t-114 -86.5q-55 -53 -84.5 -95t-66.5 -114q-43 -89 -68 -188.5t-24 -181.5v-58l30 60q37 70 64 107t71 81q108 108 207 105q44 -2 74.5 -14t30.5 -29q0 -12 -19 -7q-43 12 -62.5 10t-53.5 -22q-78 -44 -150.5 -147.5t-126.5 -247.5 q-17 -45 -18 -59t8 -33q15 -30 67 -82q31 -31 47 -42t31 -11q25 0 25 -9q0 -6 -15 -7.5t-36 1.5t-37 10q-13 5 -72 52q-41 40 -45 36q-6 -6 -18 -87t-17 -142zM719 1743q0 13 18 27t35 14q15 0 31 -17.5t12 -29.5q-9 -26 -32 -33t-46 10q-18 11 -18 29zM879.5 1739.5 q0.5 18.5 11.5 27.5q12 9 35 6t32 -16q11 -17 -0.5 -37t-33.5 -20q-25 0 -35 10q-10 11 -9.5 29.5z" />
<glyph unicode="&#xd7;" horiz-adv-x="589" d="M369 14q-6 4 11.5 29t78.5 102q67 81 67 88t-51 76q-46 65 -74 115t-22 57q5 8 26.5 8.5t32.5 -6.5q5 -3 72 -100l63 -96l80 102q77 100 99 100q18 0 18 -2q0 -1 -11 -15t-35 -45t-42 -54q-88 -109 -84 -121q2 -3 10.5 -15.5t26 -38.5t29.5 -44q90 -129 90 -148 q0 -4 -17 -4q-16 0 -57 45q-43 47 -86 100l-45 58l-72 -92q-90 -120 -108 -99z" />
<glyph unicode="&#xd8;" horiz-adv-x="950" d="M11 -36.5q1 6.5 16.5 30t54.5 76.5q-21 62 -21 213q2 119 12.5 190t41.5 160q12 34 12.5 47t-8.5 41q-23 74 -8.5 205t55.5 233q47 118 125.5 215t169.5 150q67 40 125.5 54.5t146.5 14.5q74 0 96 -4t62 -24q47 -23 99 -75t83 -106q24 28 29 33q26 26 52 37t38 0 q6 -5 2.5 -19.5t-23.5 -47.5t-61 -93q46 -156 -6 -424q-31 -165 -69 -282.5t-105 -253.5q-77 -163 -189.5 -296t-212.5 -183q-46 -23 -107 -27.5t-114 12.5q-118 41 -184 150q-29 -34 -41 -41.5t-33 -7.5q-33 0 -37 12q-2 4 -1 10.5zM162 317q-3 -81 2 -135q7 10 43.5 59 t60.5 81q55 71 92 124q-25 4 -47 13q-14 5 -71 51q-41 41 -45 37q-6 -6 -18 -87.5t-17 -142.5zM176 795l31 59q37 70 64 107t71 81q108 108 207 105q43 -2 73.5 -14t30.5 -29q0 -11 -18 -6q-43 12 -63 9.5t-54 -22.5q-78 -44 -150 -147t-126 -248q-17 -45 -18.5 -58.5 t7.5 -33.5q14 -28 68 -82q50 -50 74 -53q570 763 676 893q-37 75 -111 143q-52 50 -104 64q-53 16 -78 16q-30 0 -88 -12q-76 -17 -134 -48.5t-114 -86.5q-55 -54 -85.5 -96t-66.5 -113q-43 -89 -68 -189t-24 -182v-57zM184 68q42 -138 138 -189q41 -20 81 -17t97 32 q85 41 187.5 156t174.5 249q140 260 199 557q51 252 22 401q-194 -264 -411 -548l-430 -566q-47 -60 -58 -75z" />
<glyph unicode="&#xd9;" horiz-adv-x="1028" d="M55 864q-38 28 37 158t203 258q94 92 195 155.5t184 82.5q32 6 46 5t36 -12q37 -17 48 -39t11 -77q0 -61 -21.5 -132t-82.5 -204q-218 -483 -312.5 -719.5t-111.5 -343.5q-14 -84 1.5 -102t69.5 18q72 50 160 184.5t240 427.5q277 529 401 725q61 95 123 203 q58 97 68 102q9 3 28 -12l21 -16l-19 -64q-22 -72 -129 -346q-223 -577 -292.5 -795.5t-71.5 -340.5q0 -87 4 -103q3 -9 -9 -10q-22 -1 -44 16q-26 25 -34 55t-7 99q0 109 32 239t127 400q41 121 105.5 288t83.5 201q7 14 4 14q-2 -1 -4 -3q-30 -30 -248 -455 q-243 -471 -304 -580.5t-126 -187.5q-112 -136 -193 -96q-52 22 -71 75q-9 23 -9 96t9 117q22 111 133 379.5t274 599.5q71 148 100 223.5t29 114.5q0 20 -3.5 24.5t-22.5 4.5q-32 -2 -102.5 -33t-127.5 -69q-87 -60 -181 -163.5t-150 -201.5q-27 -47 -46.5 -92.5 t-19.5 -63.5q0 -26 -31 -4zM981 1739q0 9 5 12.5t20 3.5q22 0 38.5 -20t45.5 -82q35 -73 18 -78q-7 -2 -25 4q-23 9 -62.5 70.5t-39.5 89.5z" />
<glyph unicode="&#xda;" horiz-adv-x="1028" d="M55 864q-38 28 37 158t203 258q94 92 195 155.5t184 82.5q32 6 46 5t36 -12q37 -17 48 -39t11 -77q0 -61 -21.5 -132t-82.5 -204q-218 -483 -312.5 -719.5t-111.5 -343.5q-14 -84 1.5 -102t69.5 18q72 50 160 184.5t240 427.5q277 529 401 725q61 95 123 203 q58 97 68 102q9 3 28 -12l21 -16l-19 -64q-22 -72 -129 -346q-223 -577 -292.5 -795.5t-71.5 -340.5q0 -87 4 -103q3 -9 -9 -10q-22 -1 -44 16q-26 25 -34 55t-7 99q0 109 32 239t127 400q41 121 105.5 288t83.5 201q7 14 4 14q-2 -1 -4 -3q-30 -30 -248 -455 q-243 -471 -304 -580.5t-126 -187.5q-112 -136 -193 -96q-52 22 -71 75q-9 23 -9 96t9 117q22 111 133 379.5t274 599.5q71 148 100 223.5t29 114.5q0 20 -3.5 24.5t-22.5 4.5q-32 -2 -102.5 -33t-127.5 -69q-87 -60 -181 -163.5t-150 -201.5q-27 -47 -46.5 -92.5 t-19.5 -63.5q0 -26 -31 -4zM1008 1610q-9 9 30 86q28 55 37 65.5t31 10.5q16 0 22 -3t5 -14t-10 -29.5t-29 -54.5q-22 -43 -34.5 -57.5t-23.5 -14.5q-21 0 -28 11z" />
<glyph unicode="&#xdb;" horiz-adv-x="1028" d="M55 864q-38 28 37 158t203 258q94 92 195 155.5t184 82.5q32 6 46 5t36 -12q37 -17 48 -39t11 -77q0 -61 -21.5 -132t-82.5 -204q-218 -483 -312.5 -719.5t-111.5 -343.5q-14 -84 1.5 -102t69.5 18q72 50 160 184.5t240 427.5q277 529 401 725q61 95 123 203 q58 97 68 102q9 3 28 -12l21 -16l-19 -64q-22 -72 -129 -346q-223 -577 -292.5 -795.5t-71.5 -340.5q0 -87 4 -103q3 -9 -9 -10q-22 -1 -44 16q-26 25 -34 55t-7 99q0 109 32 239t127 400q41 121 105.5 288t83.5 201q7 14 4 14q-2 -1 -4 -3q-30 -30 -248 -455 q-243 -471 -304 -580.5t-126 -187.5q-112 -136 -193 -96q-52 22 -71 75q-9 23 -9 96t9 117q22 111 133 379.5t274 599.5q71 148 100 223.5t29 114.5q0 20 -3.5 24.5t-22.5 4.5q-32 -2 -102.5 -33t-127.5 -69q-87 -60 -181 -163.5t-150 -201.5q-27 -47 -46.5 -92.5 t-19.5 -63.5q0 -26 -31 -4zM952 1585q0 7 29.5 60.5t44.5 76.5q57 75 129 -65q32 -72 10 -76q-38 0 -82 78l-28 51l-23 -41q-8 -11 -22 -35t-17 -28q-12 -21 -32 -26q-9 -2 -9 5z" />
<glyph unicode="&#xdc;" horiz-adv-x="1028" d="M55 864q31 -22 31 4q0 18 19.5 63.5t46.5 92.5q56 98 150 201.5t181 163.5q57 38 127.5 69t102.5 33q19 0 22.5 -4.5t3.5 -24.5q0 -39 -29 -114.5t-100 -223.5q-163 -331 -274 -599.5t-133 -379.5q-9 -44 -9 -117t9 -96q19 -53 71 -75q81 -40 193 96q65 78 126 187.5 t304 580.5q218 425 248 455q5 5 4 1l-4 -12q-19 -34 -83.5 -201t-105.5 -288q-95 -270 -127 -400t-32 -239q-1 -69 7 -99t34 -55q25 -20 47 -16q9 2 6 10q-4 16 -4 103q2 122 71.5 340.5t292.5 795.5q107 274 129 346l19 64l-21 16q-19 15 -28 12q-10 -5 -68 -102 q-62 -108 -123 -203q-124 -196 -401 -725q-152 -293 -240 -427.5t-160 -184.5q-54 -36 -69.5 -18t-1.5 102q17 107 111.5 343.5t312.5 719.5q61 133 82.5 204t21.5 132q0 55 -11 77t-48 39q-22 11 -36 12t-46 -5q-83 -19 -184 -82.5t-195 -155.5q-128 -128 -203 -258 t-37 -158zM942 1632q0 13 18 27t35 14q15 0 31 -17.5t12 -29.5q-9 -26 -31.5 -32.5t-45.5 10.5q-19 11 -19 28zM1102.5 1629q0.5 19 11.5 28q12 9 35.5 6t32.5 -16q11 -17 -1 -37.5t-34 -20.5q-25 0 -35 10q-10 11 -9.5 30z" />
<glyph unicode="&#xdd;" horiz-adv-x="1120" d="M-86 836q-9 85 86 282q42 84 67.5 125t75.5 105q112 145 242 211q67 34 106 37.5t64 -21.5q13 -13 16.5 -27t3.5 -51q0 -69 -26 -162t-137 -420q-76 -226 -99 -330.5t-6 -156.5q8 -27 20 -35.5t32 -2t55 29.5q121 80 270 319q127 204 195 359q66 147 139.5 294.5 t93.5 170.5q17 20 27.5 26t27.5 6q26 0 44.5 -16t19.5 -41q1 -6 2 -22t2 -21q2 -26 -11 -152.5t-24 -187.5q-15 -93 -57.5 -278.5t-67.5 -268.5q-78 -266 -153 -448q-63 -155 -155.5 -282t-186.5 -189q-84 -54 -178 -73t-162 5q-42 15 -66 32.5t-41 47.5q-29 53 -24.5 112.5 t43.5 141.5q33 68 103 139q56 54 60 31q0 -4 -8 -12q-13 -7 -61.5 -76t-67.5 -107q-28 -55 -31 -115.5t19 -99.5q34 -63 103.5 -73t160.5 34q82 40 154 124t147 227q62 121 150 366q61 168 99 304.5t85 361.5q20 87 51.5 274.5t26.5 192.5q-4 4 -29.5 -35.5t-50.5 -87.5 q-44 -91 -98 -213q-114 -256 -205 -410q-178 -307 -311 -393q-33 -23 -50.5 -29t-50.5 -6q-49 0 -76 19q-55 36 -61.5 124.5t34.5 249t138 437.5q117 323 117 368q0 24 -65 -6q-19 -9 -42 -22q-51 -28 -121 -97t-114 -135q-45 -64 -95 -169.5t-71 -178.5q-24 -78 -21 -133 q3 -34 1 -43.5t-11 -9.5q-19 0 -31.5 21.5t-15.5 58.5zM788 1659q-8 8 31 86q28 55 37 65.5t31 10.5q28 0 27 -14q-1 -18 -40 -87q-22 -43 -34 -57t-23 -14q-22 0 -29 10z" />
<glyph unicode="&#xdf;" horiz-adv-x="901" d="M332 -127.5q1 36.5 12 160.5q44 451 135 794q46 181 91 278.5t116 168.5q51 51 92 71t99 23q55 3 91 -13t66 -55q17 -22 21.5 -38.5t7.5 -57.5q3 -68 -20.5 -116t-104.5 -138q-77 -89 -106.5 -130.5t-28.5 -61.5q0 -15 19.5 -33t74.5 -53q71 -46 108 -101.5t52 -138.5 q13 -85 -17.5 -181t-89.5 -153q-103 -95 -196 -92q-42 0 -96 17t-66 34q-22 31 28 10l9 -4q37 -18 82 -22q70 -6 137 53t102.5 154t22.5 186q-12 81 -46 132t-122 124q-50 38 -53 64q-3 45 104 178q80 98 104.5 144t28.5 106t-26.5 106.5t-73.5 46.5q-57 0 -125.5 -69.5 t-114.5 -173.5q-54 -121 -111 -383t-102 -586q-31 -214 -40 -257t-29 -44q-21 -4 -27 2q-9 12 -8 48.5z" />
<glyph unicode="&#xe0;" horiz-adv-x="694" d="M67.5 86q-11.5 49 3.5 114t52 124q23 40 59 62t76 22q31 0 47 -8.5t29 -34.5l12 -25l14 25q17 25 31.5 34t34.5 9q26 2 28 -18t-20 -77q-58 -150 -65 -279.5t43 -135.5q22 -3 79.5 35.5t108.5 89.5q111 111 244 272q23 29 31.5 26t-13.5 -32q-27 -36 -113.5 -139.5 t-125.5 -143.5q-37 -40 -90.5 -81t-86.5 -54q-47 -20 -104 8q-19 9 -31 21t-22 34q-12 26 -15 48.5t0 83.5q8 97 11 114q2 5 0 5q-8 -1 -25 -33q-60 -97 -86.5 -120.5t-60.5 -8.5q-34 14 -45.5 63zM154 59l20 25q20 24 82 119q41 66 48 83.5t1 39.5q-12 47 -31 47 q-39 -3 -86 -168q-23 -75 -28 -113zM246 635q0 9 4.5 12.5t19.5 3.5q22 0 38.5 -20t45.5 -82q34 -72 20 -78q-7 -3 -26 4q-23 9 -62.5 70.5t-39.5 89.5z" />
<glyph unicode="&#xe1;" horiz-adv-x="694" d="M67.5 86q-11.5 49 3.5 114t52 124q23 40 59 62t76 22q31 0 47 -8.5t29 -34.5l12 -25l14 25q17 25 31.5 34t34.5 9q26 2 28 -18t-20 -77q-58 -150 -65 -279.5t43 -135.5q22 -3 79.5 35.5t108.5 89.5q111 111 244 272q23 29 31.5 26t-13.5 -32q-27 -36 -113.5 -139.5 t-125.5 -143.5q-37 -40 -90.5 -81t-86.5 -54q-47 -20 -104 8q-19 9 -31 21t-22 34q-12 26 -15 48.5t0 83.5q8 97 11 114q2 5 0 5q-8 -1 -25 -33q-60 -97 -86.5 -120.5t-60.5 -8.5q-34 14 -45.5 63zM154 59l20 25q20 24 82 119q41 66 48 83.5t1 39.5q-12 47 -31 47 q-39 -3 -86 -168q-23 -75 -28 -113zM272 506q-8 8 31 86q28 55 37 65.5t31 10.5q28 0 27 -14q0 -16 -40 -87q-22 -43 -34 -57t-23 -14q-22 0 -29 10z" />
<glyph unicode="&#xe2;" horiz-adv-x="694" d="M67.5 86q-11.5 49 3.5 114t52 124q23 40 59 62t76 22q31 0 47 -8.5t29 -34.5l12 -25l14 25q17 25 31.5 34t34.5 9q26 2 28 -18t-20 -77q-58 -150 -65 -279.5t43 -135.5q22 -3 79.5 35.5t108.5 89.5q111 111 244 272q23 29 31.5 26t-13.5 -32q-27 -36 -113.5 -139.5 t-125.5 -143.5q-37 -40 -90.5 -81t-86.5 -54q-47 -20 -104 8q-19 9 -31 21t-22 34q-12 26 -15 48.5t0 83.5q8 97 11 114q2 5 0 5q-8 -1 -25 -33q-60 -97 -86.5 -120.5t-60.5 -8.5q-34 14 -45.5 63zM154 59l20 25q20 24 82 119q41 66 48 83.5t1 39.5q-12 47 -31 47 q-39 -3 -86 -168q-23 -75 -28 -113zM217 481q0 7 29.5 60.5t44.5 76.5q57 75 129 -65q32 -72 10 -76q-38 0 -82 78l-29 51l-22 -41q-8 -11 -22 -35t-17 -28q-12 -21 -32 -26q-9 -2 -9 5z" />
<glyph unicode="&#xe3;" horiz-adv-x="694" d="M67.5 86q-11.5 49 3.5 114t52 124q23 40 59 62t76 22q31 0 47 -8.5t29 -34.5l12 -25l14 25q17 25 31.5 34t34.5 9q26 2 28 -18t-20 -77q-58 -150 -65 -279.5t43 -135.5q22 -3 79.5 35.5t108.5 89.5q111 111 244 272q23 29 31.5 26t-13.5 -32q-27 -36 -113.5 -139.5 t-125.5 -143.5q-37 -40 -90.5 -81t-86.5 -54q-47 -20 -104 8q-19 9 -31 21t-22 34q-12 26 -15 48.5t0 83.5q8 97 11 114q2 5 0 5q-8 -1 -25 -33q-60 -97 -86.5 -120.5t-60.5 -8.5q-34 14 -45.5 63zM154 59l20 25q20 24 82 119q41 66 48 83.5t1 39.5q-12 47 -31 47 q-39 -3 -86 -168q-23 -75 -28 -113zM207 528q0 25 26 56.5t46 31.5q24 0 36.5 -10t30.5 -43q15 -29 26.5 -36.5t23 3.5t26.5 43q25 52 35 52q10 -3 10.5 -22.5t-10 -48.5t-25.5 -46q-15 -15 -40.5 -17.5t-45.5 9.5q-21 10 -40 28.5t-25 34.5q-9 29 -28 3l-13 -25 q-9 -24 -23 -26q-10 -1 -10 13z" />
<glyph unicode="&#xe4;" horiz-adv-x="694" d="M67.5 86q-11.5 49 3.5 114t52 124q23 40 59 62t76 22q31 0 47 -8.5t29 -34.5l12 -25l14 25q17 25 31.5 34t34.5 9q26 2 28 -18t-20 -77q-58 -150 -65 -279.5t43 -135.5q22 -3 79.5 35.5t108.5 89.5q111 111 244 272q23 29 31.5 26t-13.5 -32q-27 -36 -113.5 -139.5 t-125.5 -143.5q-37 -40 -90.5 -81t-86.5 -54q-47 -20 -104 8q-19 9 -31 21t-22 34q-12 26 -15 48.5t0 83.5q8 97 11 114q2 5 0 5q-8 -1 -25 -33q-60 -97 -86.5 -120.5t-60.5 -8.5q-34 14 -45.5 63zM154 59l20 25q20 24 82 119q41 66 48 83.5t1 39.5q-12 47 -31 47 q-39 -3 -86 -168q-23 -75 -28 -113zM207 528q0 13 18 27t35 14q15 0 31 -17.5t12 -29.5q-9 -26 -32 -32.5t-46 10.5q-18 11 -18 28zM367.5 525.5q0.5 18.5 11.5 27.5q12 9 35 6t32 -16q11 -17 -0.5 -37.5t-33.5 -20.5q-24 0 -35 11q-10 11 -9.5 29.5z" />
<glyph unicode="&#xe5;" horiz-adv-x="694" d="M67.5 86q-11.5 49 3.5 114t52 124q23 40 59 62t76 22q31 0 47 -8.5t29 -34.5l12 -25l14 25q17 25 31.5 34t34.5 9q26 2 28 -18t-20 -77q-58 -150 -65 -279.5t43 -135.5q22 -3 79.5 35.5t108.5 89.5q111 111 244 272q23 29 31.5 26t-13.5 -32q-27 -36 -113.5 -139.5 t-125.5 -143.5q-37 -40 -90.5 -81t-86.5 -54q-47 -20 -104 8q-19 9 -31 21t-22 34q-12 26 -15 48.5t0 83.5q8 97 11 114q2 5 0 5q-8 -1 -25 -33q-60 -97 -86.5 -120.5t-60.5 -8.5q-34 14 -45.5 63zM154 59l20 25q20 24 82 119q41 66 48 83.5t1 39.5q-12 47 -31 47 q-39 -3 -86 -168q-23 -75 -28 -113zM225 596q11 35 37.5 55.5t63.5 20.5q34 0 63 -14t39 -37q10 -16 6 -58q-3 -23 -9.5 -35.5t-25.5 -29.5q-53 -50 -123 -13q-32 15 -46 46.5t-5 64.5zM294.5 570q-4.5 -31 12.5 -56q10 -17 21.5 -17.5t31.5 13.5q23 15 33 44t2 56 q-13 31 -28 37q-8 8 -15 4q-9 0 -30 -24q-23 -26 -27.5 -57z" />
<glyph unicode="&#xe6;" horiz-adv-x="870" d="M71.5 88q-11.5 49 3.5 114.5t52 125.5q52 84 135 84q31 0 47.5 -9.5t28.5 -35.5l12 -25l17 25q15 25 29.5 35t35.5 10q16 0 25 -9q3 1 11.5 7t14.5 8q27 10 47 10h9q31 0 49 -19t18 -53q0 -37 -16.5 -79t-42.5 -68q-20 -20 -33 -26.5t-33 -6.5q-36 0 -39 -8 q-6 -12 -6 -74q-1 -112 52.5 -130t185.5 48q84 41 128.5 75t131.5 122q104 104 108 100q7 -7 -38.5 -61t-109 -116t-101.5 -87q-102 -70 -201 -102q-104 -36 -174 4q-28 17 -43 35v-7q3 -24 -33 -43t-49 5q-12 24 -13.5 46.5t1.5 84.5q4 97 10 116q1 7 -4 1q-9 -8 -23 -31 q-60 -97 -86.5 -120.5t-60.5 -8.5q-34 14 -45.5 63zM158 61l22 25q12 14 80 119q42 69 49.5 86.5t1.5 38.5q-12 45 -32 45q-39 -3 -86 -168q-28 -105 -29 -113zM459 207q4 -12 12.5 -11.5t28.5 15.5q35 27 52.5 83t2.5 87q-3 8 -8 8q-12 0 -29 -20q-23 -24 -44 -84t-15 -78z " />
<glyph unicode="&#xe7;" horiz-adv-x="673" d="M84 35q-5 42 0 78q22 215 170 305q24 15 67 15.5t64 -13.5q26 -19 38 -65.5t-3 -71.5q-16 -24 -26 21l-3 15q-4 29 -20.5 54.5t-30.5 25.5q-11 0 -45.5 -37t-46.5 -61q-66 -129 -66 -250q0 -45 19 -67q12 -17 21.5 -19.5t43.5 0.5q67 6 147.5 53t282.5 199 q97 73 131.5 95t46.5 18q2 0 -11 -12t-38.5 -33t-54.5 -43q-125 -93 -180 -142q-129 -106 -238 -151q-49 -19 -110 -19q-6 -10 -13 -26q-15 -32 -14 -37.5t23 -1.5q18 3 27 -0.5t24 -20.5q22 -22 24.5 -44t-12.5 -54q-14 -28 -49 -41.5t-66 -1.5q-25 8 -23 16q1 8 23 5 q50 -3 70 57q13 43 -4 57t-55 -8q-17 -8 -22.5 -7.5t-8.5 9.5q-10 27 18 92q0 4 4 8q-7 1 -16 4.5t-12 4.5q-26 11 -49 38.5t-27 55.5z" />
<glyph unicode="&#xe8;" horiz-adv-x="595" d="M70.5 78.5q-19.5 75.5 11.5 175.5q46 144 135 184q33 11 49 11q34 2 55 -17.5t21 -54.5q0 -37 -17.5 -79.5t-43.5 -68.5q-18 -19 -30 -24.5t-34 -5.5q-35 0 -39 -11q-6 -6 -6 -73q-2 -111 51.5 -129.5t186.5 47.5q87 44 131 77t129 119q103 103 108 101 q11 -11 -89.5 -117t-160.5 -147q-116 -75 -200 -103q-101 -35 -174 6q-64 34 -83.5 109.5zM186 682q0 9 5 12.5t20 3.5q22 0 38.5 -20t45.5 -82q34 -72 20 -78q-7 -3 -26 4q-23 9 -63 70.5t-40 89.5zM193 227q5 -13 14 -12t29 18q32 25 48.5 79.5t6.5 88.5q-2 8 -5 11 t-8.5 0t-10 -7.5t-13.5 -15.5q-23 -24 -45 -84t-16 -78z" />
<glyph unicode="&#xe9;" horiz-adv-x="595" d="M70.5 78.5q-19.5 75.5 11.5 175.5q46 144 135 184q33 11 49 11q34 2 55 -17.5t21 -54.5q0 -37 -17.5 -79.5t-43.5 -68.5q-18 -19 -30 -24.5t-34 -5.5q-35 0 -39 -11q-6 -6 -6 -73q-2 -111 51.5 -129.5t186.5 47.5q87 44 131 77t129 119q103 103 108 101 q11 -11 -89.5 -117t-160.5 -147q-116 -75 -200 -103q-101 -35 -174 6q-64 34 -83.5 109.5zM193 227q5 -13 14 -12t29 18q32 25 48.5 79.5t6.5 88.5q-2 8 -5 11t-8.5 0t-10 -7.5t-13.5 -15.5q-23 -24 -45 -84t-16 -78zM213 553q-8 8 31 86q28 56 36.5 66t30.5 10q16 0 22 -3 t5 -14t-10 -29.5t-29 -54.5q-22 -43 -34 -57t-23 -14q-22 0 -29 10z" />
<glyph unicode="&#xea;" horiz-adv-x="595" d="M70.5 78.5q-19.5 75.5 11.5 175.5q46 144 135 184q33 11 49 11q34 2 55 -17.5t21 -54.5q0 -37 -17.5 -79.5t-43.5 -68.5q-18 -19 -30 -24.5t-34 -5.5q-35 0 -39 -11q-6 -6 -6 -73q-2 -111 51.5 -129.5t186.5 47.5q87 44 131 77t129 119q103 103 108 101 q11 -11 -89.5 -117t-160.5 -147q-116 -75 -200 -103q-101 -35 -174 6q-64 34 -83.5 109.5zM158 528q0 7 29 61.5t44 76.5q57 75 129 -66q36 -70 17 -75q-3 -1 -6 -1q-38 0 -82 78l-29 51l-22 -41q-8 -11 -22 -35t-17 -28q-12 -21 -32 -26q-9 -2 -9 5zM193 227q5 -13 14 -12 t29 18q32 25 48.5 79.5t6.5 88.5q-2 8 -5 11t-8.5 0t-10 -7.5t-13.5 -15.5q-23 -24 -45 -84t-16 -78z" />
<glyph unicode="&#xeb;" horiz-adv-x="595" d="M70.5 78.5q-19.5 75.5 11.5 175.5q46 144 135 184q33 11 49 11q34 2 55 -17.5t21 -54.5q0 -37 -17.5 -79.5t-43.5 -68.5q-18 -19 -30 -24.5t-34 -5.5q-35 0 -39 -11q-6 -6 -6 -73q-2 -111 51.5 -129.5t186.5 47.5q87 44 131 77t129 119q103 103 108 101 q11 -11 -89.5 -117t-160.5 -147q-116 -75 -200 -103q-101 -35 -174 6q-64 34 -83.5 109.5zM147 575q0 13 18.5 27t35.5 14q15 0 31 -17.5t12 -29.5q-9 -26 -32 -32.5t-46 10.5q-19 11 -19 28zM193 227q5 -13 14 -12t29 18q32 25 48.5 79.5t6.5 88.5q-2 8 -5 11t-8.5 0 t-10 -7.5t-13.5 -15.5q-23 -24 -45 -84t-16 -78zM307.5 572.5q0.5 18.5 11.5 27.5q12 9 35.5 6t32.5 -16q11 -17 -1 -37.5t-34 -20.5q-24 0 -35 11q-10 11 -9.5 29.5z" />
<glyph unicode="&#xec;" horiz-adv-x="460" d="M76 72q-7 55 23 171.5t59 147.5q21 21 51 21q23 0 29 -13q4 -15 -25 -133q-57 -225 -14 -268q10 -10 18 -11t33 7q101 37 274 213q112 114 131 116q15 2 -57 -77q-193 -213 -313 -273q-34 -17 -79 -17t-73 17q-49 30 -57 99zM154 635q0 9 4.5 12.5t19.5 3.5 q22 0 38.5 -20t45.5 -82q34 -72 20 -78q-7 -3 -26 4q-23 9 -62.5 70.5t-39.5 89.5z" />
<glyph unicode="&#xed;" horiz-adv-x="460" d="M76 72q-7 55 23 171.5t59 147.5q21 21 51 21q23 0 29 -13q4 -15 -25 -133q-57 -225 -14 -268q10 -10 18 -11t33 7q101 37 274 213q112 114 131 116q15 2 -57 -77q-193 -213 -313 -273q-34 -17 -79 -17t-73 17q-49 30 -57 99zM180 506q-8 8 31 86q28 55 37 65.5t31 10.5 q28 0 27 -14q0 -16 -40 -87q-22 -43 -34 -57t-23 -14q-22 0 -29 10z" />
<glyph unicode="&#xee;" horiz-adv-x="460" d="M76 72q-7 55 23 171.5t59 147.5q21 21 51 21q23 0 29 -13q4 -15 -25 -133q-57 -225 -14 -268q10 -10 18 -11t33 7q101 37 274 213q112 114 131 116q15 2 -57 -77q-193 -213 -313 -273q-34 -17 -79 -17t-73 17q-49 30 -57 99zM125 481q0 7 29.5 60.5t44.5 76.5 q57 75 129 -65q32 -72 10 -76q-38 0 -82 78l-29 51l-22 -41q-8 -11 -22 -35t-17 -28q-12 -21 -32 -26q-9 -2 -9 5z" />
<glyph unicode="&#xef;" horiz-adv-x="460" d="M76 72q-7 55 23 171.5t59 147.5q21 21 51 21q23 0 29 -13q4 -15 -25 -133q-57 -225 -14 -268q10 -10 18 -11t33 7q101 37 274 213q112 114 131 116q15 2 -57 -77q-193 -213 -313 -273q-34 -17 -79 -17t-73 17q-49 30 -57 99zM115 528q0 13 18 27t35 14q15 0 31 -17.5 t12 -29.5q-9 -26 -32 -32.5t-46 10.5q-18 11 -18 28zM223.5 625q8.5 29 30.5 55q21 27 53 27q15 0 25 -13q9 -10 1.5 -43.5t-24.5 -54.5q-13 -19 -42.5 -23t-41.5 11q-10 12 -1.5 41zM275.5 525.5q0.5 18.5 11.5 27.5q12 9 35 6t32 -16q11 -17 -1 -37.5t-34 -20.5 q-23 0 -34 11q-10 11 -9.5 29.5z" />
<glyph unicode="&#xf1;" horiz-adv-x="743" d="M76 70q-7 34 13.5 129.5t45.5 142.5q20 40 58.5 55.5t66.5 -6.5q11 -7 10 -15t-14 -42q-14 -35 -29.5 -80.5t-25 -77t-8.5 -33.5q1 -1 3.5 2t6 9t6.5 14q11 29 72.5 118t97.5 132q66 74 119 65q51 -9 52.5 -63t-44.5 -203q-58 -194 -71.5 -270.5t5.5 -106.5 q15 -23 79.5 25t148.5 142t153 196q96 140 113 141q6 1 6 -12q0 -26 -132 -197t-210 -246q-53 -50 -85.5 -67t-72.5 -17q-36 0 -59 23q-38 40 -45.5 100.5t14.5 173.5q24 125 84 275q16 51 15 53q-2 6 -27.5 -19.5t-58 -65.5t-54.5 -73q-35 -51 -92 -166 q-43 -88 -62.5 -108.5t-45.5 -3.5q-8 5 -16 16t-9 21zM254 600q0 25 26 56.5t46 31.5q24 0 36.5 -10t30.5 -43q15 -29 26.5 -36.5t23 3.5t26.5 43q25 51 35 51q10 -3 10.5 -22.5t-10 -48t-25.5 -45.5q-15 -15 -40.5 -18t-45.5 9q-21 10 -40 29t-25 35q-9 29 -28 2l-13 -25 q-9 -24 -23 -25q-9 1 -10 13z" />
<glyph unicode="&#xf2;" horiz-adv-x="641" d="M76 221q7 61 28 100.5t48 45.5q29 6 36 10t7 14q0 18 20 49t39 43q26 13 49 13q27 0 49.5 -17t32.5 -47q13 -36 10 -129q0 -5 -1 -15q-2 -64 6 -74.5t50 -10.5h8h13q79 0 162 27.5t153 78.5q41 29 45 25t-11.5 -18.5t-42.5 -33t-54 -32.5q-70 -36 -130 -51t-134 -15 q-60 0 -73.5 -3t-18.5 -15q-9 -31 -40.5 -75.5t-56.5 -61.5q-28 -19 -60.5 -24.5t-57.5 3.5q-100 43 -76 213zM174 153.5q0 -93.5 10 -106.5q11 -12 16 -12.5t27 10.5q29 15 62 57.5t45 79.5q3 12 -2.5 18.5t-28.5 16.5q-42 17 -72 55l-36 37l-11 -30q-10 -32 -10 -125.5z M219 725q0 9 5 12.5t20 3.5q22 0 38.5 -20t45.5 -82q34 -72 20 -78q-7 -3 -26 4q-23 9 -63 70.5t-40 89.5zM244 368.5q-1 -41.5 18 -69.5q17 -26 48.5 -48t39.5 -13q8 8 8 94q0 57 -3 76t-13 34q-17 25 -39 25q-20 0 -39 -29q-19 -28 -20 -69.5z" />
<glyph unicode="&#xf3;" horiz-adv-x="641" d="M76 221q7 61 28 100.5t48 45.5q29 6 36 10t7 14q0 18 20 49t39 43q26 13 49 13q27 0 49.5 -17t32.5 -47q13 -36 10 -129q0 -5 -1 -15q-2 -64 6 -74.5t50 -10.5h8h13q79 0 162 27.5t153 78.5q41 29 45 25t-11.5 -18.5t-42.5 -33t-54 -32.5q-70 -36 -130 -51t-134 -15 q-60 0 -73.5 -3t-18.5 -15q-9 -31 -40.5 -75.5t-56.5 -61.5q-28 -19 -60.5 -24.5t-57.5 3.5q-100 43 -76 213zM174 153.5q0 -93.5 10 -106.5q11 -12 16 -12.5t27 10.5q29 15 62 57.5t45 79.5q3 12 -2.5 18.5t-28.5 16.5q-42 17 -72 55l-36 37l-11 -30q-10 -32 -10 -125.5z M244 368.5q-1 -41.5 18 -69.5q17 -26 48.5 -48t39.5 -13q8 8 8 94q0 57 -3 76t-13 34q-17 25 -39 25q-20 0 -39 -29q-19 -28 -20 -69.5zM246 596q-9 9 30 86q28 55 37 65.5t31 10.5q16 0 22 -3t5 -14t-10 -29.5t-29 -54.5q-22 -42 -34.5 -56.5t-23.5 -14.5q-21 0 -28 10z " />
<glyph unicode="&#xf4;" horiz-adv-x="641" d="M76 221q7 61 28 100.5t48 45.5q29 6 36 10t7 14q0 18 20 49t39 43q26 13 49 13q27 0 49.5 -17t32.5 -47q13 -36 10 -129q0 -5 -1 -15q-2 -64 6 -74.5t50 -10.5h8h13q79 0 162 27.5t153 78.5q41 29 45 25t-11.5 -18.5t-42.5 -33t-54 -32.5q-70 -36 -130 -51t-134 -15 q-60 0 -73.5 -3t-18.5 -15q-9 -31 -40.5 -75.5t-56.5 -61.5q-28 -19 -60.5 -24.5t-57.5 3.5q-100 43 -76 213zM174 153.5q0 -93.5 10 -106.5q11 -12 16 -12.5t27 10.5q29 15 62 57.5t45 79.5q3 12 -2.5 18.5t-28.5 16.5q-42 17 -72 55l-36 37l-11 -30q-10 -32 -10 -125.5z M190 571q0 7 29.5 61.5t44.5 76.5q57 75 129 -66q32 -72 10 -76q-37 0 -81 78l-29 51l-23 -41q-8 -11 -22 -35t-17 -28q-12 -21 -32 -26q-9 -2 -9 5zM244 368.5q-1 -41.5 18 -69.5q17 -26 48.5 -48t39.5 -13q8 8 8 94q0 57 -3 76t-13 34q-17 25 -39 25q-20 0 -39 -29 q-19 -28 -20 -69.5z" />
<glyph unicode="&#xf5;" horiz-adv-x="641" d="M76 221q7 61 28 100.5t48 45.5q29 6 36 10t7 14q0 18 20 49t39 43q26 13 49 13q27 0 49.5 -17t32.5 -47q13 -36 10 -129q0 -5 -1 -15q-2 -64 6 -74.5t50 -10.5h8h13q79 0 162 27.5t153 78.5q41 29 45 25t-11.5 -18.5t-42.5 -33t-54 -32.5q-70 -36 -130 -51t-134 -15 q-60 0 -73.5 -3t-18.5 -15q-9 -31 -40.5 -75.5t-56.5 -61.5q-28 -19 -60.5 -24.5t-57.5 3.5q-100 43 -76 213zM174 153.5q0 -93.5 10 -106.5q11 -12 16 -12.5t27 10.5q29 15 62 57.5t45 79.5q3 12 -2.5 18.5t-28.5 16.5q-42 17 -72 55l-36 37l-11 -30q-10 -32 -10 -125.5z M180 618q0 25 26 57t46 32q24 0 36.5 -10.5t30.5 -43.5q15 -29 26.5 -36.5t23 4t26.5 43.5q25 51 35 51q10 -3 10.5 -22.5t-9.5 -48.5t-25 -46q-15 -15 -41 -17.5t-46 9.5q-21 10 -40 28.5t-25 34.5q-9 29 -28 3l-13 -25q-9 -24 -23 -26q-10 -1 -10 13zM244 368.5 q-1 -41.5 18 -69.5q17 -26 48.5 -48t39.5 -13q8 8 8 94q0 57 -3 76t-13 34q-17 25 -39 25q-20 0 -39 -29q-19 -28 -20 -69.5z" />
<glyph unicode="&#xf6;" horiz-adv-x="641" d="M76 221q7 61 28 100.5t48 45.5q29 6 36 10t7 14q0 18 20 49t39 43q26 13 49 13q27 0 49.5 -17t32.5 -47q13 -36 10 -129q0 -5 -1 -15q-2 -64 6 -74.5t50 -10.5h8h13q79 0 162 27.5t153 78.5q41 29 45 25t-11.5 -18.5t-42.5 -33t-54 -32.5q-70 -36 -130 -51t-134 -15 q-60 0 -73.5 -3t-18.5 -15q-9 -31 -40.5 -75.5t-56.5 -61.5q-28 -19 -60.5 -24.5t-57.5 3.5q-100 43 -76 213zM174 153.5q0 -93.5 10 -106.5q11 -12 16 -12.5t27 10.5q29 15 62 57.5t45 79.5q3 12 -2.5 18.5t-28.5 16.5q-42 17 -72 55l-36 37l-11 -30q-10 -32 -10 -125.5z M180 618q0 13 18 27t35 14q15 0 31 -17.5t12 -29.5q-9 -26 -31.5 -32.5t-45.5 10.5q-19 11 -19 28zM244 368.5q-1 -41.5 18 -69.5q17 -26 48.5 -48t39.5 -13q8 8 8 94q0 57 -3 76t-13 34q-17 25 -39 25q-20 0 -39 -29q-19 -28 -20 -69.5zM340.5 615.5q0.5 18.5 11.5 27.5 q12 9 35.5 6t32.5 -16q11 -17 -1 -37.5t-34 -20.5q-24 0 -35 11q-10 11 -9.5 29.5z" />
<glyph unicode="&#xf8;" horiz-adv-x="641" d="M-117 -27q1 1 15.5 17t41 45t52.5 57q-13 58 -2 129q7 61 28 100.5t48 45.5q29 6 36 10t7 14q0 18 20 49t39 43q26 13 49 13q27 0 49.5 -17t32.5 -47q1 -2 2 -7t2 -7q73 73 82 76q11 3 19 1.5t8 -6.5q0 -1 -103 -120v-66q0 -5 -1 -15q-2 -64 6 -74.5t50 -10.5h8h13 q79 0 162 27.5t153 78.5q41 29 45 25t-11.5 -18.5t-42.5 -33t-54 -32.5q-70 -36 -130 -51t-134 -15q-60 0 -73.5 -3t-18.5 -15q-9 -31 -40.5 -75.5t-56.5 -61.5q-28 -19 -60.5 -24.5t-57.5 3.5q-32 14 -48 33q-65 -71 -88 -82q-22 -11 -36 -7t-11 21zM88 119q0 -62 10 -72 q11 -12 16 -12.5t27 10.5q29 15 62 57.5t45 79.5q3 12 -2.5 18.5t-28.5 16.5q-13 3 -29 16q-70 -77 -100 -114zM88 195q10 10 32 32.5t34 34.5q-8 8 -9 10l-36 37l-11 -30q-6 -16 -10 -84zM158 368.5q-1 -41.5 18 -69.5l4 -8q15 16 45.5 47.5t44.5 46.5q0 37 -14 57 q-17 25 -39 25q-20 0 -39 -29q-19 -28 -20 -69.5zM213 260q15 -14 31 -21t20 -1q8 8 8 90q-3 -4 -25.5 -30t-33.5 -38z" />
<glyph unicode="&#xf9;" horiz-adv-x="710" d="M62.5 226q16.5 86 64.5 157q25 37 45 47.5t51 1.5q13 -3 23 -9t10 -9q0 -6 -37 -86q-27 -56 -53.5 -136.5t-26.5 -107.5q0 -23 9 -32t24 -1q25 13 103 117.5t155 226.5q22 40 49 43q26 4 43 -10q13 -6 10.5 -21t-26.5 -81q-109 -311 -70 -361q51 -68 323 267q17 20 34 42 q80 99 88 99q19 0 -21 -59l-29 -40q-87 -117 -177 -213.5t-130 -117.5q-35 -19 -75.5 -17.5t-65.5 23.5q-30 26 -39 47q-12 25 -12 84t12 100q5 19 7 30t1 11q-19 -24 -37 -53q-71 -105 -106.5 -137t-73.5 -25q-50 9 -69.5 71.5t-3 148.5zM268 676q0 9 5 12.5t20 3.5 q22 0 38.5 -20t45.5 -82q34 -72 20 -78q-7 -3 -26 4q-23 9 -63 70.5t-40 89.5z" />
<glyph unicode="&#xfa;" horiz-adv-x="710" d="M62.5 226q16.5 86 64.5 157q25 37 45 47.5t51 1.5q13 -3 23 -9t10 -9q0 -6 -37 -86q-27 -56 -53.5 -136.5t-26.5 -107.5q0 -23 9 -32t24 -1q25 13 103 117.5t155 226.5q22 40 49 43q26 4 43 -10q13 -6 10.5 -21t-26.5 -81q-109 -311 -70 -361q51 -68 323 267q17 20 34 42 q80 99 88 99q19 0 -21 -59l-29 -40q-87 -117 -177 -213.5t-130 -117.5q-35 -19 -75.5 -17.5t-65.5 23.5q-30 26 -39 47q-12 25 -12 84t12 100q5 19 7 30t1 11q-19 -24 -37 -53q-71 -105 -106.5 -137t-73.5 -25q-50 9 -69.5 71.5t-3 148.5zM295 547q-8 8 31 86q28 56 36.5 66 t30.5 10q16 0 22 -3t5 -14t-10 -29.5t-29 -54.5q-22 -43 -34 -57t-23 -14q-22 0 -29 10z" />
<glyph unicode="&#xfb;" horiz-adv-x="710" d="M62.5 226q16.5 86 64.5 157q25 37 45 47.5t51 1.5q13 -3 23 -9t10 -9q0 -6 -37 -86q-27 -56 -53.5 -136.5t-26.5 -107.5q0 -23 9 -32t24 -1q25 13 103 117.5t155 226.5q22 40 49 43q26 4 43 -10q13 -6 10.5 -21t-26.5 -81q-109 -311 -70 -361q51 -68 323 267q17 20 34 42 q80 99 88 99q19 0 -21 -59l-29 -40q-87 -117 -177 -213.5t-130 -117.5q-35 -19 -75.5 -17.5t-65.5 23.5q-30 26 -39 47q-12 25 -12 84t12 100q5 19 7 30t1 11q-19 -24 -37 -53q-71 -105 -106.5 -137t-73.5 -25q-50 9 -69.5 71.5t-3 148.5zM240 522q0 7 29 61t44 76 q57 75 129 -65q36 -70 17 -75q-3 -1 -6 -1q-38 0 -82 78l-29 51l-23 -41q-8 -11 -21.5 -35t-16.5 -28q-12 -21 -32 -26q-9 -2 -9 5z" />
<glyph unicode="&#xfc;" horiz-adv-x="710" d="M62.5 226q-16.5 -86 3 -148.5t69.5 -71.5q38 -7 73.5 25t106.5 137l37 53q1 0 -1 -11t-7 -30q-12 -41 -12 -100t12 -84q9 -21 39 -47q25 -22 65.5 -23.5t75.5 17.5q40 21 130 117.5t177 213.5q66 90 55 98q-2 1 -5 1q-8 0 -88 -99q-291 -367 -352 -314l-5 5 q-39 50 70 361q24 66 26.5 81t-10.5 21q-17 14 -43 10q-27 -3 -49 -43q-77 -122 -155 -226.5t-103 -117.5q-15 -8 -24 1t-9 32q0 27 26.5 107.5t53.5 136.5q37 80 37 86q0 3 -10 9t-23 9q-31 9 -51 -1.5t-45 -47.5q-48 -71 -64.5 -157zM229 569q0 13 18.5 27t35.5 14 q15 0 31 -17.5t12 -29.5q-9 -26 -32 -32.5t-46 10.5q-19 11 -19 28zM389.5 566.5q0.5 18.5 11.5 27.5q12 9 35.5 6t32.5 -16q11 -17 -1 -37.5t-34 -20.5q-24 0 -35 11q-10 11 -9.5 29.5z" />
<glyph unicode="&#xfd;" horiz-adv-x="768" d="M-250 -768q-6 25 6 84.5t29 93.5q34 66 121.5 159t202.5 185q67 53 74 61q26 27 47 98q2 4 51 183q73 277 65 283q0 5 -43 -68l-96 -159q-60 -103 -100 -132.5t-84 -3.5q-31 19 -43.5 49.5t-12.5 92.5q0 129 68 241q19 32 27.5 39t31.5 8q42 3 46.5 -13t-19.5 -79 q-26 -63 -47 -137q-13 -50 -16.5 -110.5t5.5 -65.5q6 -3 34.5 25.5t52.5 62.5q12 16 77 127q62 107 98 154t56 47q34 0 45.5 -36t5.5 -120q-10 -120 -55 -289q-7 -27 -10 -44t-2 -17q14 0 155 112q68 53 135 122.5t105 127.5q28 42 41.5 53t23.5 1q11 -11 -82 -127 q-122 -145 -294 -269q-63 -43 -85.5 -63.5t-25.5 -36.5q-9 -42 -59 -184.5t-82 -214.5q-60 -143 -118 -212t-147 -104q-45 -19 -71.5 -20.5t-55.5 12.5q-43 21 -55 84zM-209 -727q-2 -62 27 -92q11 -13 25 -11t51 23q60 35 100.5 96.5t93.5 194.5q30 76 65.5 182t32.5 109 q-8 -2 -68 -51.5t-106 -92.5q-48 -43 -107.5 -116.5t-80.5 -114.5q-31 -65 -33 -127zM176 516q-8 8 31 86q28 56 36.5 66t30.5 10q28 0 28 -13q-1 -17 -40 -87q-23 -43 -34.5 -57.5t-22.5 -14.5q-22 0 -29 10z" />
<glyph unicode="&#xff;" horiz-adv-x="768" d="M-250 -768q-6 25 6 84.5t29 93.5q34 66 121.5 159t202.5 185q67 53 74 61q26 27 47 98q2 4 51 183q73 277 65 283q0 5 -43 -68l-96 -159q-60 -103 -100 -132.5t-84 -3.5q-31 19 -43.5 49.5t-12.5 92.5q0 129 68 241q19 32 27.5 39t31.5 8q42 3 46.5 -13t-19.5 -79 q-26 -63 -47 -137q-13 -50 -16.5 -110.5t5.5 -65.5q6 -3 34.5 25.5t52.5 62.5q12 16 77 127q62 107 98 154t56 47q34 0 45.5 -36t5.5 -120q-10 -120 -55 -289q-7 -27 -10 -44t-2 -17q14 0 155 112q68 53 135 122.5t105 127.5q28 42 41.5 53t23.5 1q11 -11 -82 -127 q-122 -145 -294 -269q-63 -43 -85.5 -63.5t-25.5 -36.5q-9 -42 -59 -184.5t-82 -214.5q-60 -143 -118 -212t-147 -104q-45 -19 -71.5 -20.5t-55.5 12.5q-43 21 -55 84zM-209 -727q-2 -62 27 -92q11 -13 25 -11t51 23q60 35 100.5 96.5t93.5 194.5q30 76 65.5 182t32.5 109 q-8 -2 -68 -51.5t-106 -92.5q-48 -43 -107.5 -116.5t-80.5 -114.5q-31 -65 -33 -127zM111 539q0 13 18 27t35 14q15 0 31 -18t12 -30q-9 -26 -32 -32.5t-46 10.5q-18 11 -18 29zM271.5 535.5q0.5 18.5 11.5 27.5q12 9 35 6t32 -16q11 -17 -1 -37t-34 -20q-24 0 -34 10 q-10 11 -9.5 29.5z" />
<glyph unicode="&#x152;" horiz-adv-x="1857" d="M119 276q0 117 11 189t42 162q12 34 12.5 47.5t-8.5 42.5q-23 72 -9.5 204.5t54.5 233.5q50 119 129.5 217t169.5 150q65 39 124.5 54t148.5 15q77 0 98 -3t59 -23q53 -26 109 -84t84 -115q83 -170 20 -500q-24 -147 -67 -280q4 4 13 12t13 12q41 38 107 80.5t94 50.5 q20 5 19 15q-2 5 -13 6q-19 0 -60 24t-55 43q-29 40 -19.5 115t52.5 170q52 110 165.5 236.5t232.5 203.5q112 72 196 72h23q15 -2 27 -7.5t19.5 -11t24.5 -20.5q26 -22 30.5 -45.5t-1.5 -56.5q-6 -124 -87.5 -267.5t-182.5 -209.5q-35 -23 -43.5 -25.5t-20.5 6.5 q-14 9 12 27q74 54 143 147t107 191q27 65 27 135q1 47 -2.5 60t-20.5 28q-21 18 -39.5 16t-70.5 -26q-74 -34 -185.5 -136.5t-181.5 -201.5q-92 -130 -130 -247.5t-3 -158.5q12 -17 50 -32t65 -13q78 3 96.5 2t18.5 -8q0 -5 -17 -14.5t-39 -16.5q-105 -38 -198 -108 q-131 -103 -204 -250t-73 -309q0 -80 12 -131.5t43 -98.5q71 -105 248 -65q122 26 306.5 152t357.5 300q50 52 90.5 88.5t46.5 36.5q9 0 8.5 -3.5t-10.5 -18.5q-23 -32 -154.5 -158t-193.5 -176q-196 -155 -325 -214t-249 -48q-132 12 -206 109t-72 255q0 31 2 45 q-71 -107 -151 -187.5t-150 -113.5q-47 -24 -109 -28t-112 14q-130 44 -195 162q-35 59 -44 108.5t-9 173.5zM219 309q-11 -163 31.5 -279t128.5 -159q42 -22 81.5 -19t98.5 31q80 40 179 149.5t171 237.5q35 119 107 219q68 173 104 363q51 254 24.5 395t-145.5 250 q-51 48 -106 66q-46 14 -78 14q-31 3 -88 -12q-140 -28 -250 -135q-55 -55 -85 -97.5t-66 -113.5q-43 -89 -69 -189t-26 -184l2 -55l31 59q37 70 63.5 107t71.5 83q112 106 209 103q41 0 73 -13t32 -28q0 -13 -19 -8q-43 12 -64 10t-55 -21q-78 -44 -150 -148t-126 -249 q-17 -46 -18 -60.5t8 -33.5q15 -30 67 -82q53 -53 78 -53t25 -8q0 -6 -15 -7.5t-36 1.5t-37 10q-16 6 -72 51q-41 41 -45 37q-6 -6 -18 -88t-17 -144z" />
<glyph unicode="&#x153;" horiz-adv-x="847" d="M80 227q9 62 29.5 102t46.5 46q29 6 36 10t7 14q0 17 20 48.5t39 41.5q24 15 49 15q27 -2 49.5 -19t34.5 -47q8 -27 10 -49q41 74 103 100q29 11 49 11q34 2 55 -17.5t21 -54.5q0 -37 -18 -79t-44 -68q-20 -20 -32 -25.5t-33 -5.5q-32 0 -39 -10q-6 -12 -6 -74 q-2 -110 51.5 -129t185.5 47q84 41 128.5 75t131.5 122q27 27 52.5 51t40.5 37t16 12q12 -10 -88.5 -116t-161.5 -148q-105 -72 -201 -103q-101 -35 -174 4q-65 38 -84 117q-15 -29 -37.5 -57.5t-40.5 -40.5q-27 -20 -61 -26t-57 3q-102 44 -78 213zM178 160q0 -93 12 -107 q11 -12 15 -12t26 10q29 15 63 58t44 79q3 12 -2.5 19t-28.5 16q-30 15 -71 56l-35 38l-11 -30q-12 -34 -12 -127zM249 374.5q-1 -42.5 17 -69.5q15 -23 45 -44.5t41 -18.5q3 20 10 45q0 7 1.5 25t1.5 28q0 56 -3.5 76t-15.5 35q-19 25 -39 22q-20 0 -37 -27 q-20 -29 -21 -71.5zM479 279q8 -22 43 4q34 28 52.5 84.5t3.5 85.5q-9 12 -16 9t-23 -22q-22 -25 -44 -84.5t-16 -76.5z" />
<glyph unicode="&#x178;" horiz-adv-x="1120" d="M-86 836q3 -37 15.5 -58.5t31.5 -21.5q9 0 11 9.5t-1 43.5q-3 55 21 133q21 73 71 178.5t95 169.5q44 66 114 135t121 97q85 50 104 35q3 -3 3 -7q0 -45 -117 -368q-97 -277 -138 -437.5t-34.5 -249t61.5 -124.5q27 -19 76 -19q33 0 50.5 6t50.5 29q133 86 311 393 q91 154 205 410q54 122 98 213q25 48 50.5 87.5t29.5 35.5q5 -5 -26.5 -192.5t-51.5 -274.5q-47 -225 -85 -361.5t-99 -304.5q-88 -245 -150 -366q-75 -143 -147 -227t-154 -124q-91 -44 -160.5 -34t-103.5 73q-22 39 -19 99.5t31 115.5q19 38 67.5 107t61.5 76q8 8 8 12 q0 28 -54 -25q-66 -65 -104 -136q-3 -5 -5 -9q-39 -82 -43.5 -141.5t24.5 -112.5q17 -30 41 -47.5t66 -32.5q68 -24 162 -5t178 73q94 62 186.5 189t155.5 282q75 182 153 448q25 83 67.5 268.5t57.5 278.5q11 61 24 187.5t11 152.5q-1 5 -2 21t-2 22q-1 25 -19.5 41 t-44.5 16q-17 0 -27.5 -6t-27.5 -26q-20 -23 -93.5 -170.5t-139.5 -294.5q-68 -155 -195 -359q-149 -239 -270 -319q-35 -23 -55 -29.5t-32 2t-20 35.5q-17 52 6 156.5t99 330.5q111 327 137 420t26 162q0 37 -3.5 51t-16.5 27q-25 25 -64 21.5t-106 -37.5 q-130 -66 -242 -211q-50 -64 -75.5 -105t-67.5 -125q-95 -197 -86 -282zM723 1681q0 13 18 27t35 14q15 0 31 -17.5t12 -29.5q-9 -26 -32 -32.5t-46 10.5q-18 11 -18 28zM883.5 1678.5q0.5 18.5 11.5 27.5q12 9 35.5 6t32.5 -16q11 -17 -1 -37.5t-34 -20.5q-24 0 -35 11 q-10 11 -9.5 29.5z" />
<glyph unicode="&#x2c6;" horiz-adv-x="417" d="M299 432q0 7 29.5 60.5t44.5 76.5q57 75 129 -65q32 -72 10 -76q-38 0 -82 78l-29 51l-22 -41q-8 -11 -22 -35t-17 -28q-12 -21 -32 -26q-9 -2 -9 5z" />
<glyph unicode="&#x2dc;" horiz-adv-x="428" d="M332 479q0 25 25.5 56.5t45.5 31.5q25 0 38 -10.5t30 -42.5q15 -29 26.5 -36.5t23 3.5t26.5 43q25 51 35 51q10 -3 10.5 -22.5t-10 -48t-25.5 -45.5q-15 -15 -40.5 -17.5t-45.5 9.5q-21 10 -40 28.5t-25 34.5q-9 29 -28 3l-13 -25q-9 -24 -23 -26q-9 1 -10 13z" />
<glyph unicode="&#x2000;" horiz-adv-x="943" />
<glyph unicode="&#x2001;" horiz-adv-x="1886" />
<glyph unicode="&#x2002;" horiz-adv-x="943" />
<glyph unicode="&#x2003;" horiz-adv-x="1886" />
<glyph unicode="&#x2004;" horiz-adv-x="628" />
<glyph unicode="&#x2005;" horiz-adv-x="471" />
<glyph unicode="&#x2006;" horiz-adv-x="314" />
<glyph unicode="&#x2007;" horiz-adv-x="314" />
<glyph unicode="&#x2008;" horiz-adv-x="235" />
<glyph unicode="&#x2009;" horiz-adv-x="377" />
<glyph unicode="&#x200a;" horiz-adv-x="104" />
<glyph unicode="&#x2010;" horiz-adv-x="649" d="M442 196.5q-5 13.5 7 22.5q0 2 58 1.5t124 -3.5q107 -3 142.5 -7t47.5 -13q20 -16 13 -23q-8 -8 -172 -8q-165 -2 -195 8q-20 9 -25 22.5z" />
<glyph unicode="&#x2011;" horiz-adv-x="649" d="M442 196.5q-5 13.5 7 22.5q0 2 58 1.5t124 -3.5q107 -3 142.5 -7t47.5 -13q20 -16 13 -23q-8 -8 -172 -8q-165 -2 -195 8q-20 9 -25 22.5z" />
<glyph unicode="&#x2012;" horiz-adv-x="649" d="M442 196.5q-5 13.5 7 22.5q0 2 58 1.5t124 -3.5q107 -3 142.5 -7t47.5 -13q20 -16 13 -23q-8 -8 -172 -8q-165 -2 -195 8q-20 9 -25 22.5z" />
<glyph unicode="&#x2013;" horiz-adv-x="630" d="M300.5 186.5q-6.5 13.5 8.5 22.5q3 1 31 1.5t77 -0.5t101 -3q122 -3 163.5 -7t55.5 -14q22 -15 15 -22q-8 -8 -199 -8q-190 -2 -223 8q-23 9 -29.5 22.5z" />
<glyph unicode="&#x2014;" horiz-adv-x="1009" d="M265 189q1 8 20 14q5 1 57.5 1.5t143 -0.5t186.5 -3q227 -3 304 -7t105 -14q31 -11 29 -19q0 -2 -2 -3q-16 -8 -371 -8q-354 -3 -413 8q-62 13 -59 31z" />
<glyph unicode="&#x2018;" horiz-adv-x="319" d="M366 501.5q11 47.5 42 73.5q32 26 43 7q4 -12 -17 -37q-20 -23 -21.5 -40.5t15.5 -23.5q14 -6 19 -20t-1 -29q-8 -12 -33.5 -12t-37.5 12q-20 22 -9 69.5z" />
<glyph unicode="&#x2019;" horiz-adv-x="305" d="M383 428q-4 13 16 37q44 47 7 63q-15 4 -20 19t1 28q7 13 33.5 13t38.5 -13q20 -20 9 -68t-42 -73q-19 -15 -28 -16.5t-15 10.5z" />
<glyph unicode="&#x201a;" horiz-adv-x="233" d="M281 -78q-4 13 16 37q20 22 21.5 39.5t-15.5 24.5q-14 4 -19.5 19t1.5 28q7 14 33 14t38 -14q20 -20 9.5 -68.5t-41.5 -73.5q-19 -15 -28 -16.5t-15 10.5z" />
<glyph unicode="&#x201c;" horiz-adv-x="346" d="M312.5 501.5q10.5 47.5 41.5 73.5q32 26 43 7q4 -13 -16 -37q-20 -23 -21.5 -40.5t15.5 -23.5q32 -13 18 -49q-7 -12 -33 -12t-38 12q-20 22 -9.5 69.5zM407 501.5q11 47.5 42 73.5q32 26 43 7q4 -12 -17 -37q-20 -23 -21.5 -40.5t15.5 -23.5q14 -6 18.5 -20t-2.5 -29 q-6 -12 -31.5 -12t-37.5 12q-20 22 -9 69.5z" />
<glyph unicode="&#x201d;" horiz-adv-x="374" d="M375 432q-4 13 16 37q43 47 6 63q-13 4 -18.5 19.5t0.5 28.5q7 14 33.5 14t38.5 -14q20 -20 9 -68.5t-42 -73.5q-19 -15 -28 -16.5t-15 10.5zM469 432q-4 13 16 37q44 47 7 63q-15 4 -20 19.5t1 28.5q6 14 33 14t39 -14q20 -20 9 -68.5t-42 -73.5q-19 -15 -28 -16.5 t-15 10.5z" />
<glyph unicode="&#x201e;" horiz-adv-x="280" d="M186 -78q-4 12 17 37q20 22 21.5 39.5t-15.5 24.5q-13 4 -19 19t0 28q8 14 34 14t38 -14q20 -20 9 -68.5t-42 -73.5q-19 -15 -28 -16.5t-15 10.5zM281 -78q-7 10 16 37q20 22 21.5 39.5t-15.5 24.5q-14 4 -19.5 19t1.5 28q6 14 32.5 14t38.5 -14q20 -20 9.5 -68.5 t-41.5 -73.5q-19 -15 -28 -16.5t-15 10.5z" />
<glyph unicode="&#x2022;" horiz-adv-x="565" d="M402.5 255q2.5 58 39.5 107q31 42 85.5 57t108.5 -2t83 -61q43 -66 18.5 -147t-96.5 -115q-60 -27 -123 -8q-55 17 -86.5 64t-29 105z" />
<glyph unicode="&#x202f;" horiz-adv-x="377" />
<glyph unicode="&#x205f;" horiz-adv-x="471" />
<glyph unicode="&#x20ac;" horiz-adv-x="837" d="M395 361q0 4 4 8t56 8q32 1 41.5 5t11.5 15q1 3 7 37t11 58q38 197 129 359.5t183 197.5q36 13 96 9.5t92 -18.5q44 -23 6 -24q-17 -1 -49 4q-53 9 -80 -1.5t-67 -53.5q-57 -63 -110 -185t-81 -252q-19 -82 -24 -120l-3 -25h84q83 0 86 -10q2 -5 -1.5 -8t-15 -6t-32.5 -6 t-57 -7l-72 -6l-2 -47l-2 -49h47q60 0 74 -16q5 -6 -4 -11q-6 -4 -64 -8h-53v-64q0 -125 48.5 -233t117.5 -137q38 -17 85.5 -9.5t66.5 33.5q7 9 13.5 12t10.5 0t4 -12q0 -12 -17 -30.5t-40 -28.5q-17 -10 -80 -10q-41 0 -62.5 4.5t-52.5 21.5q-93 46 -149 164 q-23 46 -38 119t-15 129q0 29 -4 35t-21 6q-31 5 -35 8q-18 12 1 22q12 5 28 5q22 0 26.5 5t4.5 32q0 35 4 51q1 4 1 6t-5.5 3.5t-14.5 2t-26 0.5q-62 0 -62 17z" />
<glyph unicode="&#x25fc;" horiz-adv-x="460" d="M0 0v461h461v-461h-461z" />
</font>
</defs>
</svg>
